{
.appVersion = "983";
DisplayStrings = (
C
);
classes = (
{
automatic = 1;

glyphs = (
{
color = 1;
glyphname = A;
layers = (
{
anchors = (
{
name = bottom;
position = "{344, 0}";
},
{
name = ogonek;
position = "{596, 0}";
},
{
name = top;
position = "{349, 692}";
},
{
name = topleft;
position = "{279, 692}";
}
);
layerId = "075BA79B-D813-4287-A9DD-CCAF2D535ED3";
paths = (
{
closed = 1;
nodes = (
"358 693 LINE",
"339 691 LINE",
"91 22 LINE",
"99 29 LINE",
"0 15 LINE",
"0 0 LINE",
"229 0 LINE",
"229 15 LINE",
"107 29 LINE",
"112 22 LINE",
"182 213 LINE",
"173 206 LINE",
"513 206 LINE",
"504 213 LINE",
"570 22 LINE",
"574 29 LINE",
"451 15 LINE",
"451 0 LINE",
"685 0 LINE",
"685 15 LINE",
"583 29 LINE",
"592 22 LINE"
);
},
{
closed = 1;
nodes = (
"350 672 LINE",
"346 672 LINE",
"502 219 LINE",
"506 225 LINE",
"179 225 LINE",
"184 219 LINE"
);
}
);
width = 685;
},
{
anchors = (
{
name = bottom;
position = "{331, 0}";
},
{
name = ogonek;
position = "{633, 0}";
},
{
name = top;
position = "{355, 710}";
},
{
name = topleft;
position = "{194, 710}";
}
);
background = {
paths = (
{
closed = 1;
nodes = (
"249 710 LINE",
"25 100 LINE",
"70 134 LINE",
"-10 100 LINE",
"-10 0 LINE",
"270 5 LINE",
"270 105 LINE",
"194 138 LINE",
"210 99 LINE",
"344 533 LINE",
"334 533 LINE",
"447 86 LINE",
"471 135 LINE",
"386 100 LINE",
"386 0 LINE",
"708 5 LINE",
"708 105 LINE",
"627 139 LINE",
"673 105 LINE",
"462 710 LINE"
);
}
);
};
layerId = "927AED37-E9E6-4F96-A08E-421C3785EFC6";
paths = (
{
closed = 1;
nodes = (
"461 713 LINE",
"250 708 LINE",
"22 94 LINE",
"67 133 LINE",
"-9 100 LINE",
"-9 0 LINE",
"269 0 LINE",
"269 100 LINE",
"209 127 LINE",
"213 108 LINE",
"242 202 LINE",
"221 185 LINE",
"445 185 LINE",
"416 205 LINE",
"443 104 LINE",
"461 131 LINE",
"393 100 LINE",
"393 0 LINE",
"706 0 LINE",
"706 100 LINE",
"628 135 LINE",
"679 89 LINE"
);
},
{
closed = 1;
nodes = (
"365 604 LINE",
"317 605 LINE",
"394 289 LINE",
"413 315 LINE",
"258 315 LINE",
"270 294 LINE"
);
}
);
width = 698;
}
);
leftKerningGroup = A;
rightKerningGroup = A;
unicode = 0041;
},
{
color = 1;
glyphname = AE;
layers = (
{
anchors = (
{
name = bottom;
position = "{483, 0}";
},
{
name = top;
position = "{602, 692}";
}
);
layerId = "075BA79B-D813-4287-A9DD-CCAF2D535ED3";
paths = (
{
closed = 1;
nodes = (
"242 0 LINE",
"242 15 LINE",
"121 29 LINE",
"125 22 LINE",
"239 232 LINE",
"229 226 LINE",
"501 226 LINE",
"494 233 LINE",
"494 21 LINE",
"501 29 LINE",
"394 15 LINE",
"394 0 LINE",
"878 0 LINE",
"878 141 LINE",
"863 141 LINE",
"848 12 LINE",
"856 19 LINE",
"507 19 LINE",
"514 12 LINE",
"514 366 LINE",
"507 359 LINE",
"797 359 LINE",
"797 378 LINE",
"507 378 LINE",
"514 371 LINE",
"514 680 LINE",
"507 673 LINE",
"843 673 LINE",
"835 680 LINE",
"850 556 LINE",
"865 556 LINE",
"865 692 LINE",
"515 692 LINE",
"361 687 LINE",
"361 672 LINE",
"460 664 LINE",
"456 671 LINE",
"103 22 LINE",
"113 29 LINE",
"13 15 LINE",
"13 0 LINE"
);
},
{
closed = 1;
nodes = (
"482 679 LINE",
"472 673 LINE",
"501 673 LINE",
"494 680 LINE",
"494 238 LINE",
"501 245 LINE",
"239 245 LINE",
"243 239 LINE"
);
}
);
width = 969;
},
{
anchors = (
{
name = bottom;
position = "{459, 0}";
},
{
name = top;
position = "{515, 710}";
}
);
background = {
paths = (
{
closed = 1;
nodes = (
"751 115 LINE",
"788 145 LINE",
"591 145 LINE",
"621 115 LINE",
"621 325 LINE",
"591 295 LINE",
"800 295 LINE",
"800 430 LINE",
"591 430 LINE",
"621 400 LINE",
"621 595 LINE",
"591 565 LINE",
"776 565 LINE",
"740 591 LINE",
"763 508 LINE",
"883 508 LINE",
"883 710 LINE",
"616 710 LINE",
"356 705 LINE",
"356 605 LINE",
"440 572 LINE",
"416 610 LINE",
"416 95 LINE",
"441 134 LINE",
"356 100 LINE",
"356 0 LINE",
"893 0 LINE",
"895 211 LINE",
"775 211 LINE"
);
}
);
};
layerId = "927AED37-E9E6-4F96-A08E-421C3785EFC6";
paths = (
{
closed = 1;
nodes = (
"265 0 LINE",
"265 100 LINE",
"194 133 LINE",
"204 91 LINE",
"257 221 LINE",
"216 195 LINE",
"446 195 LINE",
"416 221 LINE",
"416 104 LINE",
"440 136 LINE",
"366 100 LINE",
"366 0 LINE",
"889 0 LINE",
"891 211 LINE",
"771 211 LINE",
"745 111 LINE",
"780 145 LINE",
"591 145 LINE",
"621 114 LINE",
"621 325 LINE",
"591 295 LINE",
"795 295 LINE",
"795 430 LINE",
"591 430 LINE",
"621 400 LINE",
"621 595 LINE",
"591 565 LINE",
"768 565 LINE",
"733 601 LINE",
"758 508 LINE",
"878 508 LINE",
"878 710 LINE",
"417 710 LINE",
"154 705 LINE",
"154 605 LINE",
"252 568 LINE",
"231 598 LINE",
"14 92 LINE",
"66 133 LINE",
"-14 100 LINE",
"-14 0 LINE"
);
},
{
closed = 1;
nodes = (
"403 583 LINE",
"366 565 LINE",
"446 565 LINE",
"416 584 LINE",
"416 305 LINE",
"446 325 LINE",
"269 325 LINE",
"291 305 LINE"
);
}
);
width = 920;
}
);
leftKerningGroup = AE;
rightKerningGroup = E;
rightMetricsKey = E;
unicode = 00C6;
},
{
color = 1;
glyphname = B;
layers = (
{
anchors = (
{
name = bottom;
position = "{314, 0}";
},
{
name = top;
position = "{314, 691}";
}
);
guideLines = (
{
angle = 90;
position = "{527, 425}";
}
);
layerId = "075BA79B-D813-4287-A9DD-CCAF2D535ED3";
paths = (
{
closed = 1;
nodes = (
"484 377 OFFCURVE",
"527 442 OFFCURVE",
"527 525 CURVE SMOOTH",
"527 622 OFFCURVE",
"466 692 OFFCURVE",
"323 692 CURVE SMOOTH",
"189 692 LINE",
"68 687 LINE",
"68 672 LINE",
"175 662 LINE",
"168 670 LINE",
"168 21 LINE",
"175 29 LINE",
"68 15 LINE",
"68 0 LINE",
"317 0 LINE SMOOTH",
"491 0 OFFCURVE",
"554 83 OFFCURVE",
"554 183 CURVE SMOOTH",
"554 276 OFFCURVE",
"497 354 OFFCURVE",
"365 358 CURVE",
"362 354 LINE"
);
},
{
closed = 1;
nodes = (
"449 673 OFFCURVE",
"505 612 OFFCURVE",
"505 523 CURVE SMOOTH",
"505 432 OFFCURVE",
"446 364 OFFCURVE",
"290 364 CURVE SMOOTH",
"181 364 LINE",
"188 357 LINE",
"188 680 LINE",
"181 673 LINE",
"318 673 LINE SMOOTH"
);
},
{
closed = 1;
nodes = (
"181 19 LINE",
"188 12 LINE",
"188 352 LINE",
"181 345 LINE",
"345 345 LINE SMOOTH",
"476 345 OFFCURVE",
"532 271 OFFCURVE",
"532 181 CURVE SMOOTH",
"532 91 OFFCURVE",
"475 19 OFFCURVE",
"317 19 CURVE SMOOTH"
);
}
);
width = 644;
},
{
anchors = (
{
name = bottom;
position = "{328, 0}";
},
{
name = top;
position = "{328, 710}";
}
);
background = {
paths = (
{
closed = 1;
nodes = (
"342 357 LINE SMOOTH",
"523 357 OFFCURVE",
"611 405 OFFCURVE",
"611 531 CURVE SMOOTH",
"611 664 OFFCURVE",
"516 711 OFFCURVE",
"361 711 CURVE SMOOTH",
"279 711 LINE",
"14 705 LINE",
"14 605 LINE",
"84 580 LINE",
"289 566 LINE",
"335 566 LINE SMOOTH",
"384 566 OFFCURVE",
"411 549 OFFCURVE",
"411 496 CURVE SMOOTH",
"411 445 OFFCURVE",
"375 433 OFFCURVE",
"316 433 CURVE SMOOTH",
"265 433 LINE",
"286 357 LINE"
);
},
{
closed = 1;
nodes = (
"289 0 LINE",
"289 130 LINE",
"84 125 LINE",
"14 100 LINE",
"14 0 LINE"
);
},
{
closed = 1;
nodes = (
"289 130 LINE",
"289 566 LINE",
"84 580 LINE",
"84 125 LINE"
);
},
{
closed = 1;
nodes = (
"346 0 LINE SMOOTH",
"526 0 OFFCURVE",
"633 65 OFFCURVE",
"633 204 CURVE SMOOTH",
"633 339 OFFCURVE",
"522 371 OFFCURVE",
"376 371 CURVE SMOOTH",
"265 371 LINE",
"265 304 LINE",
"351 303 LINE SMOOTH",
"402 302 OFFCURVE",
"422 271 OFFCURVE",
"422 229 CURVE SMOOTH",
"422 165 OFFCURVE",
"386 145 OFFCURVE",
"327 145 CURVE SMOOTH",
"280 145 LINE",
"280 0 LINE"
);
}
);
};
guideLines = (
{
angle = 90;
position = "{603, 435}";
}
);
layerId = "927AED37-E9E6-4F96-A08E-421C3785EFC6";
paths = (
{
closed = 1;
nodes = (
"521 361 OFFCURVE",
"603 409 OFFCURVE",
"603 532 CURVE SMOOTH",
"603 664 OFFCURVE",
"507 711 OFFCURVE",
"362 711 CURVE SMOOTH",
"279 711 LINE",
"24 705 LINE",
"24 605 LINE",
"116 569 LINE",
"84 610 LINE",
"84 95 LINE",
"109 134 LINE",
"24 100 LINE",
"24 0 LINE",
"342 0 LINE SMOOTH",
"522 0 OFFCURVE",
"629 66 OFFCURVE",
"629 202 CURVE SMOOTH",
"629 337 OFFCURVE",
"525 373 OFFCURVE",
"381 373 CURVE",
"369 354 LINE"
);
},
{
closed = 1;
nodes = (
"372 568 OFFCURVE",
"398 556 OFFCURVE",
"398 502 CURVE SMOOTH",
"398 444 OFFCURVE",
"367 428 OFFCURVE",
"303 428 CURVE SMOOTH",
"259 428 LINE",
"289 403 LINE",
"289 598 LINE",
"259 568 LINE",
"322 568 LINE SMOOTH"
);
},
{
closed = 1;
nodes = (
"259 143 LINE",
"289 113 LINE",
"289 339 LINE",
"259 308 LINE",
"347 308 LINE SMOOTH",
"398 308 OFFCURVE",
"421 278 OFFCURVE",
"421 225 CURVE SMOOTH",
"421 159 OFFCURVE",
"388 143 OFFCURVE",
"323 143 CURVE SMOOTH"
);
}
);
width = 641;
}
);
leftKerningGroup = H;
rightKerningGroup = B;
unicode = 0042;
},
{
color = 1;
glyphname = C;
layers = (
{
anchors = (
{
name = bottom;
position = "{378, 0}";
},
{
name = top;
position = "{378, 692}";
}
);
layerId = "075BA79B-D813-4287-A9DD-CCAF2D535ED3";
paths = (
{
closed = 1;
nodes = (
"452 -6 OFFCURVE",
"540 26 OFFCURVE",
"622 93 CURVE",
"609 109 LINE",
"532 45 OFFCURVE",
"453 15 OFFCURVE",
"379 15 CURVE SMOOTH",
"230 15 OFFCURVE",
"108 137 OFFCURVE",
"108 345 CURVE SMOOTH",
"108 551 OFFCURVE",
"224 678 OFFCURVE",
"389 678 CURVE SMOOTH",
"450 678 OFFCURVE",
"523 661 OFFCURVE",
"587 637 CURVE",
"582 646 LINE",
"593 516 LINE",
"608 516 LINE",
"613 650 LINE",
"536 683 OFFCURVE",
"461 698 OFFCURVE",
"398 698 CURVE SMOOTH",
"213 698 OFFCURVE",
"86 566 OFFCURVE",
"86 343 CURVE SMOOTH",
"86 122 OFFCURVE",
"213 -6 OFFCURVE",
"373 -6 CURVE SMOOTH"
);
}
);
width = 667;
},
{
anchors = (
{
name = bottom;
position = "{340, 0}";
},
{
name = top;
position = "{347, 710}";
}
);
background = {
paths = (
{
closed = 1;
nodes = (
"415 -15 OFFCURVE",
"522 14 OFFCURVE",
"618 86 CURVE",
"541 202 LINE",
"480 165 OFFCURVE",
"419 147 OFFCURVE",
"375 147 CURVE SMOOTH",
"282 147 OFFCURVE",
"236 225 OFFCURVE",
"236 376 CURVE SMOOTH",
"236 501 OFFCURVE",
"274 570 OFFCURVE",
"371 570 CURVE SMOOTH",
"402 570 OFFCURVE",
"435 563 OFFCURVE",
"476 549 CURVE",
"442 579 LINE",
"473 472 LINE",
"593 472 LINE",
"605 671 LINE",
"514 707 OFFCURVE",
"439 725 OFFCURVE",
"363 725 CURVE SMOOTH",
"159 725 OFFCURVE",
"16 597 OFFCURVE",
"16 358 CURVE SMOOTH",
"16 120 OFFCURVE",
"127 -15 OFFCURVE",
"330 -15 CURVE SMOOTH"
);
}
);
};
layerId = "927AED37-E9E6-4F96-A08E-421C3785EFC6";
paths = (
{
closed = 1;
nodes = (
"417 -16 OFFCURVE",
"512 17 OFFCURVE",
"616 86 CURVE",
"543 202 LINE",
"480 166 OFFCURVE",
"423 148 OFFCURVE",
"378 148 CURVE SMOOTH",
"287 148 OFFCURVE",
"236 224 OFFCURVE",
"236 374 CURVE SMOOTH",
"236 501 OFFCURVE",
"273 570 OFFCURVE",
"371 570 CURVE SMOOTH",
"402 570 OFFCURVE",
"435 563 OFFCURVE",
"476 549 CURVE",
"442 579 LINE",
"473 472 LINE",
"593 472 LINE",
"605 671 LINE",
"514 707 OFFCURVE",
"439 725 OFFCURVE",
"362 725 CURVE SMOOTH",
"159 725 OFFCURVE",
"16 599 OFFCURVE",
"16 353 CURVE SMOOTH",
"16 120 OFFCURVE",
"144 -16 OFFCURVE",
"323 -16 CURVE SMOOTH"
);
}
);
width = 621;
}
);
leftKerningGroup = O;
rightKerningGroup = C;
unicode = 0043;
},
{
glyphname = Ccedilla;
layers = (
{
components = (
{
name = C;
},
{
name = cedillacomb.case;
transform = "{1, 0, 0, 1, 234, 0}";
}
);
layerId = "075BA79B-D813-4287-A9DD-CCAF2D535ED3";
width = 667;
},
{
background = {
paths = (
{
closed = 1;
nodes = (
"357 -167 OFFCURVE",
"340 -173 OFFCURVE",
"310 -173 CURVE SMOOTH",
"288 -173 OFFCURVE",
"268 -166 OFFCURVE",
"248 -155 CURVE",
"205 -241 LINE",
"232 -258 OFFCURVE",
"278 -275 OFFCURVE",
"330 -275 CURVE SMOOTH",
"435 -275 OFFCURVE",
"494 -220 OFFCURVE",
"494 -151 CURVE SMOOTH",
"494 -89 OFFCURVE",
"457 -52 OFFCURVE",
"384 -43 CURVE",
"384 -18 LINE",
"476 -10 OFFCURVE",
"548 31 OFFCURVE",
"594 77 CURVE",
"504 193 LINE",
"463 161 OFFCURVE",
"422 135 OFFCURVE",
"364 135 CURVE SMOOTH",
"290 135 OFFCURVE",
"244 203 OFFCURVE",
"244 350 CURVE SMOOTH",
"244 497 OFFCURVE",
"292 568 OFFCURVE",
"370 568 CURVE SMOOTH",
"418 568 OFFCURVE",
"455 549 OFFCURVE",
"488 519 CURVE",
"586 634 LINE",
"527 685 OFFCURVE",
"455 716 OFFCURVE",
"358 716 CURVE SMOOTH",
"166 716 OFFCURVE",
"30 582 OFFCURVE",
"30 350 CURVE SMOOTH",
"30 142 OFFCURVE",
"125 17 OFFCURVE",
"276 -13 CURVE",
"263 -120 LINE",
"328 -120 OFFCURVE",
"357 -127 OFFCURVE",
"357 -148 CURVE SMOOTH"
);
}
);
};
components = (
{
name = C;
},
{
name = cedillacomb.case;
transform = "{1, 0, 0, 1, 197, 0}";
}
);
layerId = "927AED37-E9E6-4F96-A08E-421C3785EFC6";
width = 621;
}
);
leftKerningGroup = O;
rightKerningGroup = C;
unicode = 00C7;
},
{
color = 1;
glyphname = D;
layers = (
{
anchors = (
{
name = bottom;
position = "{365, 0}";
},
{
name = center;
position = "{378, 345}";
},
{
name = top;
position = "{344, 691}";
}
);
layerId = "075BA79B-D813-4287-A9DD-CCAF2D535ED3";
paths = (
{
closed = 1;
nodes = (
"218 692 LINE",
"68 687 LINE",
"68 672 LINE",
"175 662 LINE",
"168 670 LINE",
"168 21 LINE",
"175 29 LINE",
"68 15 LINE",
"68 0 LINE",
"339 0 LINE SMOOTH",
"510 0 OFFCURVE",
"653 120 OFFCURVE",
"653 355 CURVE SMOOTH",
"653 591 OFFCURVE",
"508 692 OFFCURVE",
"351 692 CURVE SMOOTH"
);
},
{
closed = 1;
nodes = (
"181 19 LINE",
"188 12 LINE",
"188 680 LINE",
"181 673 LINE",
"350 673 LINE SMOOTH",
"501 673 OFFCURVE",
"631 570 OFFCURVE",
"631 351 CURVE SMOOTH",
"631 126 OFFCURVE",
"494 19 OFFCURVE",
"339 19 CURVE SMOOTH"
);
}
);
width = 738;
},
{
anchors = (
{
name = bottom;
position = "{329, 0}";
},
{
name = center;
position = "{358, 356}";
},
{
name = top;
position = "{309, 710}";
}
);
background = {
paths = (
{
closed = 1;
nodes = (
"289 0 LINE",
"289 145 LINE",
"289 145 LINE",
"84 125 LINE",
"14 100 LINE",
"14 0 LINE"
);
},
{
closed = 1;
nodes = (
"289 145 LINE",
"289 565 LINE",
"84 580 LINE",
"84 125 LINE"
);
},
{
closed = 1;
nodes = (
"84 580 LINE",
"289 565 LINE",
"289 565 LINE",
"289 710 LINE",
"14 705 LINE",
"14 605 LINE"
);
},
{
closed = 1;
nodes = (
"329 0 LINE SMOOTH",
"545 0 OFFCURVE",
"680 137 OFFCURVE",
"680 373 CURVE SMOOTH",
"680 588 OFFCURVE",
"565 710 OFFCURVE",
"349 710 CURVE SMOOTH",
"289 710 LINE",
"289 565 LINE",
"344 565 LINE SMOOTH",
"425 565 OFFCURVE",
"460 517 OFFCURVE",
"460 360 CURVE SMOOTH",
"460 179 OFFCURVE",
"414 145 OFFCURVE",
"334 145 CURVE SMOOTH",
"289 145 LINE",
"289 0 LINE"
);
}
);
};
layerId = "927AED37-E9E6-4F96-A08E-421C3785EFC6";
paths = (
{
closed = 1;
nodes = (
"289 710 LINE",
"24 705 LINE",
"24 605 LINE",
"112 570 LINE",
"84 610 LINE",
"84 95 LINE",
"110 134 LINE",
"24 100 LINE",
"24 0 LINE",
"329 0 LINE SMOOTH",
"555 0 OFFCURVE",
"685 130 OFFCURVE",
"685 369 CURVE SMOOTH",
"685 590 OFFCURVE",
"570 710 OFFCURVE",
"354 710 CURVE SMOOTH"
);
},
{
closed = 1;
nodes = (
"259 145 LINE",
"289 115 LINE",
"289 595 LINE",
"259 565 LINE",
"349 565 LINE SMOOTH",
"430 565 OFFCURVE",
"465 517 OFFCURVE",
"465 360 CURVE SMOOTH",
"465 179 OFFCURVE",
"419 145 OFFCURVE",
"339 145 CURVE SMOOTH"
);
}
);
width = 694;
}
);
leftKerningGroup = H;
rightKerningGroup = O;
unicode = 0044;
},
{
color = 1;
glyphname = Eth;
layers = (
{
components = (
{
name = D;
}
);
guideLines = (
{
angle = 90;
position = "{68, 249}";
}
);
layerId = "075BA79B-D813-4287-A9DD-CCAF2D535ED3";
paths = (
{
closed = 1;
nodes = (
"68 345 LINE",
"388 345 LINE",
"388 364 LINE",
"68 364 LINE"
);
}
);
width = 738;
},
{
background = {
paths = (
{
closed = 1;
nodes = (
"67 294 LINE",
"426 294 LINE",
"426 439 LINE",
"67 439 LINE"
);
}
);
};
components = (
{
name = D;
transform = "{1, 0, 0, 1, 15, 0}";
}
);
guideLines = (
{
angle = 90;
position = "{39, 241}";
}
);
layerId = "927AED37-E9E6-4F96-A08E-421C3785EFC6";
paths = (
{
closed = 1;
nodes = (
"39 302 LINE",
"398 302 LINE",
"398 417 LINE",
"39 417 LINE"
);
}
);
width = 709;
}
);
leftKerningGroup = H;
rightKerningGroup = O;
rightMetricsKey = D;
unicode = 00D0;
},
{
color = 1;
glyphname = E;
layers = (
{
anchors = (
{
name = bottom;
position = "{327, 0}";
},
{
name = ogonek;
position = "{557, 0}";
},
{
name = top;
position = "{336, 692}";
},
{
name = topleft;
position = "{38, 691}";
}
);
guideLines = (
{
angle = 90;
position = "{1205, 116}";
}
);
layerId = "075BA79B-D813-4287-A9DD-CCAF2D535ED3";
paths = (
{
closed = 1;
nodes = (
"527 12 LINE",
"535 19 LINE",
"181 19 LINE",
"188 12 LINE",
"188 366 LINE",
"181 359 LINE",
"476 359 LINE",
"476 378 LINE",
"181 378 LINE",
"188 371 LINE",
"188 680 LINE",
"181 673 LINE",
"522 673 LINE",
"514 680 LINE",
"529 556 LINE",
"544 556 LINE",
"544 692 LINE",
"189 692 LINE",
"68 687 LINE",
"68 672 LINE",
"175 662 LINE",
"168 670 LINE",
"168 21 LINE",
"175 29 LINE",
"68 15 LINE",
"68 0 LINE",
"557 0 LINE",
"557 141 LINE",
"542 141 LINE"
);
}
);
width = 648;
},
{
anchors = (
{
name = bottom;
position = "{307, 0}";
},
{
name = ogonek;
position = "{561, 0}";
},
{
name = top;
position = "{301, 710}";
},
{
name = topleft;
position = "{9, 710}";
}
);
background = {
paths = (
{
closed = 1;
nodes = (
"289 145 LINE",
"289 565 LINE",
"84 580 LINE",
"84 125 LINE"
);
},
{
closed = 1;
nodes = (
"556 0 LINE",
"421 145 LINE",
"289 145 LINE",
"84 125 LINE",
"14 100 LINE",
"14 0 LINE"
);
},
{
closed = 1;
nodes = (
"558 221 LINE",
"438 221 LINE",
"421 145 LINE",
"556 0 LINE"
);
},
{
closed = 1;
nodes = (
"463 295 LINE",
"463 430 LINE",
"267 430 LINE",
"267 295 LINE"
);
},
{
closed = 1;
nodes = (
"409 565 LINE",
"546 710 LINE",
"284 710 LINE",
"14 705 LINE",
"14 605 LINE",
"84 580 LINE",
"289 565 LINE"
);
},
{
closed = 1;
nodes = (
"546 498 LINE",
"546 710 LINE",
"409 565 LINE",
"426 498 LINE"
);
}
);
};
layerId = "927AED37-E9E6-4F96-A08E-421C3785EFC6";
paths = (
{
closed = 1;
nodes = (
"419 115 LINE",
"456 145 LINE",
"259 145 LINE",
"289 115 LINE",
"289 325 LINE",
"259 295 LINE",
"468 295 LINE",
"468 430 LINE",
"259 430 LINE",
"289 400 LINE",
"289 595 LINE",
"259 565 LINE",
"444 565 LINE",
"408 591 LINE",
"431 508 LINE",
"551 508 LINE",
"551 710 LINE",
"284 710 LINE",
"24 705 LINE",
"24 605 LINE",
"108 572 LINE",
"84 610 LINE",
"84 95 LINE",
"109 134 LINE",
"24 100 LINE",
"24 0 LINE",
"561 0 LINE",
"563 211 LINE",
"443 211 LINE"
);
}
);
width = 592;
}
);
leftKerningGroup = H;
rightKerningGroup = E;
unicode = 0045;
},
{
glyphname = Ecedillabreve;
layers = (
{
components = (
{
name = E;
},
{
name = cedillacomb.case;
transform = "{1, 0, 0, 1, 183, 0}";
},
{
name = brevecomb.case;
transform = "{1, 0, 0, 1, 124, 0}";
}
);
layerId = "075BA79B-D813-4287-A9DD-CCAF2D535ED3";
width = 648;
},
{
background = {
anchors = (
{
name = _bottom;
position = "{307, 0}";
},
{
name = bottom;
position = "{307, 0}";
},
{
name = ogonek;
position = "{561, 0}";
},
{
name = top;
position = "{301, 710}";
},
{
name = topleft;
position = "{9, 710}";
}
);
paths = (
{
closed = 1;
nodes = (
"419 115 LINE",
"456 145 LINE",
"259 145 LINE",
"289 115 LINE",
"289 325 LINE",
"259 295 LINE",
"468 295 LINE",
"468 430 LINE",
"259 430 LINE",
"289 400 LINE",
"289 595 LINE",
"259 565 LINE",
"444 565 LINE",
"408 591 LINE",
"431 508 LINE",
"551 508 LINE",
"551 710 LINE",
"284 710 LINE",
"24 705 LINE",
"24 605 LINE",
"108 572 LINE",
"84 610 LINE",
"84 95 LINE",
"109 134 LINE",
"24 100 LINE",
"24 0 LINE",
"561 0 LINE",
"563 211 LINE",
"443 211 LINE"
);
},
{
closed = 1;
nodes = (
"392 -275 OFFCURVE",
"476 -232 OFFCURVE",
"476 -146 CURVE SMOOTH",
"476 -89 OFFCURVE",
"430 -49 OFFCURVE",
"353 -39 CURVE",
"353 0 LINE",
"238 0 LINE",
"230 -117 LINE",
"281 -119 OFFCURVE",
"336 -129 OFFCURVE",
"336 -151 CURVE SMOOTH",
"336 -166 OFFCURVE",
"321 -172 OFFCURVE",
"299 -172 CURVE SMOOTH",
"273 -172 OFFCURVE",
"237 -164 OFFCURVE",
"209 -154 CURVE",
"173 -246 LINE",
"212 -266 OFFCURVE",
"257 -275 OFFCURVE",
"300 -275 CURVE SMOOTH"
);
}
);
};
components = (
{
name = E;
},
{
name = cedillacomb.case;
transform = "{1, 0, 0, 1, 164, 0}";
},
{
name = brevecomb.case;
transform = "{1, 0, 0, 1, 93, 0}";
}
);
layerId = "927AED37-E9E6-4F96-A08E-421C3785EFC6";
width = 592;
}
);
leftKerningGroup = H;
rightKerningGroup = E;
unicode = 1E1C;
},
{
glyphname = Eogonek;
layers = (
{
components = (
{
name = E;
},
{
name = ogonekcomb.case;
transform = "{1, 0, 0, 1, 324, 0}";
}
);
layerId = "075BA79B-D813-4287-A9DD-CCAF2D535ED3";
width = 648;
},
{
background = {
paths = (
{
closed = 1;
nodes = (
"512 -250 OFFCURVE",
"566 -220 OFFCURVE",
"566 -220 CURVE",
"542 -127 LINE",
"542 -127 OFFCURVE",
"513 -132 OFFCURVE",
"501 -132 CURVE SMOOTH",
"484 -132 OFFCURVE",
"472 -123 OFFCURVE",
"472 -105 CURVE SMOOTH",
"472 -67 OFFCURVE",
"579 0 OFFCURVE",
"579 0 CURVE",
"579 224 LINE",
"464 224 LINE",
"438 161 LINE",
"311 161 LINE",
"311 295 LINE",
"484 295 LINE",
"484 435 LINE",
"311 435 LINE",
"311 549 LINE",
"425 549 LINE",
"450 494 LINE",
"565 494 LINE",
"565 710 LINE",
"311 710 LINE",
"40 705 LINE",
"40 589 LINE",
"105 549 LINE",
"105 151 LINE",
"40 111 LINE",
"40 0 LINE",
"429 0 LINE",
"429 0 OFFCURVE",
"321 -53 OFFCURVE",
"321 -145 CURVE SMOOTH",
"321 -221 OFFCURVE",
"377 -250 OFFCURVE",
"442 -250 CURVE SMOOTH"
);
}
);
};
components = (
{
name = E;
},
{
name = ogonekcomb.case;
transform = "{1, 0, 0, 1, 291, 0}";
}
);
layerId = "927AED37-E9E6-4F96-A08E-421C3785EFC6";
width = 592;
}
);
leftKerningGroup = H;
rightKerningGroup = E;
unicode = 0118;
},
{
color = 1;
glyphname = F;
layers = (
{
layerId = "075BA79B-D813-4287-A9DD-CCAF2D535ED3";
paths = (
{
closed = 1;
nodes = (
"312 0 LINE",
"312 15 LINE",
"181 29 LINE",
"188 21 LINE",
"188 363 LINE",
"181 356 LINE",
"461 356 LINE",
"461 375 LINE",
"181 375 LINE",
"188 368 LINE",
"188 680 LINE",
"181 673 LINE",
"511 673 LINE",
"503 680 LINE",
"518 556 LINE",
"533 556 LINE",
"533 692 LINE",
"189 692 LINE",
"68 687 LINE",
"68 672 LINE",
"175 662 LINE",
"168 670 LINE",
"168 21 LINE",
"175 29 LINE",
"68 15 LINE",
"68 0 LINE"
);
}
);
width = 568;
},
{
background = {
paths = (
{
closed = 1;
nodes = (
"374 0 LINE",
"374 100 LINE",
"289 125 LINE",
"84 125 LINE",
"14 100 LINE",
"14 0 LINE"
);
},
{
closed = 1;
nodes = (
"289 125 LINE",
"289 565 LINE",
"84 580 LINE",
"84 125 LINE"
);
},
{
closed = 1;
nodes = (
"14 705 LINE",
"14 605 LINE",
"84 580 LINE",
"289 565 LINE",
"407 565 LINE",
"424 498 LINE",
"544 498 LINE",
"543 710 LINE",
"284 710 LINE"
);
},
{
closed = 1;
nodes = (
"464 290 LINE",
"464 425 LINE",
"270 425 LINE",
"270 290 LINE"
);
}
);
};
layerId = "927AED37-E9E6-4F96-A08E-421C3785EFC6";
paths = (
{
closed = 1;
nodes = (
"364 0 LINE",
"364 100 LINE",
"266 132 LINE",
"289 105 LINE",
"289 320 LINE",
"259 290 LINE",
"469 290 LINE",
"469 425 LINE",
"259 425 LINE",
"289 398 LINE",
"289 595 LINE",
"259 565 LINE",
"442 565 LINE",
"407 584 LINE",
"429 505 LINE",
"549 505 LINE",
"548 710 LINE",
"284 710 LINE",
"24 705 LINE",
"24 605 LINE",
"111 571 LINE",
"84 610 LINE",
"84 105 LINE",
"103 132 LINE",
"24 100 LINE",
"24 0 LINE"
);
}
);
width = 551;
}
);
leftKerningGroup = H;
rightKerningGroup = F;
unicode = 0046;
},
{
color = 1;
glyphname = G;
layers = (
{
anchors = (
{
name = bottom;
position = "{399, 0}";
},
{
name = top;
position = "{397, 691}";
}
);
guideLines = (
{
angle = 90;
position = "{613, 433}";
}
);
layerId = "075BA79B-D813-4287-A9DD-CCAF2D535ED3";
paths = (
{
closed = 1;
nodes = (
"458 -5 OFFCURVE",
"538 11 OFFCURVE",
"625 45 CURVE",
"625 294 LINE",
"618 286 LINE",
"720 300 LINE",
"720 315 LINE",
"505 310 LINE",
"505 295 LINE",
"612 287 LINE",
"605 294 LINE",
"605 51 LINE",
"610 60 LINE",
"529 30 OFFCURVE",
"455 15 OFFCURVE",
"392 15 CURVE SMOOTH",
"217 15 OFFCURVE",
"108 127 OFFCURVE",
"108 335 CURVE SMOOTH",
"108 554 OFFCURVE",
"228 678 OFFCURVE",
"397 678 CURVE SMOOTH",
"459 678 OFFCURVE",
"536 661 OFFCURVE",
"600 637 CURVE",
"596 646 LINE",
"606 516 LINE",
"621 516 LINE",
"626 650 LINE",
"549 683 OFFCURVE",
"471 698 OFFCURVE",
"406 698 CURVE SMOOTH",
"220 698 OFFCURVE",
"86 575 OFFCURVE",
"86 335 CURVE SMOOTH",
"86 112 OFFCURVE",
"202 -5 OFFCURVE",
"389 -5 CURVE SMOOTH"
);
}
);
width = 765;
},
{
anchors = (
{
name = bottom;
position = "{357, 0}";
},
{
name = top;
position = "{351, 710}";
}
);
background = {
paths = (
{
closed = 1;
nodes = (
"430 -15 OFFCURVE",
"525 8 OFFCURVE",
"623 55 CURVE",
"541 204 LINE",
"467 166 OFFCURVE",
"408 147 OFFCURVE",
"363 147 CURVE SMOOTH",
"276 147 OFFCURVE",
"235 217 OFFCURVE",
"235 360 CURVE SMOOTH",
"235 486 OFFCURVE",
"267 554 OFFCURVE",
"359 554 CURVE SMOOTH",
"378 554 OFFCURVE",
"398 551 OFFCURVE",
"421 546 CURVE",
"453 460 LINE",
"592 460 LINE",
"606 667 LINE",
"528 698 OFFCURVE",
"439 720 OFFCURVE",
"356 720 CURVE SMOOTH",
"129 720 OFFCURVE",
"15 553 OFFCURVE",
"15 341 CURVE SMOOTH",
"15 108 OFFCURVE",
"153 -15 OFFCURVE",
"346 -15 CURVE SMOOTH"
);
},
{
closed = 1;
nodes = (
"623 55 LINE",
"623 256 LINE",
"684 277 LINE",
"684 382 LINE",
"368 377 LINE",
"368 273 LINE",
"428 256 LINE",
"427 52 LINE"
);
}
);
};
layerId = "927AED37-E9E6-4F96-A08E-421C3785EFC6";
paths = (
{
closed = 1;
nodes = (
"432 -15 OFFCURVE",
"525 8 OFFCURVE",
"623 55 CURVE",
"623 277 LINE",
"605 244 LINE",
"683 272 LINE",
"683 377 LINE",
"373 372 LINE",
"373 268 LINE",
"464 244 LINE",
"433 277 LINE",
"433 117 LINE",
"456 159 LINE",
"424 148 OFFCURVE",
"396 143 OFFCURVE",
"372 143 CURVE SMOOTH",
"277 143 OFFCURVE",
"237 226 OFFCURVE",
"237 364 CURVE SMOOTH",
"237 502 OFFCURVE",
"277 568 OFFCURVE",
"376 568 CURVE SMOOTH",
"400 568 OFFCURVE",
"437 564 OFFCURVE",
"477 550 CURVE",
"446 577 LINE",
"477 470 LINE",
"597 470 LINE",
"609 669 LINE",
"520 706 OFFCURVE",
"435 725 OFFCURVE",
"358 725 CURVE SMOOTH",
"158 725 OFFCURVE",
"17 598 OFFCURVE",
"17 353 CURVE SMOOTH",
"17 112 OFFCURVE",
"153 -15 OFFCURVE",
"349 -15 CURVE SMOOTH"
);
}
);
width = 687;
}
);
leftKerningGroup = O;
leftMetricsKey = O;
rightKerningGroup = G;
unicode = 0047;
},
{
color = 1;
glyphname = H;
layers = (
{
anchors = (
{
name = bottom;
position = "{410, 0}";
},
{
name = center;
position = "{410, 346}";
},
{
name = top;
position = "{410, 692}";
},
{
name = topleft;
position = "{35, 692}";
}
);
layerId = "075BA79B-D813-4287-A9DD-CCAF2D535ED3";
paths = (
{
closed = 1;
nodes = (
"288 0 LINE",
"288 15 LINE",
"181 29 LINE",
"188 21 LINE",
"188 349 LINE",
"181 342 LINE",
"638 342 LINE",
"631 349 LINE",
"631 21 LINE",
"638 29 LINE",
"531 15 LINE",
"531 0 LINE",
"751 0 LINE",
"751 15 LINE",
"644 29 LINE",
"651 21 LINE",
"651 671 LINE",
"644 663 LINE",
"751 677 LINE",
"751 692 LINE",
"531 687 LINE",
"531 672 LINE",
"638 664 LINE",
"631 671 LINE",
"631 354 LINE",
"638 361 LINE",
"181 361 LINE",
"188 354 LINE",
"188 671 LINE",
"181 663 LINE",
"288 677 LINE",
"288 692 LINE",
"68 687 LINE",
"68 672 LINE",
"175 663 LINE",
"168 671 LINE",
"168 21 LINE",
"175 29 LINE",
"68 15 LINE",
"68 0 LINE"
);
}
);
width = 818;
},
{
anchors = (
{
name = bottom;
position = "{387, 0}";
},
{
name = center;
position = "{387, 355}";
},
{
name = top;
position = "{387, 710}";
},
{
name = topleft;
position = "{-18, 710}";
}
);
background = {
paths = (
{
closed = 1;
nodes = (
"289 125 LINE",
"289 293 LINE",
"485 293 LINE",
"485 125 LINE",
"690 125 LINE",
"690 581 LINE",
"485 580 LINE",
"485 438 LINE",
"289 438 LINE",
"289 581 LINE",
"84 580 LINE",
"84 125 LINE"
);
},
{
closed = 1;
nodes = (
"354 0 LINE",
"354 100 LINE",
"289 125 LINE",
"84 125 LINE",
"14 100 LINE",
"14 0 LINE"
);
},
{
closed = 1;
nodes = (
"760 0 LINE",
"760 100 LINE",
"690 125 LINE",
"485 125 LINE",
"420 100 LINE",
"420 0 LINE"
);
},
{
closed = 1;
nodes = (
"289 581 LINE",
"354 610 LINE",
"354 710 LINE",
"14 705 LINE",
"14 605 LINE",
"84 580 LINE"
);
},
{
closed = 1;
nodes = (
"690 581 LINE",
"760 610 LINE",
"760 710 LINE",
"420 705 LINE",
"420 605 LINE",
"485 580 LINE"
);
}
);
};
layerId = "927AED37-E9E6-4F96-A08E-421C3785EFC6";
paths = (
{
closed = 1;
nodes = (
"349 0 LINE",
"349 100 LINE",
"265 134 LINE",
"289 95 LINE",
"289 323 LINE",
"259 293 LINE",
"520 293 LINE",
"490 323 LINE",
"490 95 LINE",
"514 134 LINE",
"430 100 LINE",
"430 0 LINE",
"755 0 LINE",
"755 100 LINE",
"669 134 LINE",
"695 95 LINE",
"695 611 LINE",
"669 570 LINE",
"755 610 LINE",
"755 710 LINE",
"430 705 LINE",
"430 605 LINE",
"520 569 LINE",
"490 610 LINE",
"490 408 LINE",
"520 438 LINE",
"259 438 LINE",
"289 408 LINE",
"289 611 LINE",
"260 569 LINE",
"349 610 LINE",
"349 710 LINE",
"24 705 LINE",
"24 605 LINE",
"116 569 LINE",
"84 610 LINE",
"84 95 LINE",
"109 134 LINE",
"24 100 LINE",
"24 0 LINE"
);
}
);
width = 779;
}
);
leftKerningGroup = H;
rightKerningGroup = H;
unicode = 0048;
},
{
color = 1;
glyphname = Hbar;
layers = (
{
anchors = (
{
name = bottom;
position = "{385, 0}";
},
{
name = center;
position = "{385, 345}";
},
{
name = top;
position = "{336, 700}";
},
{
name = topleft;
position = "{9, 700}";
}
);
guideLines = (
{
angle = 90;
position = "{68, 614}";
},
{
angle = 90;
position = "{751, 614}";
}
);
layerId = "075BA79B-D813-4287-A9DD-CCAF2D535ED3";
paths = (
{
closed = 1;
nodes = (
"751 510 LINE",
"751 529 LINE",
"68 529 LINE",
"68 510 LINE"
);
},
{
closed = 1;
nodes = (
"288 0 LINE",
"288 15 LINE",
"181 29 LINE",
"188 21 LINE",
"188 349 LINE",
"181 342 LINE",
"638 342 LINE",
"631 349 LINE",
"631 21 LINE",
"638 29 LINE",
"531 15 LINE",
"531 0 LINE",
"751 0 LINE",
"751 15 LINE",
"644 29 LINE",
"651 21 LINE",
"651 671 LINE",
"644 663 LINE",
"751 677 LINE",
"751 692 LINE",
"531 687 LINE",
"531 672 LINE",
"638 664 LINE",
"631 671 LINE",
"631 354 LINE",
"638 361 LINE",
"181 361 LINE",
"188 354 LINE",
"188 671 LINE",
"181 663 LINE",
"288 677 LINE",
"288 692 LINE",
"68 687 LINE",
"68 672 LINE",
"175 663 LINE",
"168 671 LINE",
"168 21 LINE",
"175 29 LINE",
"68 15 LINE",
"68 0 LINE"
);
}
);
width = 818;
},
{
anchors = (
{
name = bottom;
position = "{387, 0}";
},
{
name = center;
position = "{387, 356}";
},
{
name = top;
position = "{412, 710}";
},
{
name = topleft;
position = "{7, 710}";
}
);
background = {
paths = (
{
closed = 1;
nodes = (
"770 475 LINE",
"770 555 LINE",
"24 555 LINE",
"24 475 LINE"
);
},
{
closed = 1;
nodes = (
"364 0 LINE",
"364 100 LINE",
"275 134 LINE",
"299 95 LINE",
"299 310 LINE",
"269 280 LINE",
"525 280 LINE",
"495 310 LINE",
"495 95 LINE",
"519 134 LINE",
"430 100 LINE",
"430 0 LINE",
"770 0 LINE",
"770 100 LINE",
"674 134 LINE",
"700 95 LINE",
"700 611 LINE",
"674 570 LINE",
"770 610 LINE",
"770 710 LINE",
"430 705 LINE",
"430 605 LINE",
"525 569 LINE",
"495 610 LINE",
"495 390 LINE",
"525 420 LINE",
"269 420 LINE",
"299 390 LINE",
"299 611 LINE",
"270 569 LINE",
"364 610 LINE",
"364 710 LINE",
"24 705 LINE",
"24 605 LINE",
"126 569 LINE",
"94 610 LINE",
"94 95 LINE",
"119 134 LINE",
"24 100 LINE",
"24 0 LINE"
);
}
);
};
guideLines = (
{
angle = 90;
position = "{24, 540}";
},
{
angle = 90;
position = "{755, 540}";
}
);
layerId = "927AED37-E9E6-4F96-A08E-421C3785EFC6";
paths = (
{
closed = 1;
nodes = (
"755 467 LINE",
"755 557 LINE",
"24 557 LINE",
"24 467 LINE"
);
},
{
closed = 1;
nodes = (
"349 0 LINE",
"349 100 LINE",
"265 134 LINE",
"289 95 LINE",
"289 310 LINE",
"259 280 LINE",
"520 280 LINE",
"490 310 LINE",
"490 95 LINE",
"514 134 LINE",
"430 100 LINE",
"430 0 LINE",
"755 0 LINE",
"755 100 LINE",
"669 134 LINE",
"695 95 LINE",
"695 611 LINE",
"669 570 LINE",
"755 610 LINE",
"755 710 LINE",
"430 705 LINE",
"430 605 LINE",
"520 569 LINE",
"490 610 LINE",
"490 390 LINE",
"520 420 LINE",
"259 420 LINE",
"289 390 LINE",
"289 611 LINE",
"260 569 LINE",
"349 610 LINE",
"349 710 LINE",
"24 705 LINE",
"24 605 LINE",
"116 569 LINE",
"84 610 LINE",
"84 95 LINE",
"109 134 LINE",
"24 100 LINE",
"24 0 LINE"
);
}
);
width = 779;
}
);
leftKerningGroup = H;
leftMetricsKey = H;
rightKerningGroup = H;
rightMetricsKey = H;
unicode = 0126;
},
{
color = 1;
glyphname = I;
layers = (
{
anchors = (
{
name = bottom;
position = "{177, 0}";
},
{
name = ogonek;
position = "{194, 0}";
},
{
name = top;
position = "{177, 691}";
},
{
name = topleft;
position = "{37, 691}";
}
);
layerId = "075BA79B-D813-4287-A9DD-CCAF2D535ED3";
paths = (
{
closed = 1;
nodes = (
"287 692 LINE",
"67 687 LINE",
"67 672 LINE",
"174 663 LINE",
"167 671 LINE",
"167 21 LINE",
"174 29 LINE",
"67 15 LINE",
"67 0 LINE",
"287 0 LINE",
"287 15 LINE",
"180 29 LINE",
"187 21 LINE",
"187 671 LINE",
"180 663 LINE",
"287 677 LINE"
);
}
);
width = 354;
},
{
anchors = (
{
name = bottom;
position = "{188, 0}";
},
{
name = ogonek;
position = "{263, 0}";
},
{
name = top;
position = "{186, 710}";
},
{
name = topleft;
position = "{9, 710}";
}
);
background = {
paths = (
{
closed = 1;
nodes = (
"289 580 LINE",
"84 580 LINE",
"84 125 LINE",
"289 125 LINE"
);
},
{
closed = 1;
nodes = (
"354 0 LINE",
"354 100 LINE",
"289 125 LINE",
"84 125 LINE",
"19 100 LINE",
"19 0 LINE"
);
},
{
closed = 1;
nodes = (
"289 580 LINE",
"354 610 LINE",
"354 710 LINE",
"19 705 LINE",
"19 605 LINE",
"84 580 LINE"
);
}
);
};
layerId = "927AED37-E9E6-4F96-A08E-421C3785EFC6";
paths = (
{
closed = 1;
nodes = (
"349 710 LINE",
"24 705 LINE",
"24 605 LINE",
"108 571 LINE",
"84 600 LINE",
"84 105 LINE",
"101 131 LINE",
"24 100 LINE",
"24 0 LINE",
"349 0 LINE",
"349 100 LINE",
"270 132 LINE",
"289 105 LINE",
"289 600 LINE",
"270 572 LINE",
"349 610 LINE"
);
}
);
width = 373;
}
);
leftKerningGroup = I;
rightKerningGroup = I;
unicode = 0049;
},
{
glyphname = IJ;
layers = (
{
components = (
{
alignment = -1;
name = I;
},
{
alignment = -1;
name = J;
transform = "{1, 0, 0, 1, 348, 0}";
}
);
layerId = "075BA79B-D813-4287-A9DD-CCAF2D535ED3";
width = 682;
},
{
background = {
paths = (
{
closed = 1;
nodes = (
"371 0 LINE",
"371 111 LINE",
"306 151 LINE",
"306 549 LINE",
"371 589 LINE",
"371 710 LINE",
"35 705 LINE",
"35 589 LINE",
"100 549 LINE",
"100 151 LINE",
"35 111 LINE",
"35 0 LINE"
);
},
{
closed = 1;
nodes = (
"707 -170 OFFCURVE",
"741 -61 OFFCURVE",
"741 168 CURVE SMOOTH",
"741 549 LINE",
"805 589 LINE",
"805 710 LINE",
"465 705 LINE",
"465 589 LINE",
"535 549 LINE",
"535 67 LINE SMOOTH",
"535 1 OFFCURVE",
"504 -30 OFFCURVE",
"449 -30 CURVE SMOOTH",
"403 -30 LINE",
"386 -161 LINE",
"386 -161 OFFCURVE",
"435 -170 OFFCURVE",
"474 -170 CURVE SMOOTH"
);
}
);
};
components = (
{
name = I;
},
{
alignment = -1;
name = J;
transform = "{1, 0, 0, 1, 394, 0}";
}
);
layerId = "927AED37-E9E6-4F96-A08E-421C3785EFC6";
width = 744;
}
);
leftKerningGroup = I;
leftMetricsKey = I;
rightKerningGroup = J;
rightMetricsKey = J;
unicode = 0132;
},
{
color = 1;
glyphname = J;
layers = (
{
anchors = (
{
name = bottom;
position = "{163, 0}";
},
{
name = top;
position = "{161, 691}";
}
);
layerId = "075BA79B-D813-4287-A9DD-CCAF2D535ED3";
paths = (
{
closed = 1;
nodes = (
"48 672 LINE",
"165 664 LINE",
"158 671 LINE",
"158 3 LINE SMOOTH",
"158 -73 OFFCURVE",
"123 -105 OFFCURVE",
"46 -105 CURVE SMOOTH",
"32 -105 OFFCURVE",
"22 -104 OFFCURVE",
"10 -103 CURVE",
"8 -122 LINE",
"21 -123 OFFCURVE",
"33 -124 OFFCURVE",
"47 -124 CURVE SMOOTH",
"129 -124 OFFCURVE",
"178 -90 OFFCURVE",
"178 3 CURVE SMOOTH",
"178 671 LINE",
"171 663 LINE",
"278 677 LINE",
"278 692 LINE",
"48 687 LINE"
);
}
);
width = 334;
},
{
anchors = (
{
name = bottom;
position = "{168, 0}";
},
{
name = top;
position = "{170, 710}";
}
);
background = {
paths = (
{
closed = 1;
nodes = (
"9 605 LINE",
"96 573 LINE",
"74 610 LINE",
"74 57 LINE SMOOTH",
"74 -19 OFFCURVE",
"42 -40 OFFCURVE",
"-13 -40 CURVE SMOOTH",
"-60 -40 LINE",
"-76 -176 LINE",
"-64 -178 OFFCURVE",
"-34 -185 OFFCURVE",
"24 -185 CURVE SMOOTH",
"245 -185 OFFCURVE",
"279 -61 OFFCURVE",
"279 158 CURVE SMOOTH",
"279 610 LINE",
"259 570 LINE",
"339 612 LINE",
"339 710 LINE",
"9 705 LINE"
);
}
);
};
layerId = "927AED37-E9E6-4F96-A08E-421C3785EFC6";
paths = (
{
closed = 1;
nodes = (
"9 605 LINE",
"96 573 LINE",
"74 610 LINE",
"74 57 LINE SMOOTH",
"74 -10 OFFCURVE",
"48 -40 OFFCURVE",
"-9 -40 CURVE SMOOTH",
"-24 -40 OFFCURVE",
"-41 -38 OFFCURVE",
"-60 -34 CURVE",
"-77 -177 LINE",
"-39 -183 OFFCURVE",
"-4 -186 OFFCURVE",
"27 -186 CURVE SMOOTH",
"213 -186 OFFCURVE",
"279 -81 OFFCURVE",
"279 158 CURVE SMOOTH",
"279 610 LINE",
"259 570 LINE",
"339 612 LINE",
"339 710 LINE",
"9 705 LINE"
);
}
);
width = 350;
}
);
leftKerningGroup = J;
rightKerningGroup = J;
unicode = 004A;
},
{
color = 1;
glyphname = K;
layers = (
{
anchors = (
{
name = bottom;
position = "{355, 0}";
},
{
name = top;
position = "{355, 692}";
}
);
layerId = "075BA79B-D813-4287-A9DD-CCAF2D535ED3";
paths = (
{
closed = 1;
nodes = (
"344 364 LINE",
"344 353 LINE",
"545 671 LINE",
"534 664 LINE",
"637 678 LINE",
"637 693 LINE",
"421 688 LINE",
"421 673 LINE",
"528 665 LINE",
"524 671 LINE",
"326 358 LINE",
"337 364 LINE",
"181 364 LINE",
"188 357 LINE",
"188 672 LINE",
"181 664 LINE",
"288 678 LINE",
"288 693 LINE",
"68 688 LINE",
"68 673 LINE",
"175 664 LINE",
"168 672 LINE",
"168 21 LINE",
"175 29 LINE",
"68 15 LINE",
"68 0 LINE",
"288 0 LINE",
"288 15 LINE",
"181 29 LINE",
"188 21 LINE",
"188 352 LINE",
"181 345 LINE",
"343 345 LINE",
"330 350 LINE",
"569 23 LINE",
"573 29 LINE",
"470 15 LINE",
"470 0 LINE",
"685 0 LINE",
"685 15 LINE",
"582 29 LINE",
"593 23 LINE"
);
}
);
width = 690;
},
{
anchors = (
{
name = bottom;
position = "{361, 0}";
},
{
name = top;
position = "{361, 710}";
}
);
background = {
paths = (
{
closed = 1;
nodes = (
"674 125 LINE",
"499 387 LINE",
"501 356 LINE",
"643 586 LINE",
"448 587 LINE",
"361 434 LINE",
"285 434 LINE",
"285 299 LINE",
"344 299 LINE",
"449 125 LINE"
);
},
{
closed = 1;
nodes = (
"339 0 LINE",
"339 100 LINE",
"289 125 LINE",
"84 125 LINE",
"14 100 LINE",
"14 0 LINE"
);
},
{
closed = 1;
nodes = (
"289 125 LINE",
"289 586 LINE",
"84 581 LINE",
"84 125 LINE"
);
},
{
closed = 1;
nodes = (
"738 0 LINE",
"738 100 LINE",
"674 125 LINE",
"449 125 LINE",
"398 100 LINE",
"398 0 LINE"
);
},
{
closed = 1;
nodes = (
"289 586 LINE",
"339 612 LINE",
"339 710 LINE",
"14 705 LINE",
"14 605 LINE",
"84 581 LINE"
);
},
{
closed = 1;
nodes = (
"643 586 LINE",
"702 612 LINE",
"702 710 LINE",
"382 705 LINE",
"382 605 LINE",
"448 587 LINE"
);
}
);
};
layerId = "927AED37-E9E6-4F96-A08E-421C3785EFC6";
paths = (
{
closed = 1;
nodes = (
"489 395 LINE",
"489 346 LINE",
"651 607 LINE",
"610 574 LINE",
"692 610 LINE",
"692 710 LINE",
"395 705 LINE",
"395 605 LINE",
"468 580 LINE",
"453 609 LINE",
"336 404 LINE",
"386 439 LINE",
"259 439 LINE",
"289 404 LINE",
"289 616 LINE",
"266 574 LINE",
"344 612 LINE",
"344 710 LINE",
"24 705 LINE",
"24 605 LINE",
"103 575 LINE",
"84 611 LINE",
"84 95 LINE",
"104 132 LINE",
"24 100 LINE",
"24 0 LINE",
"344 0 LINE",
"344 100 LINE",
"265 137 LINE",
"289 95 LINE",
"289 329 LINE",
"259 294 LINE",
"369 294 LINE",
"318 329 LINE",
"457 99 LINE",
"460 133 LINE",
"398 100 LINE",
"398 0 LINE",
"716 0 LINE",
"716 100 LINE",
"639 133 LINE",
"692 91 LINE"
);
}
);
width = 716;
}
);
leftKerningGroup = H;
leftMetricsKey = H;
rightKerningGroup = K;
unicode = 004B;
},
{
color = 1;
glyphname = L;
layers = (
{
anchors = (
{
name = bottom;
position = "{325, 0}";
},
{
name = center;
position = "{397, 357}";
},
{
name = top;
position = "{211, 692}";
},
{
name = topright;
position = "{541, 692}";
}
);
layerId = "075BA79B-D813-4287-A9DD-CCAF2D535ED3";
paths = (
{
closed = 1;
nodes = (
"491 12 LINE",
"499 19 LINE",
"181 19 LINE",
"188 12 LINE",
"188 670 LINE",
"181 662 LINE",
"303 677 LINE",
"303 692 LINE",
"68 687 LINE",
"68 672 LINE",
"175 662 LINE",
"168 670 LINE",
"168 21 LINE",
"175 29 LINE",
"68 15 LINE",
"68 0 LINE",
"521 0 LINE",
"521 145 LINE",
"506 145 LINE"
);
}
);
width = 557;
},
{
anchors = (
{
name = bottom;
position = "{299, 0}";
},
{
name = center;
position = "{430, 384}";
},
{
name = top;
position = "{236, 710}";
},
{
name = topright;
position = "{532, 710}";
}
);
background = {
paths = (
{
closed = 1;
nodes = (
"289 580 LINE",
"84 580 LINE",
"84 125 LINE",
"289 145 LINE"
);
},
{
closed = 1;
nodes = (
"529 0 LINE",
"373 145 LINE",
"289 145 LINE",
"84 125 LINE",
"14 100 LINE",
"14 0 LINE"
);
},
{
closed = 1;
nodes = (
"529 264 LINE",
"398 264 LINE",
"373 145 LINE",
"529 0 LINE"
);
},
{
closed = 1;
nodes = (
"289 580 LINE",
"359 610 LINE",
"359 710 LINE",
"14 705 LINE",
"14 605 LINE",
"84 580 LINE"
);
}
);
};
layerId = "927AED37-E9E6-4F96-A08E-421C3785EFC6";
paths = (
{
closed = 1;
nodes = (
"402 114 LINE",
"428 145 LINE",
"259 145 LINE",
"289 115 LINE",
"289 610 LINE",
"270 573 LINE",
"349 610 LINE",
"349 710 LINE",
"24 705 LINE",
"24 605 LINE",
"105 573 LINE",
"84 610 LINE",
"84 95 LINE",
"105 132 LINE",
"24 100 LINE",
"24 0 LINE",
"549 0 LINE",
"549 235 LINE",
"429 235 LINE"
);
}
);
width = 552;
}
);
leftKerningGroup = H;
leftMetricsKey = D;
rightKerningGroup = L;
unicode = 004C;
},
{
color = 1;
glyphname = Lcaron;
layers = (
{
components = (
{
name = L;
}
);
layerId = "075BA79B-D813-4287-A9DD-CCAF2D535ED3";
paths = (
{
closed = 1;
nodes = (
"341 532 LINE",
"385 590 OFFCURVE",
"406 645 OFFCURVE",
"406 695 CURVE",
"375 690 LINE",
"375 640 OFFCURVE",
"363 597 OFFCURVE",
"326 536 CURVE"
);
}
);
width = 557;
},
{
background = {
paths = (
{
closed = 1;
nodes = (
"465 483 LINE",
"529 561 OFFCURVE",
"561 641 OFFCURVE",
"562 714 CURVE",
"422 704 LINE",
"425 647 OFFCURVE",
"426 598 OFFCURVE",
"383 518 CURVE"
);
},
{
closed = 1;
nodes = (
"402 114 LINE",
"428 145 LINE",
"259 145 LINE",
"289 115 LINE",
"289 610 LINE",
"270 573 LINE",
"349 610 LINE",
"349 710 LINE",
"24 705 LINE",
"24 605 LINE",
"105 573 LINE",
"84 610 LINE",
"84 95 LINE",
"105 132 LINE",
"24 100 LINE",
"24 0 LINE",
"549 0 LINE",
"549 235 LINE",
"429 235 LINE"
);
}
);
};
components = (
{
name = L;
}
);
guideLines = (
{
angle = 90;
position = "{562, 569}";
}
);
layerId = "927AED37-E9E6-4F96-A08E-421C3785EFC6";
paths = (
{
closed = 1;
nodes = (
"465 483 LINE",
"529 561 OFFCURVE",
"561 641 OFFCURVE",
"562 714 CURVE",
"422 704 LINE",
"425 647 OFFCURVE",
"426 598 OFFCURVE",
"383 518 CURVE"
);
}
);
width = 580;
}
);
leftKerningGroup = H;
leftMetricsKey = L;
rightKerningGroup = L;
unicode = 013D;
},
{
color = 1;
glyphname = Lslash;
layers = (
{
components = (
{
name = L;
transform = "{1, 0, 0, 1, 31, 0}";
}
);
guideLines = (
{
angle = 90;
position = "{99, 484}";
},
{
angle = 90;
position = "{89, 484}";
}
);
layerId = "075BA79B-D813-4287-A9DD-CCAF2D535ED3";
paths = (
{
closed = 1;
nodes = (
"98 245 LINE",
"415 448 LINE",
"406 465 LINE",
"89 262 LINE"
);
}
);
width = 588;
},
{
background = {
paths = (
{
closed = 1;
nodes = (
"78 195 LINE",
"486 389 LINE",
"486 550 LINE",
"78 356 LINE"
);
},
{
closed = 1;
nodes = (
"51 212 LINE",
"459 406 LINE",
"418 515 LINE",
"10 321 LINE"
);
}
);
};
components = (
{
name = L;
transform = "{1, 0, 0, 1, 7, 0}";
}
);
guideLines = (
{
angle = 90;
position = "{31, 445}";
},
{
angle = -0.7948;
position = "{53, 542}";
},
{
angle = 90;
position = "{21, 484}";
}
);
layerId = "927AED37-E9E6-4F96-A08E-421C3785EFC6";
paths = (
{
closed = 1;
nodes = (
"31 220 LINE",
"439 414 LINE",
"396 515 LINE",
"-12 321 LINE"
);
}
);
width = 559;
}
);
leftKerningGroup = H;
rightKerningGroup = L;
rightMetricsKey = L;
unicode = 0141;
},
{
color = 1;
glyphname = M;
layers = (
{
anchors = (
{
name = bottom;
position = "{462, 0}";
},
{
name = top;
position = "{462, 692}";
}
);
layerId = "075BA79B-D813-4287-A9DD-CCAF2D535ED3";
paths = (
{
closed = 1;
nodes = (
"856 692 LINE",
"731 687 LINE",
"456 197 LINE",
"462 197 LINE",
"193 692 LINE",
"68 687 LINE",
"68 672 LINE",
"175 663 LINE",
"168 671 LINE",
"168 21 LINE",
"175 29 LINE",
"68 15 LINE",
"68 0 LINE",
"288 0 LINE",
"288 15 LINE",
"180 29 LINE",
"188 21 LINE",
"188 665 LINE",
"184 664 LINE",
"448 178 LINE",
"468 182 LINE",
"739 661 LINE",
"736 662 LINE",
"736 21 LINE",
"743 29 LINE",
"636 15 LINE",
"636 0 LINE",
"856 0 LINE",
"856 15 LINE",
"749 29 LINE",
"756 21 LINE",
"756 671 LINE",
"749 663 LINE",
"856 677 LINE"
);
}
);
width = 923;
},
{
anchors = (
{
name = bottom;
position = "{428, 0}";
},
{
name = top;
position = "{428, 710}";
}
);
layerId = "927AED37-E9E6-4F96-A08E-421C3785EFC6";
paths = (
{
closed = 1;
nodes = (
"831 710 LINE",
"547 705 LINE",
"425 383 LINE",
"448 383 LINE",
"335 710 LINE",
"24 705 LINE",
"24 605 LINE",
"110 571 LINE",
"84 620 LINE",
"84 95 LINE",
"110 134 LINE",
"24 100 LINE",
"24 0 LINE",
"308 0 LINE",
"308 100 LINE",
"227 131 LINE",
"247 95 LINE",
"247 496 LINE",
"218 496 LINE",
"350 178 LINE",
"475 183 LINE",
"614 495 LINE",
"583 496 LINE",
"583 95 LINE",
"615 135 LINE",
"523 100 LINE",
"523 0 LINE",
"831 0 LINE",
"831 100 LINE",
"745 134 LINE",
"771 95 LINE",
"771 620 LINE",
"745 569 LINE",
"831 610 LINE"
);
}
);
width = 855;
}
);
leftKerningGroup = M;
rightKerningGroup = M;
unicode = 004D;
},
{
color = 1;
glyphname = N;
layers = (
{
anchors = (
{
name = bottom;
position = "{420, 0}";
},
{
name = top;
position = "{427, 691}";
}
);
layerId = "075BA79B-D813-4287-A9DD-CCAF2D535ED3";
paths = (
{
closed = 1;
nodes = (
"551 672 LINE",
"658 665 LINE",
"651 672 LINE",
"651 30 LINE",
"655 31 LINE",
"193 692 LINE",
"68 687 LINE",
"68 672 LINE",
"175 663 LINE",
"168 671 LINE",
"168 21 LINE",
"175 29 LINE",
"68 15 LINE",
"68 0 LINE",
"288 0 LINE",
"288 15 LINE",
"181 29 LINE",
"188 21 LINE",
"188 670 LINE",
"184 669 LINE",
"651 0 LINE",
"671 0 LINE",
"671 671 LINE",
"664 663 LINE",
"771 677 LINE",
"771 692 LINE",
"551 687 LINE"
);
}
);
width = 826;
},
{
anchors = (
{
name = bottom;
position = "{382, 0}";
},
{
name = top;
position = "{387, 710}";
}
);
background = {
paths = (
{
closed = 1;
nodes = (
"667 0 LINE",
"317 710 LINE",
"175 569 LINE",
"448 0 LINE"
);
},
{
closed = 1;
nodes = (
"319 0 LINE",
"319 100 LINE",
"249 125 LINE",
"84 125 LINE",
"14 100 LINE",
"14 0 LINE"
);
},
{
closed = 1;
nodes = (
"249 125 LINE",
"249 581 LINE",
"84 580 LINE",
"84 125 LINE"
);
},
{
closed = 1;
nodes = (
"249 581 LINE",
"317 710 LINE",
"14 705 LINE",
"14 605 LINE",
"84 580 LINE"
);
},
{
closed = 1;
nodes = (
"680 0 LINE",
"680 581 LINE",
"515 580 LINE",
"515 0 LINE"
);
},
{
closed = 1;
nodes = (
"680 581 LINE",
"750 610 LINE",
"750 710 LINE",
"445 705 LINE",
"445 605 LINE",
"515 580 LINE"
);
}
);
};
layerId = "927AED37-E9E6-4F96-A08E-421C3785EFC6";
paths = (
{
closed = 1;
nodes = (
"452 605 LINE",
"541 570 LINE",
"512 610 LINE",
"512 228 LINE",
"541 228 LINE",
"327 710 LINE",
"24 705 LINE",
"24 605 LINE",
"102 574 LINE",
"84 610 LINE",
"84 95 LINE",
"113 135 LINE",
"24 100 LINE",
"24 0 LINE",
"312 0 LINE",
"312 100 LINE",
"223 135 LINE",
"252 95 LINE",
"252 495 LINE",
"224 495 LINE",
"443 0 LINE",
"680 0 LINE",
"680 611 LINE",
"653 570 LINE",
"740 610 LINE",
"740 710 LINE",
"452 705 LINE"
);
}
);
width = 752;
}
);
leftKerningGroup = H;
rightKerningGroup = H;
unicode = 004E;
},
{
color = 1;
glyphname = Eng;
layers = (
{
layerId = "075BA79B-D813-4287-A9DD-CCAF2D535ED3";
paths = (
{
closed = 1;
nodes = (
"604 -236 OFFCURVE",
"671 -212 OFFCURVE",
"671 -107 CURVE SMOOTH",
"671 671 LINE",
"664 663 LINE",
"771 677 LINE",
"771 692 LINE",
"536 687 LINE",
"536 671 LINE",
"658 665 LINE",
"651 672 LINE",
"651 28 LINE",
"655 29 LINE",
"193 692 LINE",
"68 687 LINE",
"68 672 LINE",
"175 663 LINE",
"168 671 LINE",
"168 21 LINE",
"175 29 LINE",
"68 15 LINE",
"68 0 LINE",
"303 0 LINE",
"303 15 LINE",
"181 29 LINE",
"188 21 LINE",
"188 670 LINE",
"184 669 LINE",
"655 -9 LINE",
"651 4 LINE",
"651 -107 LINE SMOOTH",
"651 -185 OFFCURVE",
"616 -217 OFFCURVE",
"539 -217 CURVE SMOOTH",
"528 -217 OFFCURVE",
"517 -216 OFFCURVE",
"504 -215 CURVE",
"502 -234 LINE",
"514 -235 OFFCURVE",
"526 -236 OFFCURVE",
"539 -236 CURVE SMOOTH"
);
}
);
width = 827;
},
{
background = {
paths = (
{
closed = 1;
nodes = (
"690 -209 OFFCURVE",
"690 6 CURVE SMOOTH",
"690 611 LINE",
"663 570 LINE",
"760 610 LINE",
"760 710 LINE",
"455 705 LINE",
"455 605 LINE",
"554 570 LINE",
"525 610 LINE",
"525 258 LINE",
"550 258 LINE",
"327 710 LINE",
"24 705 LINE",
"24 605 LINE",
"112 574 LINE",
"94 610 LINE",
"94 95 LINE",
"123 135 LINE",
"24 100 LINE",
"24 0 LINE",
"329 0 LINE",
"329 100 LINE",
"230 135 LINE",
"259 95 LINE",
"259 465 LINE",
"235 465 LINE",
"500 -21 LINE",
"489 35 LINE",
"489 -22 LINE SMOOTH",
"489 -92 OFFCURVE",
"455 -107 OFFCURVE",
"364 -97 CURVE",
"349 -237 LINE",
"515 -269 OFFCURVE"
);
}
);
};
layerId = "927AED37-E9E6-4F96-A08E-421C3785EFC6";
paths = (
{
closed = 1;
nodes = (
"568 -245 OFFCURVE",
"690 -174 OFFCURVE",
"690 6 CURVE SMOOTH",
"690 611 LINE",
"663 570 LINE",
"760 610 LINE",
"760 710 LINE",
"455 705 LINE",
"455 605 LINE",
"554 570 LINE",
"525 610 LINE",
"525 258 LINE",
"550 258 LINE",
"327 710 LINE",
"24 705 LINE",
"24 605 LINE",
"112 574 LINE",
"94 610 LINE",
"94 95 LINE",
"123 135 LINE",
"24 100 LINE",
"24 0 LINE",
"329 0 LINE",
"329 100 LINE",
"230 135 LINE",
"259 95 LINE",
"259 465 LINE",
"235 465 LINE",
"500 -21 LINE",
"489 35 LINE",
"489 -22 LINE SMOOTH",
"489 -79 OFFCURVE",
"466 -100 OFFCURVE",
"408 -100 CURVE SMOOTH",
"395 -100 OFFCURVE",
"380 -99 OFFCURVE",
"364 -97 CURVE",
"349 -237 LINE",
"376 -242 OFFCURVE",
"404 -245 OFFCURVE",
"432 -245 CURVE SMOOTH"
);
}
);
width = 771;
}
);
leftKerningGroup = H;
leftMetricsKey = N;
rightKerningGroup = J;
rightMetricsKey = J;
unicode = 014A;
},
{
color = 1;
glyphname = O;
layers = (
{
anchors = (
{
name = bottom;
position = "{386, 0}";
},
{
name = center;
position = "{386, 346}";
},
{
name = ogonek;
position = "{439, 0}";
},
{
name = top;
position = "{390, 692}";
},
{
name = topleft;
position = "{20, 692}";
},
{
name = topright;
position = "{601, 650}";
}
);
guideLines = (
{
angle = 90;
position = "{80, 854}";
},
{
angle = 90;
position = "{692, 854}";
},
{
angle = 90;
position = "{386, 661}";
}
);
layerId = "075BA79B-D813-4287-A9DD-CCAF2D535ED3";
paths = (
{
closed = 1;
nodes = (
"543 -6 OFFCURVE",
"686 123 OFFCURVE",
"686 357 CURVE SMOOTH",
"686 591 OFFCURVE",
"541 698 OFFCURVE",
"390 698 CURVE SMOOTH",
"232 698 OFFCURVE",
"86 581 OFFCURVE",
"86 341 CURVE SMOOTH",
"86 107 OFFCURVE",
"224 -6 OFFCURVE",
"378 -6 CURVE SMOOTH"
);
},
{
closed = 1;
nodes = (
"236 14 OFFCURVE",
"108 121 OFFCURVE",
"108 342 CURVE SMOOTH",
"108 568 OFFCURVE",
"242 678 OFFCURVE",
"389 678 CURVE SMOOTH",
"534 678 OFFCURVE",
"664 570 OFFCURVE",
"664 353 CURVE SMOOTH",
"664 129 OFFCURVE",
"527 14 OFFCURVE",
"379 14 CURVE SMOOTH"
);
}
);
width = 772;
},
{
anchors = (
{
name = bottom;
position = "{354, 0}";
},
{
name = center;
position = "{354, 355}";
},
{
name = ogonek;
position = "{452, 0}";
},
{
name = top;
position = "{357, 710}";
},
{
name = topleft;
position = "{19, 710}";
},
{
name = topright;
position = "{573, 679}";
}
);
background = {
paths = (
{
closed = 1;
nodes = (
"157 710 OFFCURVE",
"32 565 OFFCURVE",
"32 345 CURVE SMOOTH",
"32 115 OFFCURVE",
"142 -10 OFFCURVE",
"337 -10 CURVE SMOOTH",
"532 -10 OFFCURVE",
"667 140 OFFCURVE",
"667 360 CURVE SMOOTH",
"667 575 OFFCURVE",
"552 710 OFFCURVE",
"357 710 CURVE SMOOTH"
);
},
{
closed = 1;
nodes = (
"482 625 OFFCURVE",
"552 535 OFFCURVE",
"552 355 CURVE SMOOTH",
"552 165 OFFCURVE",
"472 75 OFFCURVE",
"342 75 CURVE SMOOTH",
"212 75 OFFCURVE",
"147 170 OFFCURVE",
"147 350 CURVE SMOOTH",
"147 540 OFFCURVE",
"222 625 OFFCURVE",
"352 625 CURVE SMOOTH"
);
}
);
};
guideLines = (
{
angle = 90;
position = "{354, 764}";
}
);
layerId = "927AED37-E9E6-4F96-A08E-421C3785EFC6";
paths = (
{
closed = 1;
nodes = (
"560 -15 OFFCURVE",
"692 133 OFFCURVE",
"692 370 CURVE SMOOTH",
"692 594 OFFCURVE",
"577 725 OFFCURVE",
"362 725 CURVE SMOOTH",
"147 725 OFFCURVE",
"17 595 OFFCURVE",
"17 344 CURVE SMOOTH",
"17 113 OFFCURVE",
"129 -15 OFFCURVE",
"337 -15 CURVE SMOOTH"
);
},
{
closed = 1;
nodes = (
"268 140 OFFCURVE",
"237 193 OFFCURVE",
"237 351 CURVE SMOOTH",
"237 531 OFFCURVE",
"277 570 OFFCURVE",
"353 570 CURVE SMOOTH",
"437 570 OFFCURVE",
"472 524 OFFCURVE",
"472 362 CURVE SMOOTH",
"472 182 OFFCURVE",
"427 140 OFFCURVE",
"352 140 CURVE SMOOTH"
);
}
);
width = 708;
}
);
leftKerningGroup = O;
rightKerningGroup = O;
unicode = 004F;
},
{
glyphname = Ocircumflexacute;
layers = (
{
components = (
{
name = O;
},
{
name = circumflexcomb_acutecomb.case;
transform = "{1, 0, 0, 1, 153, 0}";
}
);
guideLines = (
{
angle = 90;
position = "{386, 594}";
}
);
layerId = "075BA79B-D813-4287-A9DD-CCAF2D535ED3";
width = 772;
},
{
background = {
anchors = (
{
name = _top;
position = "{354, 710}";
},
{
name = bottom;
position = "{354, 0}";
},
{
name = center;
position = "{354, 355}";
},
{
name = ogonek;
position = "{452, 0}";
},
{
name = top;
position = "{354, 710}";
},
{
name = topleft;
position = "{19, 710}";
},
{
name = topright;
position = "{573, 679}";
}
);
paths = (
{
closed = 1;
nodes = (
"560 -15 OFFCURVE",
"692 133 OFFCURVE",
"692 370 CURVE SMOOTH",
"692 594 OFFCURVE",
"577 725 OFFCURVE",
"362 725 CURVE SMOOTH",
"147 725 OFFCURVE",
"17 595 OFFCURVE",
"17 344 CURVE SMOOTH",
"17 113 OFFCURVE",
"129 -15 OFFCURVE",
"337 -15 CURVE SMOOTH"
);
},
{
closed = 1;
nodes = (
"268 140 OFFCURVE",
"237 193 OFFCURVE",
"237 351 CURVE SMOOTH",
"237 531 OFFCURVE",
"277 570 OFFCURVE",
"353 570 CURVE SMOOTH",
"437 570 OFFCURVE",
"472 524 OFFCURVE",
"472 362 CURVE SMOOTH",
"472 182 OFFCURVE",
"427 140 OFFCURVE",
"352 140 CURVE SMOOTH"
);
},
{
closed = 1;
nodes = (
"422 862 LINE",
"281 864 LINE",
"506 732 LINE",
"571 808 LINE",
"405 961 LINE",
"293 950 LINE",
"141 808 LINE",
"204 732 LINE"
);
},
{
closed = 1;
nodes = (
"749.577 993.557 LINE",
"657.875 1101.215 LINE",
"484.274 940.952 LINE",
"555.707 858.77 LINE"
);
}
);
};
components = (
{
name = O;
},
{
name = circumflexcomb_acutecomb.case;
transform = "{1, 0, 0, 1, 109, 0}";
}
);
layerId = "927AED37-E9E6-4F96-A08E-421C3785EFC6";
width = 708;
}
);
leftKerningGroup = O;
rightKerningGroup = O;
unicode = 1ED0;
},
{
color = 1;
glyphname = Oslash;
layers = (
{
components = (
{
name = O;
transform = "{1, 0, 0, 1, 8, 0}";
}
);
guideLines = (
{
angle = 90;
position = "{393, 592}";
}
);
layerId = "075BA79B-D813-4287-A9DD-CCAF2D535ED3";
paths = (
{
closed = 1;
nodes = (
"126 -59 LINE",
"143 -70 LINE",
"663 752 LINE",
"646 762 LINE"
);
}
);
width = 787;
},
{
background = {
paths = (
{
closed = 1;
nodes = (
"86 -15 LINE",
"216 -92 LINE",
"726 717 LINE",
"597 794 LINE"
);
}
);
};
components = (
{
name = O;
transform = "{1, 0, 0, 1, 4, 0}";
}
);
layerId = "927AED37-E9E6-4F96-A08E-421C3785EFC6";
paths = (
{
closed = 1;
nodes = (
"51 -22 LINE",
"154 -83 LINE",
"665 729 LINE",
"563 790 LINE"
);
}
);
width = 717;
}
);
leftKerningGroup = O;
rightKerningGroup = O;
unicode = 00D8;
},
{
glyphname = Otildeacute;
layers = (
{
components = (
{
name = O;
},
{
alignment = 1;
name = tildecomb_acutecomb.case;
transform = "{1, 0, 0, 1, 150, 0}";
}
);
layerId = "075BA79B-D813-4287-A9DD-CCAF2D535ED3";
width = 772;
},
{
background = {
anchors = (
{
name = _top;
position = "{355, 701}";
},
{
name = top;
position = "{355, 943}";
}
);
paths = (
{
closed = 1;
nodes = (
"244 789 OFFCURVE",
"258 803 OFFCURVE",
"279 803 CURVE SMOOTH",
"315 803 OFFCURVE",
"380 760 OFFCURVE",
"432 760 CURVE SMOOTH",
"492 760 OFFCURVE",
"537 802 OFFCURVE",
"566 904 CURVE",
"484 939 LINE",
"464 907 OFFCURVE",
"447 892 OFFCURVE",
"423 892 CURVE SMOOTH",
"383 892 OFFCURVE",
"322 936 OFFCURVE",
"267 936 CURVE SMOOTH",
"210 936 OFFCURVE",
"171 894 OFFCURVE",
"143 794 CURVE",
"223 758 LINE"
);
},
{
closed = 1;
nodes = (
"514.69 1038.914 LINE",
"447.654 1182.341 LINE",
"190.643 1043.226 LINE",
"233.334 947.678 LINE"
);
}
);
};
components = (
{
name = O;
},
{
alignment = 1;
name = tildecomb_acutecomb.case;
transform = "{1, 0, 0, 1, 114, 0}";
}
);
layerId = "927AED37-E9E6-4F96-A08E-421C3785EFC6";
width = 708;
}
);
leftKerningGroup = O;
rightKerningGroup = O;
unicode = 1E4C;
},
{
color = 1;
glyphname = OE;
layers = (
{
anchors = (
{
name = bottom;
position = "{474, 0}";
},
{
name = top;
position = "{474, 692}";
}
);
layerId = "075BA79B-D813-4287-A9DD-CCAF2D535ED3";
paths = (
{
closed = 1;
nodes = (
"410 -2 OFFCURVE",
"461 0 OFFCURVE",
"478 0 CURVE SMOOTH",
"857 0 LINE",
"857 141 LINE",
"842 141 LINE",
"827 12 LINE",
"835 19 LINE",
"486 19 LINE",
"493 12 LINE",
"493 366 LINE",
"486 359 LINE",
"776 359 LINE",
"776 378 LINE",
"486 378 LINE",
"493 371 LINE",
"493 680 LINE",
"486 673 LINE",
"822 673 LINE",
"814 680 LINE",
"829 556 LINE",
"844 556 LINE",
"844 692 LINE",
"494 692 LINE SMOOTH",
"476 692 OFFCURVE",
"417 694 OFFCURVE",
"390 694 CURVE SMOOTH",
"225 694 OFFCURVE",
"86 580 OFFCURVE",
"86 340 CURVE SMOOTH",
"86 107 OFFCURVE",
"217 -2 OFFCURVE",
"374 -2 CURVE SMOOTH"
);
},
{
closed = 1;
nodes = (
"476 21 LINE",
"459 19 OFFCURVE",
"408 18 OFFCURVE",
"382 18 CURVE SMOOTH",
"225 18 OFFCURVE",
"108 120 OFFCURVE",
"108 340 CURVE SMOOTH",
"108 567 OFFCURVE",
"234 674 OFFCURVE",
"394 674 CURVE SMOOTH",
"416 674 OFFCURVE",
"463 673 OFFCURVE",
"477 672 CURVE",
"473 679 LINE",
"473 14 LINE"
);
}
);
width = 948;
},
{
anchors = (
{
name = bottom;
position = "{465, 0}";
},
{
name = top;
position = "{465, 710}";
}
);
background = {
paths = (
{
closed = 1;
nodes = (
"752 115 LINE",
"789 145 LINE",
"592 145 LINE",
"622 115 LINE",
"622 325 LINE",
"592 295 LINE",
"801 295 LINE",
"801 430 LINE",
"592 430 LINE",
"622 400 LINE",
"622 595 LINE",
"592 565 LINE",
"777 565 LINE",
"741 591 LINE",
"764 508 LINE",
"884 508 LINE",
"884 710 LINE",
"617 710 LINE",
"357 705 LINE",
"357 605 LINE",
"441 572 LINE",
"417 610 LINE",
"417 95 LINE",
"442 134 LINE",
"357 100 LINE",
"357 0 LINE",
"894 0 LINE",
"896 211 LINE",
"776 211 LINE"
);
}
);
};
layerId = "927AED37-E9E6-4F96-A08E-421C3785EFC6";
paths = (
{
closed = 1;
nodes = (
"394 -7 OFFCURVE",
"519 0 OFFCURVE",
"564 0 CURVE SMOOTH",
"899 0 LINE",
"901 211 LINE",
"781 211 LINE",
"757 115 LINE",
"794 145 LINE",
"602 145 LINE",
"632 115 LINE",
"632 325 LINE",
"602 295 LINE",
"806 295 LINE",
"806 430 LINE",
"602 430 LINE",
"632 400 LINE",
"632 595 LINE",
"602 565 LINE",
"782 565 LINE",
"746 591 LINE",
"769 508 LINE",
"889 508 LINE",
"889 710 LINE",
"628 710 LINE SMOOTH",
"587 710 OFFCURVE",
"435 716 OFFCURVE",
"381 716 CURVE SMOOTH",
"145 716 OFFCURVE",
"17 601 OFFCURVE",
"17 346 CURVE SMOOTH",
"17 112 OFFCURVE",
"125 -7 OFFCURVE",
"341 -7 CURVE SMOOTH"
);
},
{
closed = 1;
nodes = (
"460 159 LINE",
"453 157 OFFCURVE",
"401 147 OFFCURVE",
"358 147 CURVE SMOOTH",
"268 147 OFFCURVE",
"237 190 OFFCURVE",
"237 352 CURVE SMOOTH",
"237 534 OFFCURVE",
"276 561 OFFCURVE",
"361 561 CURVE SMOOTH",
"415 561 OFFCURVE",
"435 550 OFFCURVE",
"486 556 CURVE",
"427 606 LINE",
"427 103 LINE"
);
}
);
width = 930;
}
);
leftKerningGroup = O;
leftMetricsKey = O;
rightKerningGroup = E;
rightMetricsKey = E;
unicode = 0152;
},
{
color = 1;
glyphname = P;
layers = (
{
anchors = (
{
name = bottom;
position = "{298, 0}";
},
{
name = top;
position = "{298, 692}";
}
);
layerId = "075BA79B-D813-4287-A9DD-CCAF2D535ED3";
paths = (
{
closed = 1;
nodes = (
"446 285 OFFCURVE",
"539 365 OFFCURVE",
"539 500 CURVE SMOOTH",
"539 619 OFFCURVE",
"465 692 OFFCURVE",
"324 692 CURVE SMOOTH",
"189 692 LINE",
"68 687 LINE",
"68 672 LINE",
"175 663 LINE",
"168 671 LINE",
"168 21 LINE",
"175 29 LINE",
"68 15 LINE",
"68 0 LINE",
"313 0 LINE",
"313 15 LINE",
"181 29 LINE",
"188 21 LINE",
"188 292 LINE",
"181 285 LINE",
"287 285 LINE SMOOTH"
);
},
{
closed = 1;
nodes = (
"450 673 OFFCURVE",
"517 607 OFFCURVE",
"517 499 CURVE SMOOTH",
"517 377 OFFCURVE",
"433 304 OFFCURVE",
"288 304 CURVE SMOOTH",
"181 304 LINE",
"188 297 LINE",
"188 680 LINE",
"181 673 LINE",
"322 673 LINE SMOOTH"
);
}
);
width = 595;
},
{
anchors = (
{
name = bottom;
position = "{308, 0}";
},
{
name = top;
position = "{308, 710}";
}
);
background = {
paths = (
{
closed = 1;
nodes = (
"330 231 LINE SMOOTH",
"542 231 OFFCURVE",
"629 346 OFFCURVE",
"629 479 CURVE SMOOTH",
"629 606 OFFCURVE",
"551 711 OFFCURVE",
"374 711 CURVE SMOOTH",
"293 711 LINE",
"14 705 LINE",
"14 605 LINE",
"84 582 LINE",
"289 566 LINE",
"344 566 LINE SMOOTH",
"395 566 OFFCURVE",
"421 532 OFFCURVE",
"421 476 CURVE SMOOTH",
"421 417 OFFCURVE",
"391 376 OFFCURVE",
"330 376 CURVE SMOOTH",
"265 376 LINE",
"265 231 LINE"
);
},
{
closed = 1;
nodes = (
"384 0 LINE",
"384 100 LINE",
"289 125 LINE",
"84 125 LINE",
"14 100 LINE",
"14 0 LINE"
);
},
{
closed = 1;
nodes = (
"289 125 LINE",
"289 566 LINE",
"84 582 LINE",
"84 125 LINE"
);
}
);
};
layerId = "927AED37-E9E6-4F96-A08E-421C3785EFC6";
paths = (
{
closed = 1;
nodes = (
"527 231 OFFCURVE",
"614 345 OFFCURVE",
"614 480 CURVE SMOOTH",
"614 605 OFFCURVE",
"539 711 OFFCURVE",
"362 711 CURVE SMOOTH",
"293 711 LINE",
"24 705 LINE",
"24 605 LINE",
"119 570 LINE",
"84 612 LINE",
"84 95 LINE",
"114 135 LINE",
"24 100 LINE",
"24 0 LINE",
"369 0 LINE",
"369 100 LINE",
"262 132 LINE",
"289 95 LINE",
"289 261 LINE",
"249 231 LINE",
"315 231 LINE SMOOTH"
);
},
{
closed = 1;
nodes = (
"380 566 OFFCURVE",
"406 532 OFFCURVE",
"406 476 CURVE SMOOTH",
"406 417 OFFCURVE",
"376 376 OFFCURVE",
"315 376 CURVE SMOOTH",
"249 376 LINE",
"289 346 LINE",
"289 596 LINE",
"259 566 LINE",
"329 566 LINE SMOOTH"
);
}
);
width = 615;
}
);
leftKerningGroup = H;
rightKerningGroup = P;
unicode = 0050;
},
{
color = 1;
glyphname = Thorn;
layers = (
{
anchors = (
{
name = bottom;
position = "{290, 0}";
},
{
name = top;
position = "{290, 692}";
}
);
layerId = "075BA79B-D813-4287-A9DD-CCAF2D535ED3";
paths = (
{
closed = 1;
nodes = (
"313 0 LINE",
"313 15 LINE",
"181 29 LINE",
"188 21 LINE",
"188 158 LINE",
"181 151 LINE",
"272 151 LINE SMOOTH",
"431 151 OFFCURVE",
"524 231 OFFCURVE",
"524 367 CURVE SMOOTH",
"524 488 OFFCURVE",
"450 561 OFFCURVE",
"309 561 CURVE SMOOTH",
"181 561 LINE",
"188 554 LINE",
"188 671 LINE",
"181 663 LINE",
"288 677 LINE",
"288 692 LINE",
"68 687 LINE",
"68 672 LINE",
"175 663 LINE",
"168 671 LINE",
"168 21 LINE",
"175 29 LINE",
"68 15 LINE",
"68 0 LINE"
);
},
{
closed = 1;
nodes = (
"188 549 LINE",
"181 542 LINE",
"307 542 LINE SMOOTH",
"435 542 OFFCURVE",
"502 476 OFFCURVE",
"502 366 CURVE SMOOTH",
"502 243 OFFCURVE",
"418 170 OFFCURVE",
"273 170 CURVE SMOOTH",
"181 170 LINE",
"188 163 LINE"
);
}
);
width = 580;
},
{
anchors = (
{
name = bottom;
position = "{302, 0}";
},
{
name = top;
position = "{302, 710}";
}
);
background = {
paths = (
{
closed = 1;
nodes = (
"347 170 LINE SMOOTH",
"501 170 OFFCURVE",
"600 239 OFFCURVE",
"600 369 CURVE SMOOTH",
"600 495 OFFCURVE",
"512 547 OFFCURVE",
"387 547 CURVE SMOOTH",
"243 547 LINE",
"243 412 LINE",
"316 412 LINE SMOOTH",
"381 412 OFFCURVE",
"405 397 OFFCURVE",
"405 361 CURVE SMOOTH",
"405 315 OFFCURVE",
"364 305 OFFCURVE",
"301 305 CURVE SMOOTH",
"243 305 LINE",
"243 170 LINE"
);
},
{
closed = 1;
nodes = (
"359 710 LINE",
"14 705 LINE",
"14 605 LINE",
"108 571 LINE",
"84 600 LINE",
"84 105 LINE",
"101 131 LINE",
"14 100 LINE",
"14 0 LINE",
"384 0 LINE",
"384 100 LINE",
"270 132 LINE",
"289 105 LINE",
"289 600 LINE",
"270 567 LINE",
"359 610 LINE"
);
}
);
};
layerId = "927AED37-E9E6-4F96-A08E-421C3785EFC6";
paths = (
{
closed = 1;
nodes = (
"363 0 LINE",
"363 100 LINE",
"263 134 LINE",
"288 97 LINE",
"288 191 LINE",
"258 156 LINE",
"350 156 LINE SMOOTH",
"503 156 OFFCURVE",
"603 222 OFFCURVE",
"603 373 CURVE SMOOTH",
"603 506 OFFCURVE",
"526 559 OFFCURVE",
"390 559 CURVE SMOOTH",
"258 559 LINE",
"288 524 LINE",
"288 606 LINE",
"267 568 LINE",
"348 610 LINE",
"348 710 LINE",
"23 705 LINE",
"23 605 LINE",
"107 571 LINE",
"83 610 LINE",
"83 95 LINE",
"107 133 LINE",
"23 100 LINE",
"23 0 LINE"
);
},
{
closed = 1;
nodes = (
"288 449 LINE",
"258 419 LINE",
"319 419 LINE SMOOTH",
"378 419 OFFCURVE",
"398 406 OFFCURVE",
"398 361 CURVE SMOOTH",
"398 304 OFFCURVE",
"366 296 OFFCURVE",
"307 296 CURVE SMOOTH",
"258 296 LINE",
"288 266 LINE"
);
}
);
width = 604;
}
);
leftKerningGroup = H;
rightKerningGroup = Thorn;
rightMetricsKey = P;
unicode = 00DE;
},
{
color = 1;
glyphname = Q;
layers = (
{
layerId = "075BA79B-D813-4287-A9DD-CCAF2D535ED3";
paths = (
{
closed = 1;
nodes = (
"792 -94 LINE",
"751 -116 OFFCURVE",
"710 -135 OFFCURVE",
"682 -135 CURVE SMOOTH",
"633 -135 OFFCURVE",
"550 -77 OFFCURVE",
"408 -2 CURVE",
"410 -5 LINE",
"570 8 OFFCURVE",
"698 135 OFFCURVE",
"698 356 CURVE SMOOTH",
"698 591 OFFCURVE",
"553 698 OFFCURVE",
"396 698 CURVE SMOOTH",
"232 698 OFFCURVE",
"86 581 OFFCURVE",
"86 341 CURVE SMOOTH",
"86 109 OFFCURVE",
"221 -4 OFFCURVE",
"380 -6 CURVE",
"369 -2 LINE",
"559 -106 OFFCURVE",
"629 -156 OFFCURVE",
"678 -156 CURVE SMOOTH",
"712 -156 OFFCURVE",
"756 -132 OFFCURVE",
"802 -109 CURVE"
);
},
{
closed = 1;
nodes = (
"108 568 OFFCURVE",
"242 678 OFFCURVE",
"395 678 CURVE SMOOTH",
"546 678 OFFCURVE",
"676 570 OFFCURVE",
"676 353 CURVE SMOOTH",
"676 129 OFFCURVE",
"539 14 OFFCURVE",
"385 14 CURVE SMOOTH",
"236 14 OFFCURVE",
"108 121 OFFCURVE",
"108 342 CURVE SMOOTH"
);
}
);
width = 784;
},
{
background = {
paths = (
{
closed = 1;
nodes = (
"562 -15 OFFCURVE",
"694 132 OFFCURVE",
"694 371 CURVE SMOOTH",
"694 594 OFFCURVE",
"579 725 OFFCURVE",
"363 725 CURVE SMOOTH",
"147 725 OFFCURVE",
"17 594 OFFCURVE",
"17 345 CURVE SMOOTH",
"17 113 OFFCURVE",
"129 -15 OFFCURVE",
"338 -15 CURVE SMOOTH"
);
},
{
closed = 1;
nodes = (
"268 140 OFFCURVE",
"237 193 OFFCURVE",
"237 351 CURVE SMOOTH",
"237 531 OFFCURVE",
"277 570 OFFCURVE",
"354 570 CURVE SMOOTH",
"439 570 OFFCURVE",
"474 523 OFFCURVE",
"474 363 CURVE SMOOTH",
"474 182 OFFCURVE",
"429 140 OFFCURVE",
"353 140 CURVE SMOOTH"
);
},
{
closed = 1;
nodes = (
"688 -209 OFFCURVE",
"751 -181 OFFCURVE",
"829 -134 CURVE",
"758 -23 LINE",
"719 -44 OFFCURVE",
"681 -62 OFFCURVE",
"655 -62 CURVE SMOOTH",
"616 -62 OFFCURVE",
"550 -27 OFFCURVE",
"477 24 CURVE",
"299 -9 LINE",
"473 -131 OFFCURVE",
"562 -209 OFFCURVE",
"641 -209 CURVE SMOOTH"
);
},
{
closed = 1;
nodes = (
"560 -15 OFFCURVE",
"692 133 OFFCURVE",
"692 370 CURVE SMOOTH",
"692 594 OFFCURVE",
"577 725 OFFCURVE",
"362 725 CURVE SMOOTH",
"147 725 OFFCURVE",
"17 595 OFFCURVE",
"17 344 CURVE SMOOTH",
"17 113 OFFCURVE",
"129 -15 OFFCURVE",
"337 -15 CURVE SMOOTH"
);
},
{
closed = 1;
nodes = (
"268 140 OFFCURVE",
"237 193 OFFCURVE",
"237 351 CURVE SMOOTH",
"237 531 OFFCURVE",
"277 570 OFFCURVE",
"353 570 CURVE SMOOTH",
"437 570 OFFCURVE",
"472 524 OFFCURVE",
"472 362 CURVE SMOOTH",
"472 182 OFFCURVE",
"427 140 OFFCURVE",
"352 140 CURVE SMOOTH"
);
}
);
};
layerId = "927AED37-E9E6-4F96-A08E-421C3785EFC6";
paths = (
{
closed = 1;
nodes = (
"758 -23 LINE",
"719 -44 OFFCURVE",
"681 -62 OFFCURVE",
"655 -62 CURVE SMOOTH",
"614 -62 OFFCURVE",
"542 -24 OFFCURVE",
"464 32 CURVE",
"463 3 LINE",
"610 49 OFFCURVE",
"694 182 OFFCURVE",
"694 371 CURVE SMOOTH",
"694 594 OFFCURVE",
"579 725 OFFCURVE",
"363 725 CURVE SMOOTH",
"147 725 OFFCURVE",
"17 594 OFFCURVE",
"17 345 CURVE SMOOTH",
"17 114 OFFCURVE",
"129 -13 OFFCURVE",
"335 -15 CURVE",
"283 0 LINE",
"509 -152 OFFCURVE",
"551 -209 OFFCURVE",
"641 -209 CURVE SMOOTH",
"688 -209 OFFCURVE",
"751 -181 OFFCURVE",
"829 -134 CURVE"
);
},
{
closed = 1;
nodes = (
"237 531 OFFCURVE",
"277 570 OFFCURVE",
"354 570 CURVE SMOOTH",
"439 570 OFFCURVE",
"474 523 OFFCURVE",
"474 363 CURVE SMOOTH",
"474 182 OFFCURVE",
"429 140 OFFCURVE",
"353 140 CURVE SMOOTH",
"268 140 OFFCURVE",
"237 193 OFFCURVE",
"237 351 CURVE SMOOTH"
);
}
);
width = 710;
}
);
leftKerningGroup = O;
rightKerningGroup = O;
unicode = 0051;
},
{
color = 1;
glyphname = R;
layers = (
{
anchors = (
{
name = bottom;
position = "{352, 0}";
},
{
name = top;
position = "{312, 691}";
}
);
layerId = "075BA79B-D813-4287-A9DD-CCAF2D535ED3";
paths = (
{
closed = 1;
nodes = (
"313 0 LINE",
"313 15 LINE",
"181 29 LINE",
"188 21 LINE",
"188 350 LINE",
"181 343 LINE",
"260 343 LINE SMOOTH",
"349 343 OFFCURVE",
"391 333 OFFCURVE",
"448 212 CURVE SMOOTH",
"548 0 LINE",
"631 0 LINE",
"631 15 LINE",
"553 29 LINE",
"563 22 LINE",
"467 218 LINE SMOOTH",
"428 297 OFFCURVE",
"407 341 OFFCURVE",
"330 352 CURVE",
"333 349 LINE",
"466 360 OFFCURVE",
"533 429 OFFCURVE",
"533 528 CURVE SMOOTH",
"533 632 OFFCURVE",
"459 692 OFFCURVE",
"318 692 CURVE SMOOTH",
"189 692 LINE",
"68 687 LINE",
"68 672 LINE",
"175 663 LINE",
"168 671 LINE",
"168 21 LINE",
"175 29 LINE",
"68 15 LINE",
"68 0 LINE"
);
},
{
closed = 1;
nodes = (
"188 680 LINE",
"181 673 LINE",
"316 673 LINE SMOOTH",
"444 673 OFFCURVE",
"511 620 OFFCURVE",
"511 527 CURVE SMOOTH",
"511 422 OFFCURVE",
"427 362 OFFCURVE",
"282 362 CURVE SMOOTH",
"181 362 LINE",
"188 355 LINE"
);
}
);
width = 659;
},
{
anchors = (
{
name = bottom;
position = "{340, 0}";
},
{
name = top;
position = "{324, 710}";
}
);
background = {
paths = (
{
closed = 1;
nodes = (
"349 0 LINE",
"349 100 LINE",
"264 134 LINE",
"289 95 LINE",
"289 303 LINE",
"257 276 LINE",
"292 277 LINE SMOOTH",
"340 278 OFFCURVE",
"345 269 OFFCURVE",
"373 204 CURVE SMOOTH",
"462 0 LINE",
"662 0 LINE",
"662 100 LINE",
"569 139 LINE",
"625 104 LINE",
"550 258 LINE SMOOTH",
"528 303 OFFCURVE",
"493 335 OFFCURVE",
"415 333 CURVE",
"408 301 LINE",
"561 321 OFFCURVE",
"626 401 OFFCURVE",
"626 510 CURVE SMOOTH",
"626 636 OFFCURVE",
"539 711 OFFCURVE",
"370 711 CURVE SMOOTH",
"297 711 LINE",
"24 705 LINE",
"24 605 LINE",
"119 568 LINE",
"84 609 LINE",
"84 95 LINE",
"108 133 LINE",
"24 100 LINE",
"24 0 LINE"
);
},
{
closed = 1;
nodes = (
"289 596 LINE",
"257 566 LINE",
"343 566 LINE SMOOTH",
"395 566 OFFCURVE",
"418 534 OFFCURVE",
"418 488 CURVE SMOOTH",
"418 436 OFFCURVE",
"389 406 OFFCURVE",
"322 406 CURVE SMOOTH",
"257 406 LINE",
"289 376 LINE"
);
}
);
};
layerId = "927AED37-E9E6-4F96-A08E-421C3785EFC6";
paths = (
{
closed = 1;
nodes = (
"349 0 LINE",
"349 100 LINE",
"264 134 LINE",
"289 95 LINE",
"289 308 LINE",
"257 281 LINE",
"292 282 LINE SMOOTH",
"341 283 OFFCURVE",
"344 273 OFFCURVE",
"374 204 CURVE SMOOTH",
"463 0 LINE",
"662 0 LINE",
"662 100 LINE",
"569 139 LINE",
"625 104 LINE",
"550 258 LINE SMOOTH",
"528 303 OFFCURVE",
"493 330 OFFCURVE",
"415 328 CURVE",
"408 305 LINE",
"561 325 OFFCURVE",
"626 405 OFFCURVE",
"626 512 CURVE SMOOTH",
"626 636 OFFCURVE",
"539 711 OFFCURVE",
"370 711 CURVE SMOOTH",
"297 711 LINE",
"24 705 LINE",
"24 605 LINE",
"119 568 LINE",
"84 609 LINE",
"84 95 LINE",
"108 133 LINE",
"24 100 LINE",
"24 0 LINE"
);
},
{
closed = 1;
nodes = (
"289 596 LINE",
"257 566 LINE",
"344 566 LINE SMOOTH",
"396 566 OFFCURVE",
"418 536 OFFCURVE",
"418 486 CURVE SMOOTH",
"418 430 OFFCURVE",
"389 401 OFFCURVE",
"322 401 CURVE SMOOTH",
"257 401 LINE",
"289 371 LINE"
);
}
);
width = 665;
}
);
leftKerningGroup = H;
rightKerningGroup = R;
unicode = 0052;
},
{
color = 1;
glyphname = S;
layers = (
{
anchors = (
{
name = bottom;
position = "{314, 0}";
},
{
name = top;
position = "{320, 691}";
}
);
layerId = "075BA79B-D813-4287-A9DD-CCAF2D535ED3";
paths = (
{
closed = 1;
nodes = (
"131 635 OFFCURVE",
"225 678 OFFCURVE",
"326 678 CURVE SMOOTH",
"381 678 OFFCURVE",
"438 665 OFFCURVE",
"483 644 CURVE",
"475 653 LINE",
"484 522 LINE",
"499 522 LINE",
"505 659 LINE",
"447 685 OFFCURVE",
"386 698 OFFCURVE",
"329 698 CURVE SMOOTH",
"204 698 OFFCURVE",
"109 640 OFFCURVE",
"109 523 CURVE SMOOTH",
"109 290 OFFCURVE",
"496 404 OFFCURVE",
"496 178 CURVE SMOOTH",
"496 71 OFFCURVE",
"399 15 OFFCURVE",
"285 15 CURVE SMOOTH",
"232 15 OFFCURVE",
"175 27 OFFCURVE",
"122 51 CURVE",
"127 41 LINE",
"115 175 LINE",
"100 175 LINE",
"94 36 LINE",
"155 8 OFFCURVE",
"220 -6 OFFCURVE",
"282 -6 CURVE SMOOTH",
"410 -6 OFFCURVE",
"518 56 OFFCURVE",
"518 181 CURVE SMOOTH",
"518 426 OFFCURVE",
"131 312 OFFCURVE",
"131 527 CURVE SMOOTH"
);
}
);
width = 612;
},
{
anchors = (
{
name = bottom;
position = "{305, 0}";
},
{
name = top;
position = "{310, 710}";
}
);
background = {
paths = (
{
closed = 1;
nodes = (
"235 565 OFFCURVE",
"273 579 OFFCURVE",
"318 579 CURVE SMOOTH",
"345 579 OFFCURVE",
"375 574 OFFCURVE",
"402 565 CURVE",
"382 584 LINE",
"409 486 LINE",
"529 486 LINE",
"542 698 LINE",
"467 714 OFFCURVE",
"390 725 OFFCURVE",
"312 725 CURVE SMOOTH",
"156 725 OFFCURVE",
"38 649 OFFCURVE",
"38 499 CURVE SMOOTH",
"38 248 OFFCURVE",
"370 309 OFFCURVE",
"370 192 CURVE SMOOTH",
"370 151 OFFCURVE",
"330 131 OFFCURVE",
"278 131 CURVE SMOOTH",
"249 131 OFFCURVE",
"209 137 OFFCURVE",
"174 151 CURVE",
"192 125 LINE",
"166 230 LINE",
"44 230 LINE",
"44 26 LINE",
"119 -2 OFFCURVE",
"195 -15 OFFCURVE",
"263 -15 CURVE SMOOTH",
"435 -15 OFFCURVE",
"570 68 OFFCURVE",
"570 230 CURVE SMOOTH",
"570 485 OFFCURVE",
"235 429 OFFCURVE",
"235 531 CURVE SMOOTH"
);
}
);
};
layerId = "927AED37-E9E6-4F96-A08E-421C3785EFC6";
paths = (
{
closed = 1;
nodes = (
"230 562 OFFCURVE",
"272 577 OFFCURVE",
"322 577 CURVE SMOOTH",
"352 577 OFFCURVE",
"383 572 OFFCURVE",
"411 563 CURVE",
"391 582 LINE",
"418 486 LINE",
"538 486 LINE",
"551 679 LINE",
"468 709 OFFCURVE",
"384 725 OFFCURVE",
"309 725 CURVE SMOOTH",
"152 725 OFFCURVE",
"33 655 OFFCURVE",
"33 496 CURVE SMOOTH",
"33 245 OFFCURVE",
"379 298 OFFCURVE",
"379 188 CURVE SMOOTH",
"379 149 OFFCURVE",
"335 132 OFFCURVE",
"282 132 CURVE SMOOTH",
"244 132 OFFCURVE",
"202 141 OFFCURVE",
"169 157 CURVE",
"187 126 LINE",
"161 241 LINE",
"39 241 LINE",
"39 26 LINE",
"116 -2 OFFCURVE",
"197 -16 OFFCURVE",
"273 -16 CURVE SMOOTH",
"440 -16 OFFCURVE",
"579 55 OFFCURVE",
"579 215 CURVE SMOOTH",
"579 470 OFFCURVE",
"230 426 OFFCURVE",
"230 528 CURVE SMOOTH"
);
}
);
width = 598;
}
);
leftKerningGroup = S;
rightKerningGroup = S;
unicode = 0053;
},
{
glyphname = Scedilla;
layers = (
{
components = (
{
name = S;
},
{
name = cedillacomb.case;
transform = "{1, 0, 0, 1, 170, 0}";
}
);
layerId = "075BA79B-D813-4287-A9DD-CCAF2D535ED3";
width = 612;
},
{
background = {
anchors = (
{
name = _bottom;
position = "{305, 0}";
},
{
name = top;
position = "{310, 710}";
}
);
paths = (
{
closed = 1;
nodes = (
"579 470 OFFCURVE",
"230 426 OFFCURVE",
"230 528 CURVE SMOOTH",
"230 562 OFFCURVE",
"272 577 OFFCURVE",
"322 577 CURVE SMOOTH",
"346 577 OFFCURVE",
"371 574 OFFCURVE",
"395 568 CURVE",
"418 486 LINE",
"538 486 LINE",
"551 679 LINE",
"468 709 OFFCURVE",
"384 725 OFFCURVE",
"309 725 CURVE SMOOTH",
"152 725 OFFCURVE",
"33 655 OFFCURVE",
"33 496 CURVE SMOOTH",
"33 245 OFFCURVE",
"379 298 OFFCURVE",
"379 188 CURVE SMOOTH",
"379 149 OFFCURVE",
"335 132 OFFCURVE",
"282 132 CURVE SMOOTH",
"249 132 OFFCURVE",
"212 139 OFFCURVE",
"181 152 CURVE",
"161 241 LINE",
"39 241 LINE",
"39 26 LINE",
"103 3 OFFCURVE",
"170 -11 OFFCURVE",
"235 -15 CURVE",
"228 -117 LINE",
"279 -119 OFFCURVE",
"334 -129 OFFCURVE",
"334 -151 CURVE SMOOTH",
"334 -166 OFFCURVE",
"319 -172 OFFCURVE",
"297 -172 CURVE SMOOTH",
"271 -172 OFFCURVE",
"235 -164 OFFCURVE",
"207 -154 CURVE",
"171 -246 LINE",
"210 -266 OFFCURVE",
"255 -275 OFFCURVE",
"298 -275 CURVE SMOOTH",
"390 -275 OFFCURVE",
"474 -232 OFFCURVE",
"474 -146 CURVE SMOOTH",
"474 -89 OFFCURVE",
"428 -49 OFFCURVE",
"351 -39 CURVE",
"351 -10 LINE",
"481 9 OFFCURVE",
"579 81 OFFCURVE",
"579 215 CURVE SMOOTH"
);
}
);
};
components = (
{
name = S;
},
{
name = cedillacomb.case;
transform = "{1, 0, 0, 1, 162, 0}";
}
);
layerId = "927AED37-E9E6-4F96-A08E-421C3785EFC6";
width = 598;
}
);
leftKerningGroup = S;
rightKerningGroup = S;
unicode = 015E;
},
{
glyphname = Sdotbelowdotaccent;
layers = (
{
components = (
{
name = S;
},
{
name = dotaccentcomb.case;
transform = "{1, 0, 0, 1, 195, -1}";
},
{
name = dotbelowcomb.case;
transform = "{1, 0, 0, 1, 259, 0}";
}
);
guideLines = (
{
angle = 90;
position = "{280, 0}";
}
);
layerId = "075BA79B-D813-4287-A9DD-CCAF2D535ED3";
width = 612;
},
{
background = {
anchors = (
{
name = _center;
position = "{310, 865}";
},
{
name = bottom;
position = "{305, 0}";
},
{
name = top;
position = "{310, 710}";
}
);
paths = (
{
closed = 1;
nodes = (
"230 562 OFFCURVE",
"272 577 OFFCURVE",
"322 577 CURVE SMOOTH",
"352 577 OFFCURVE",
"383 572 OFFCURVE",
"411 563 CURVE",
"391 582 LINE",
"418 486 LINE",
"538 486 LINE",
"551 679 LINE",
"468 709 OFFCURVE",
"384 725 OFFCURVE",
"309 725 CURVE SMOOTH",
"152 725 OFFCURVE",
"33 655 OFFCURVE",
"33 496 CURVE SMOOTH",
"33 245 OFFCURVE",
"379 298 OFFCURVE",
"379 188 CURVE SMOOTH",
"379 149 OFFCURVE",
"335 132 OFFCURVE",
"282 132 CURVE SMOOTH",
"244 132 OFFCURVE",
"202 141 OFFCURVE",
"169 157 CURVE",
"187 126 LINE",
"161 241 LINE",
"39 241 LINE",
"39 26 LINE",
"116 -2 OFFCURVE",
"197 -16 OFFCURVE",
"273 -16 CURVE SMOOTH",
"440 -16 OFFCURVE",
"579 55 OFFCURVE",
"579 215 CURVE SMOOTH",
"579 470 OFFCURVE",
"230 426 OFFCURVE",
"230 528 CURVE SMOOTH"
);
},
{
closed = 1;
nodes = (
"372 761 OFFCURVE",
"419 798 OFFCURVE",
"419 870 CURVE SMOOTH",
"419 943 OFFCURVE",
"373 978 OFFCURVE",
"310 978 CURVE SMOOTH",
"246 978 OFFCURVE",
"199 942 OFFCURVE",
"199 869 CURVE SMOOTH",
"199 799 OFFCURVE",
"244 761 OFFCURVE",
"309 761 CURVE SMOOTH"
);
},
{
closed = 1;
nodes = (
"367 -258 OFFCURVE",
"414 -221 OFFCURVE",
"414 -149 CURVE SMOOTH",
"414 -76 OFFCURVE",
"368 -41 OFFCURVE",
"305 -41 CURVE SMOOTH",
"241 -41 OFFCURVE",
"194 -77 OFFCURVE",
"194 -150 CURVE SMOOTH",
"194 -220 OFFCURVE",
"239 -258 OFFCURVE",
"304 -258 CURVE SMOOTH"
);
}
);
};
components = (
{
name = S;
},
{
name = dotaccentcomb.case;
transform = "{1, 0, 0, 1, 165, 0}";
},
{
name = dotbelowcomb.case;
transform = "{1, 0, 0, 1, 160, 0}";
}
);
layerId = "927AED37-E9E6-4F96-A08E-421C3785EFC6";
width = 598;
}
);
leftKerningGroup = S;
rightKerningGroup = S;
unicode = 1E68;
},
{
color = 1;
glyphname = Germandbls;
layers = (
{
layerId = "075BA79B-D813-4287-A9DD-CCAF2D535ED3";
paths = (
{
closed = 1;
nodes = (
"614 -6 OFFCURVE",
"670 89 OFFCURVE",
"670 183 CURVE SMOOTH",
"670 313 OFFCURVE",
"572 373 OFFCURVE",
"395 390 CURVE",
"397 381 LINE",
"594 626 LINE",
"594 647 LINE",
"516 681 OFFCURVE",
"442 698 OFFCURVE",
"377 698 CURVE SMOOTH",
"240 698 OFFCURVE",
"145 619 OFFCURVE",
"145 447 CURVE SMOOTH",
"145 21 LINE",
"152 29 LINE",
"45 15 LINE",
"45 0 LINE",
"165 0 LINE",
"165 447 LINE SMOOTH",
"165 606 OFFCURVE",
"250 679 OFFCURVE",
"377 679 CURVE SMOOTH",
"437 679 OFFCURVE",
"507 663 OFFCURVE",
"581 631 CURVE",
"580 640 LINE",
"379 391 LINE",
"379 373 LINE",
"553 356 OFFCURVE",
"648 302 OFFCURVE",
"648 182 CURVE SMOOTH",
"648 97 OFFCURVE",
"596 14 OFFCURVE",
"473 14 CURVE SMOOTH",
"409 14 OFFCURVE",
"361 30 OFFCURVE",
"324 46 CURVE",
"329 37 LINE",
"317 171 LINE",
"302 171 LINE",
"296 32 LINE",
"343 10 OFFCURVE",
"397 -6 OFFCURVE",
"467 -6 CURVE SMOOTH"
);
}
);
width = 747;
},
{
background = {
paths = (
{
closed = 1;
nodes = (
"622 -16 OFFCURVE",
"727 62 OFFCURVE",
"727 196 CURVE SMOOTH",
"727 333 OFFCURVE",
"617 379 OFFCURVE",
"496 409 CURVE",
"516 384 LINE",
"667 561 LINE",
"667 675 LINE",
"563 707 OFFCURVE",
"467 726 OFFCURVE",
"378 726 CURVE SMOOTH",
"193 726 OFFCURVE",
"63 644 OFFCURVE",
"63 439 CURVE SMOOTH",
"63 100 LINE",
"87 134 LINE",
"3 100 LINE",
"3 0 LINE",
"268 0 LINE",
"268 440 LINE SMOOTH",
"268 536 OFFCURVE",
"309 577 OFFCURVE",
"382 577 CURVE SMOOTH",
"414 577 OFFCURVE",
"452 569 OFFCURVE",
"495 555 CURVE",
"500 607 LINE",
"350 427 LINE",
"350 311 LINE",
"462 296 OFFCURVE",
"517 276 OFFCURVE",
"517 204 CURVE SMOOTH",
"517 156 OFFCURVE",
"493 129 OFFCURVE",
"460 129 CURVE SMOOTH",
"447 129 OFFCURVE",
"432 133 OFFCURVE",
"417 142 CURVE",
"449 113 LINE",
"424 204 LINE",
"304 204 LINE",
"304 8 LINE",
"364 -8 OFFCURVE",
"421 -16 OFFCURVE",
"470 -16 CURVE SMOOTH"
);
}
);
};
layerId = "927AED37-E9E6-4F96-A08E-421C3785EFC6";
paths = (
{
closed = 1;
nodes = (
"622 -16 OFFCURVE",
"727 62 OFFCURVE",
"727 196 CURVE SMOOTH",
"727 333 OFFCURVE",
"617 379 OFFCURVE",
"507 409 CURVE",
"516 384 LINE",
"659 561 LINE",
"659 675 LINE",
"556 708 OFFCURVE",
"458 727 OFFCURVE",
"373 727 CURVE SMOOTH",
"189 727 OFFCURVE",
"63 641 OFFCURVE",
"63 439 CURVE SMOOTH",
"63 100 LINE",
"87 134 LINE",
"3 100 LINE",
"3 0 LINE",
"268 0 LINE",
"268 440 LINE SMOOTH",
"268 536 OFFCURVE",
"305 577 OFFCURVE",
"379 577 CURVE SMOOTH",
"411 577 OFFCURVE",
"450 569 OFFCURVE",
"495 555 CURVE",
"492 607 LINE",
"361 427 LINE",
"361 311 LINE",
"462 296 OFFCURVE",
"517 276 OFFCURVE",
"517 204 CURVE SMOOTH",
"517 156 OFFCURVE",
"493 129 OFFCURVE",
"460 129 CURVE SMOOTH",
"447 129 OFFCURVE",
"432 133 OFFCURVE",
"417 142 CURVE",
"449 113 LINE",
"424 204 LINE",
"304 204 LINE",
"304 8 LINE",
"364 -8 OFFCURVE",
"421 -16 OFFCURVE",
"470 -16 CURVE SMOOTH"
);
}
);
width = 732;
}
);
leftKerningGroup = H;
rightKerningGroup = B;
unicode = 1E9E;
},
{
color = 1;
glyphname = T;
layers = (
{
anchors = (
{
name = bottom;
position = "{280, 0}";
},
{
name = center;
position = "{280, 346}";
},
{
name = top;
position = "{280, 692}";
}
);
layerId = "075BA79B-D813-4287-A9DD-CCAF2D535ED3";
paths = (
{
closed = 1;
nodes = (
"405 0 LINE",
"405 15 LINE",
"283 29 LINE",
"290 21 LINE",
"290 680 LINE",
"283 673 LINE",
"499 673 LINE",
"491 680 LINE",
"506 552 LINE",
"521 552 LINE",
"521 692 LINE",
"39 692 LINE",
"39 552 LINE",
"54 552 LINE",
"69 680 LINE",
"61 673 LINE",
"277 673 LINE",
"270 680 LINE",
"270 21 LINE",
"277 29 LINE",
"155 15 LINE",
"155 0 LINE"
);
}
);
width = 560;
},
{
anchors = (
{
name = bottom;
position = "{311, 0}";
},
{
name = center;
position = "{311, 355}";
},
{
name = top;
position = "{311, 710}";
}
);
background = {
paths = (
{
closed = 1;
nodes = (
"128 471 LINE",
"151 565 LINE",
"3 710 LINE",
"3 471 LINE"
);
},
{
closed = 1;
nodes = (
"618 471 LINE",
"618 710 LINE",
"470 565 LINE",
"493 471 LINE"
);
},
{
closed = 1;
nodes = (
"413 125 LINE",
"413 565 LINE",
"208 565 LINE",
"208 125 LINE"
);
},
{
closed = 1;
nodes = (
"498 0 LINE",
"498 100 LINE",
"413 125 LINE",
"208 125 LINE",
"123 100 LINE",
"123 0 LINE"
);
},
{
closed = 1;
nodes = (
"470 565 LINE",
"618 710 LINE",
"3 710 LINE",
"151 565 LINE"
);
}
);
};
layerId = "927AED37-E9E6-4F96-A08E-421C3785EFC6";
paths = (
{
closed = 1;
nodes = (
"483 0 LINE",
"483 100 LINE",
"380 135 LINE",
"413 85 LINE",
"413 595 LINE",
"373 565 LINE",
"508 565 LINE",
"466 595 LINE",
"496 474 LINE",
"616 474 LINE",
"616 710 LINE",
"5 710 LINE",
"5 474 LINE",
"125 474 LINE",
"157 603 LINE",
"113 565 LINE",
"248 565 LINE",
"208 595 LINE",
"208 85 LINE",
"243 135 LINE",
"138 100 LINE",
"138 0 LINE"
);
}
);
width = 621;
}
);
leftKerningGroup = T;
rightKerningGroup = T;
unicode = 0054;
},
{
color = 1;
glyphname = Tbar;
layers = (
{
components = (
{
name = T;
}
);
layerId = "075BA79B-D813-4287-A9DD-CCAF2D535ED3";
paths = (
{
closed = 1;
nodes = (
"122 356 LINE",
"438 356 LINE",
"438 375 LINE",
"122 375 LINE"
);
}
);
width = 560;
},
{
background = {
paths = (
{
closed = 1;
nodes = (
"104 284 LINE",
"517 284 LINE",
"517 394 LINE",
"104 394 LINE"
);
},
{
closed = 1;
nodes = (
"498 0 LINE",
"498 100 LINE",
"380 135 LINE",
"413 85 LINE",
"413 595 LINE",
"373 565 LINE",
"510 565 LINE",
"463 595 LINE",
"493 471 LINE",
"618 471 LINE",
"618 710 LINE",
"3 710 LINE",
"3 471 LINE",
"128 471 LINE",
"160 603 LINE",
"111 565 LINE",
"248 565 LINE",
"208 595 LINE",
"208 85 LINE",
"243 135 LINE",
"123 100 LINE",
"123 0 LINE"
);
}
);
};
components = (
{
name = T;
}
);
layerId = "927AED37-E9E6-4F96-A08E-421C3785EFC6";
paths = (
{
closed = 1;
nodes = (
"89 279 LINE",
"532 279 LINE",
"532 394 LINE",
"89 394 LINE"
);
}
);
width = 621;
}
);
leftKerningGroup = T;
leftMetricsKey = T;
rightKerningGroup = T;
rightMetricsKey = T;
unicode = 0166;
},
{
glyphname = Tcedilla;
layers = (
{
components = (
{
name = T;
},
{
name = cedillacomb.case;
transform = "{1, 0, 0, 1, 136, 0}";
}
);
layerId = "075BA79B-D813-4287-A9DD-CCAF2D535ED3";
width = 560;
},
{
background = {
paths = (
{
closed = 1;
nodes = (
"5 474 LINE",
"125 474 LINE",
"148 565 LINE",
"208 565 LINE",
"208 123 LINE",
"138 100 LINE",
"138 0 LINE",
"242 0 LINE",
"234 -117 LINE",
"285 -119 OFFCURVE",
"340 -129 OFFCURVE",
"340 -151 CURVE SMOOTH",
"340 -166 OFFCURVE",
"325 -172 OFFCURVE",
"303 -172 CURVE SMOOTH",
"277 -172 OFFCURVE",
"241 -164 OFFCURVE",
"213 -154 CURVE",
"177 -246 LINE",
"216 -266 OFFCURVE",
"261 -275 OFFCURVE",
"304 -275 CURVE SMOOTH",
"396 -275 OFFCURVE",
"480 -232 OFFCURVE",
"480 -146 CURVE SMOOTH",
"480 -89 OFFCURVE",
"434 -49 OFFCURVE",
"357 -39 CURVE",
"357 0 LINE",
"483 0 LINE",
"483 100 LINE",
"413 124 LINE",
"413 565 LINE",
"473 565 LINE",
"496 474 LINE",
"616 474 LINE",
"616 710 LINE",
"5 710 LINE"
);
}
);
};
components = (
{
name = T;
},
{
name = cedillacomb.case;
transform = "{1, 0, 0, 1, 168, 0}";
}
);
layerId = "927AED37-E9E6-4F96-A08E-421C3785EFC6";
width = 621;
}
);
leftKerningGroup = T;
rightKerningGroup = T;
unicode = 0162;
},
{
color = 1;
glyphname = U;
layers = (
{
anchors = (
{
name = bottom;
position = "{385, 0}";
},
{
name = ogonek;
position = "{455, 0}";
},
{
name = top;
position = "{385, 692}";
},
{
name = topright;
position = "{674, 689}";
}
);
layerId = "075BA79B-D813-4287-A9DD-CCAF2D535ED3";
paths = (
{
closed = 1;
nodes = (
"504 672 LINE",
"611 664 LINE",
"604 671 LINE",
"604 254 LINE SMOOTH",
"604 101 OFFCURVE",
"557 13 OFFCURVE",
"381 13 CURVE SMOOTH",
"220 13 OFFCURVE",
"166 88 OFFCURVE",
"166 245 CURVE SMOOTH",
"166 671 LINE",
"159 663 LINE",
"266 677 LINE",
"266 692 LINE",
"46 687 LINE",
"46 672 LINE",
"153 663 LINE",
"146 671 LINE",
"146 245 LINE SMOOTH",
"146 78 OFFCURVE",
"208 -6 OFFCURVE",
"382 -6 CURVE SMOOTH",
"569 -6 OFFCURVE",
"624 90 OFFCURVE",
"624 254 CURVE SMOOTH",
"624 671 LINE",
"617 663 LINE",
"724 677 LINE",
"724 692 LINE",
"504 687 LINE"
);
}
);
width = 769;
},
{
anchors = (
{
name = bottom;
position = "{360, 0}";
},
{
name = ogonek;
position = "{479, 0}";
},
{
name = top;
position = "{367, 710}";
},
{
name = topright;
position = "{607, 707}";
}
);
background = {
paths = (
{
closed = 1;
nodes = (
"556 -15 OFFCURVE",
"664 73 OFFCURVE",
"664 285 CURVE SMOOTH",
"664 581 LINE",
"459 581 LINE",
"459 285 LINE SMOOTH",
"459 183 OFFCURVE",
"440 140 OFFCURVE",
"361 140 CURVE SMOOTH",
"285 140 OFFCURVE",
"269 180 OFFCURVE",
"269 270 CURVE SMOOTH",
"269 580 LINE",
"64 580 LINE",
"64 270 LINE SMOOTH",
"64 70 OFFCURVE",
"166 -15 OFFCURVE",
"360 -15 CURVE SMOOTH"
);
},
{
closed = 1;
nodes = (
"269 580 LINE",
"334 610 LINE",
"334 710 LINE",
"-6 705 LINE",
"-6 605 LINE",
"64 580 LINE"
);
},
{
closed = 1;
nodes = (
"664 581 LINE",
"734 610 LINE",
"734 710 LINE",
"394 705 LINE",
"394 605 LINE",
"459 581 LINE"
);
}
);
};
layerId = "927AED37-E9E6-4F96-A08E-421C3785EFC6";
paths = (
{
closed = 1;
nodes = (
"399 605 LINE",
"475 575 LINE",
"459 621 LINE",
"459 285 LINE SMOOTH",
"459 183 OFFCURVE",
"440 140 OFFCURVE",
"361 140 CURVE SMOOTH",
"285 140 OFFCURVE",
"269 180 OFFCURVE",
"269 270 CURVE SMOOTH",
"269 620 LINE",
"251 572 LINE",
"329 610 LINE",
"329 710 LINE",
"4 705 LINE",
"4 605 LINE",
"85 573 LINE",
"64 620 LINE",
"64 270 LINE SMOOTH",
"64 70 OFFCURVE",
"161 -15 OFFCURVE",
"355 -15 CURVE SMOOTH",
"551 -15 OFFCURVE",
"664 73 OFFCURVE",
"664 285 CURVE SMOOTH",
"664 621 LINE",
"643 572 LINE",
"724 610 LINE",
"724 710 LINE",
"399 705 LINE"
);
}
);
width = 728;
}
);
leftKerningGroup = U;
rightKerningGroup = U;
unicode = 0055;
},
{
glyphname = Uhookabove;
layers = (
{
components = (
{
name = U;
},
{
name = hookabovecomb.case;
transform = "{1, 0, 0, 1, 249, 0}";
}
);
layerId = "075BA79B-D813-4287-A9DD-CCAF2D535ED3";
width = 769;
},
{
background = {
anchors = (
{
name = _top;
position = "{367, 710}";
},
{
name = bottom;
position = "{360, 0}";
},
{
name = ogonek;
position = "{479, 0}";
},
{
name = top;
position = "{367, 710}";
},
{
name = topright;
position = "{607, 707}";
}
);
paths = (
{
closed = 1;
nodes = (
"399 605 LINE",
"475 575 LINE",
"459 621 LINE",
"459 285 LINE SMOOTH",
"459 183 OFFCURVE",
"440 140 OFFCURVE",
"361 140 CURVE SMOOTH",
"285 140 OFFCURVE",
"269 180 OFFCURVE",
"269 270 CURVE SMOOTH",
"269 620 LINE",
"251 572 LINE",
"329 610 LINE",
"329 710 LINE",
"4 705 LINE",
"4 605 LINE",
"85 573 LINE",
"64 620 LINE",
"64 270 LINE SMOOTH",
"64 70 OFFCURVE",
"161 -15 OFFCURVE",
"355 -15 CURVE SMOOTH",
"551 -15 OFFCURVE",
"664 73 OFFCURVE",
"664 285 CURVE SMOOTH",
"664 621 LINE",
"643 572 LINE",
"724 610 LINE",
"724 710 LINE",
"399 705 LINE"
);
},
{
closed = 1;
nodes = (
"419 756 LINE",
"419 792 LINE",
"487 806 OFFCURVE",
"515 846 OFFCURVE",
"515 897 CURVE SMOOTH",
"515 977 OFFCURVE",
"448 1012 OFFCURVE",
"365 1012 CURVE SMOOTH",
"326 1012 OFFCURVE",
"284 1004 OFFCURVE",
"243 990 CURVE",
"266 903 LINE",
"288 909 OFFCURVE",
"312 914 OFFCURVE",
"332 914 CURVE SMOOTH",
"356 914 OFFCURVE",
"374 907 OFFCURVE",
"374 887 CURVE SMOOTH",
"374 863 OFFCURVE",
"348 850 OFFCURVE",
"296 847 CURVE",
"296 756 LINE"
);
}
);
};
components = (
{
name = U;
},
{
name = hookabovecomb.case;
transform = "{1, 0, 0, 1, 237, 0}";
}
);
layerId = "927AED37-E9E6-4F96-A08E-421C3785EFC6";
width = 728;
}
);
leftKerningGroup = U;
rightKerningGroup = U;
unicode = 1EE6;
},
{
color = 1;
glyphname = Uhorn;
layers = (
{
anchors = (
{
name = bottom;
position = "{385, 0}";
},
{
name = ogonek;
position = "{455, 0}";
},
{
name = top;
position = "{385, 692}";
},
{
name = topright;
position = "{674, 689}";
}
);
layerId = "075BA79B-D813-4287-A9DD-CCAF2D535ED3";
paths = (
{
closed = 1;
nodes = (
"689 669 OFFCURVE",
"723 701 OFFCURVE",
"723 752 CURVE SMOOTH",
"723 773 OFFCURVE",
"717 796 OFFCURVE",
"707 821 CURVE",
"687 814 LINE",
"695 789 OFFCURVE",
"699 768 OFFCURVE",
"699 751 CURVE SMOOTH",
"699 711 OFFCURVE",
"677 691 OFFCURVE",
"623 690 CURVE SMOOTH",
"504 687 LINE",
"504 672 LINE",
"611 664 LINE",
"604 671 LINE",
"604 254 LINE SMOOTH",
"604 101 OFFCURVE",
"557 13 OFFCURVE",
"381 13 CURVE SMOOTH",
"220 13 OFFCURVE",
"166 88 OFFCURVE",
"166 245 CURVE SMOOTH",
"166 671 LINE",
"159 663 LINE",
"266 677 LINE",
"266 692 LINE",
"46 687 LINE",
"46 672 LINE",
"153 663 LINE",
"146 671 LINE",
"146 245 LINE SMOOTH",
"146 78 OFFCURVE",
"208 -6 OFFCURVE",
"382 -6 CURVE SMOOTH",
"569 -6 OFFCURVE",
"624 90 OFFCURVE",
"624 254 CURVE SMOOTH",
"624 680 LINE",
"618 670 LINE"
);
}
);
width = 769;
},
{
anchors = (
{
name = bottom;
position = "{360, 0}";
},
{
name = ogonek;
position = "{479, 0}";
},
{
name = top;
position = "{367, 710}";
},
{
name = topright;
position = "{607, 707}";
}
);
background = {
components = (
{
alignment = 1;
name = U;
},
{
alignment = 1;
name = horncomb.case;
transform = "{1, 0, 0, 1, 520, 0}";
}
);
};
layerId = "927AED37-E9E6-4F96-A08E-421C3785EFC6";
paths = (
{
closed = 1;
nodes = (
"714 604 OFFCURVE",
"788 665 OFFCURVE",
"788 752 CURVE SMOOTH",
"788 786 OFFCURVE",
"777 824 OFFCURVE",
"755 867 CURVE",
"613 837 LINE",
"625 806 OFFCURVE",
"632 779 OFFCURVE",
"632 759 CURVE SMOOTH",
"632 728 OFFCURVE",
"614 710 OFFCURVE",
"571 709 CURVE SMOOTH",
"399 705 LINE",
"399 605 LINE",
"475 575 LINE",
"459 621 LINE",
"459 285 LINE SMOOTH",
"459 183 OFFCURVE",
"440 140 OFFCURVE",
"361 140 CURVE SMOOTH",
"285 140 OFFCURVE",
"269 180 OFFCURVE",
"269 270 CURVE SMOOTH",
"269 620 LINE",
"251 572 LINE",
"329 610 LINE",
"329 710 LINE",
"4 705 LINE",
"4 605 LINE",
"85 573 LINE",
"64 620 LINE",
"64 270 LINE SMOOTH",
"64 70 OFFCURVE",
"161 -15 OFFCURVE",
"355 -15 CURVE SMOOTH",
"551 -15 OFFCURVE",
"664 73 OFFCURVE",
"664 285 CURVE SMOOTH",
"664 647 LINE",
"584 609 LINE"
);
}
);
width = 781;
}
);
leftKerningGroup = U;
leftMetricsKey = U;
rightKerningGroup = U;
unicode = 01AF;
},
{
glyphname = Uogonek;
layers = (
{
components = (
{
name = U;
},
{
name = ogonekcomb.case.alt;
transform = "{1, 0, 0, 1, 222, 0}";
}
);
layerId = "075BA79B-D813-4287-A9DD-CCAF2D535ED3";
width = 769;
},
{
background = {
paths = (
{
closed = 1;
nodes = (
"439 -250 OFFCURVE",
"493 -220 OFFCURVE",
"493 -220 CURVE",
"469 -127 LINE",
"469 -127 OFFCURVE",
"440 -132 OFFCURVE",
"428 -132 CURVE SMOOTH",
"411 -132 OFFCURVE",
"399 -123 OFFCURVE",
"399 -105 CURVE SMOOTH",
"399 -94 OFFCURVE",
"400 -65 OFFCURVE",
"539 12 CURVE SMOOTH",
"644 79 OFFCURVE",
"685 130 OFFCURVE",
"685 285 CURVE SMOOTH",
"685 549 LINE",
"750 589 LINE",
"750 710 LINE",
"419 705 LINE",
"419 589 LINE",
"479 549 LINE",
"479 285 LINE SMOOTH",
"479 205 OFFCURVE",
"476 146 OFFCURVE",
"389 146 CURVE SMOOTH",
"310 146 OFFCURVE",
"295 191 OFFCURVE",
"295 270 CURVE SMOOTH",
"295 549 LINE",
"355 589 LINE",
"355 710 LINE",
"24 705 LINE",
"24 589 LINE",
"89 549 LINE",
"89 270 LINE SMOOTH",
"89 65 OFFCURVE",
"198 -12 OFFCURVE",
"338 -12 CURVE",
"308 -33 OFFCURVE",
"248 -81 OFFCURVE",
"248 -145 CURVE SMOOTH",
"248 -221 OFFCURVE",
"303 -250 OFFCURVE",
"369 -250 CURVE SMOOTH"
);
}
);
};
components = (
{
name = U;
},
{
name = ogonekcomb.case.alt;
transform = "{1, 0, 0, 1, 249, 0}";
}
);
layerId = "927AED37-E9E6-4F96-A08E-421C3785EFC6";
width = 728;
}
);
leftKerningGroup = U;
leftMetricsKey = U;
rightKerningGroup = U;
rightMetricsKey = U;
unicode = 0172;
},
{
glyphname = Utildeacute;
layers = (
{
components = (
{
name = U;
},
{
alignment = 1;
name = tildecomb_acutecomb.case;
transform = "{1, 0, 0, 1, 145, 0}";
}
);
layerId = "075BA79B-D813-4287-A9DD-CCAF2D535ED3";
width = 769;
},
{
background = {
paths = (
{
closed = 1;
nodes = (
"255 789 OFFCURVE",
"269 803 OFFCURVE",
"290 803 CURVE SMOOTH",
"326 803 OFFCURVE",
"391 760 OFFCURVE",
"443 760 CURVE SMOOTH",
"503 760 OFFCURVE",
"548 802 OFFCURVE",
"577 904 CURVE",
"495 939 LINE",
"475 907 OFFCURVE",
"458 892 OFFCURVE",
"434 892 CURVE SMOOTH",
"394 892 OFFCURVE",
"333 936 OFFCURVE",
"278 936 CURVE SMOOTH",
"221 936 OFFCURVE",
"182 894 OFFCURVE",
"154 794 CURVE",
"234 758 LINE"
);
},
{
closed = 1;
nodes = (
"526 1039 LINE",
"459 1182 LINE",
"202 1043 LINE",
"244 948 LINE"
);
}
);
};
components = (
{
name = U;
},
{
alignment = 1;
name = tildecomb_acutecomb.case;
transform = "{1, 0, 0, 1, 124, 0}";
}
);
layerId = "927AED37-E9E6-4F96-A08E-421C3785EFC6";
width = 728;
}
);
leftKerningGroup = U;
rightKerningGroup = U;
unicode = 1E78;
},
{
color = 1;
glyphname = V;
layers = (
{
anchors = (
{
name = bottom;
position = "{346, 0}";
},
{
name = top;
position = "{346, 692}";
}
);
layerId = "075BA79B-D813-4287-A9DD-CCAF2D535ED3";
paths = (
{
closed = 1;
nodes = (
"351 -2 LINE",
"586 670 LINE",
"577 663 LINE",
"679 677 LINE",
"679 692 LINE",
"447 687 LINE",
"447 672 LINE",
"569 664 LINE",
"566 670 LINE",
"339 19 LINE",
"344 19 LINE",
"128 670 LINE",
"125 663 LINE",
"247 677 LINE",
"247 692 LINE",
"14 687 LINE",
"14 672 LINE",
"116 663 LINE",
"107 670 LINE",
"331 -2 LINE"
);
}
);
width = 692;
},
{
anchors = (
{
name = bottom;
position = "{348, 0}";
},
{
name = top;
position = "{368, 710}";
}
);
layerId = "927AED37-E9E6-4F96-A08E-421C3785EFC6";
paths = (
{
closed = 1;
nodes = (
"453 0 LINE",
"670 610 LINE",
"625 576 LINE",
"705 610 LINE",
"705 710 LINE",
"425 705 LINE",
"425 605 LINE",
"501 572 LINE",
"485 611 LINE",
"348 177 LINE",
"376 177 LINE",
"255 624 LINE",
"231 575 LINE",
"316 610 LINE",
"316 710 LINE",
"-6 705 LINE",
"-6 605 LINE",
"75 571 LINE",
"29 605 LINE",
"235 0 LINE"
);
}
);
width = 696;
}
);
leftKerningGroup = V;
rightKerningGroup = V;
unicode = 0056;
},
{
color = 1;
glyphname = W;
layers = (
{
anchors = (
{
name = bottom;
position = "{521, 0}";
},
{
name = top;
position = "{528, 691}";
}
);
layerId = "075BA79B-D813-4287-A9DD-CCAF2D535ED3";
paths = (
{
closed = 1;
nodes = (
"799 672 LINE",
"921 664 LINE",
"916 670 LINE",
"732 24 LINE",
"736 24 LINE",
"533 692 LINE",
"514 689 LINE",
"300 22 LINE",
"304 21 LINE",
"131 671 LINE",
"126 663 LINE",
"249 677 LINE",
"249 692 LINE",
"15 687 LINE",
"15 672 LINE",
"119 663 LINE",
"110 671 LINE",
"289 -2 LINE",
"312 -2 LINE",
"525 662 LINE",
"521 662 LINE",
"723 -2 LINE",
"744 -2 LINE",
"936 670 LINE",
"927 663 LINE",
"1028 677 LINE",
"1028 692 LINE",
"799 687 LINE"
);
}
);
width = 1042;
},
{
anchors = (
{
name = bottom;
position = "{484, 0}";
},
{
name = top;
position = "{505, 710}";
}
);
background = {
paths = (
{
closed = 1;
nodes = (
"747 0 LINE",
"964 610 LINE",
"919 576 LINE",
"996 610 LINE",
"996 710 LINE",
"716 705 LINE",
"716 605 LINE",
"795 572 LINE",
"779 611 LINE",
"645 177 LINE",
"668 177 LINE",
"549 624 LINE",
"525 575 LINE",
"608 610 LINE",
"608 710 LINE",
"288 705 LINE",
"288 605 LINE",
"369 571 LINE",
"323 605 LINE",
"529 0 LINE"
);
}
);
};
layerId = "927AED37-E9E6-4F96-A08E-421C3785EFC6";
paths = (
{
closed = 1;
nodes = (
"719 605 LINE",
"795 575 LINE",
"774 611 LINE",
"678 183 LINE",
"720 184 LINE",
"594 710 LINE",
"406 705 LINE",
"286 182 LINE",
"328 182 LINE",
"233 611 LINE",
"212 575 LINE",
"286 610 LINE",
"286 710 LINE",
"-11 705 LINE",
"-11 605 LINE",
"48 580 LINE",
"24 611 LINE",
"195 0 LINE",
"385 0 LINE",
"504 465 LINE",
"482 466 LINE",
"589 0 LINE",
"782 0 LINE",
"958 629 LINE",
"913 577 LINE",
"994 610 LINE",
"994 710 LINE",
"719 705 LINE"
);
}
);
width = 982;
}
);
leftKerningGroup = W;
rightKerningGroup = W;
unicode = 0057;
},
{
color = 1;
glyphname = X;
layers = (
{
layerId = "075BA79B-D813-4287-A9DD-CCAF2D535ED3";
paths = (
{
closed = 1;
nodes = (
"348 368 LINE",
"348 356 LINE",
"554 670 LINE",
"543 663 LINE",
"645 677 LINE",
"645 692 LINE",
"424 687 LINE",
"424 672 LINE",
"537 663 LINE",
"534 670 LINE",
"338 371 LINE",
"346 371 LINE",
"154 670 LINE",
"151 663 LINE",
"263 677 LINE",
"263 692 LINE",
"42 687 LINE",
"42 672 LINE",
"143 663 LINE",
"132 670 LINE",
"337 352 LINE",
"337 364 LINE",
"117 21 LINE",
"128 28 LINE",
"27 15 LINE",
"27 0 LINE",
"253 0 LINE",
"253 15 LINE",
"134 28 LINE",
"137 21 LINE",
"347 348 LINE",
"339 348 LINE",
"549 21 LINE",
"552 28 LINE",
"434 15 LINE",
"434 0 LINE",
"660 0 LINE",
"660 15 LINE",
"560 28 LINE",
"571 21 LINE"
);
}
);
width = 687;
},
{
background = {
paths = (
{
closed = 1;
nodes = (
"463 387 LINE",
"454 339 LINE",
"674 610 LINE",
"621 568 LINE",
"692 610 LINE",
"692 710 LINE",
"426 705 LINE",
"426 605 LINE",
"491 573 LINE",
"481 604 LINE",
"364 449 LINE",
"403 448 LINE",
"280 604 LINE",
"273 577 LINE",
"334 610 LINE",
"334 710 LINE",
"11 705 LINE",
"11 605 LINE",
"77 581 LINE",
"33 610 LINE",
"248 334 LINE",
"253 373 LINE",
"17 89 LINE",
"76 134 LINE",
"4 100 LINE",
"4 0 LINE",
"273 0 LINE",
"273 100 LINE",
"202 135 LINE",
"211 92 LINE",
"355 275 LINE",
"307 274 LINE",
"446 100 LINE",
"439 133 LINE",
"374 100 LINE",
"374 0 LINE",
"703 0 LINE",
"703 100 LINE",
"630 133 LINE",
"694 91 LINE"
);
}
);
};
layerId = "927AED37-E9E6-4F96-A08E-421C3785EFC6";
paths = (
{
closed = 1;
nodes = (
"463 387 LINE",
"454 339 LINE",
"668 610 LINE",
"621 568 LINE",
"692 610 LINE",
"692 710 LINE",
"426 705 LINE",
"426 605 LINE",
"491 576 LINE",
"481 604 LINE",
"364 449 LINE",
"403 448 LINE",
"280 604 LINE",
"273 580 LINE",
"334 610 LINE",
"334 710 LINE",
"11 705 LINE",
"11 605 LINE",
"77 581 LINE",
"33 610 LINE",
"248 334 LINE",
"253 373 LINE",
"24 89 LINE",
"76 134 LINE",
"4 100 LINE",
"4 0 LINE",
"273 0 LINE",
"273 100 LINE",
"202 135 LINE",
"211 92 LINE",
"355 275 LINE",
"307 274 LINE",
"446 100 LINE",
"439 130 LINE",
"374 100 LINE",
"374 0 LINE",
"703 0 LINE",
"703 100 LINE",
"630 133 LINE",
"688 91 LINE"
);
}
);
width = 706;
}
);
leftKerningGroup = X;
rightKerningGroup = X;
unicode = 0058;
},
{
color = 1;
glyphname = Y;
layers = (
{
anchors = (
{
name = bottom;
position = "{325, 0}";
},
{
name = top;
position = "{325, 692}";
},
{
name = topleft;
position = "{20, 692}";
}
);
layerId = "075BA79B-D813-4287-A9DD-CCAF2D535ED3";
paths = (
{
closed = 1;
nodes = (
"435 0 LINE",
"435 15 LINE",
"328 29 LINE",
"335 21 LINE",
"335 268 LINE",
"331 251 LINE",
"546 670 LINE",
"536 663 LINE",
"638 677 LINE",
"638 692 LINE",
"406 687 LINE",
"406 672 LINE",
"530 664 LINE",
"526 670 LINE",
"323 275 LINE",
"329 275 LINE",
"127 670 LINE",
"123 663 LINE",
"248 677 LINE",
"248 692 LINE",
"13 687 LINE",
"13 672 LINE",
"116 663 LINE",
"106 670 LINE",
"319 251 LINE",
"315 268 LINE",
"315 21 LINE",
"322 29 LINE",
"215 15 LINE",
"215 0 LINE"
);
}
);
width = 650;
},
{
anchors = (
{
name = bottom;
position = "{307, 0}";
},
{
name = top;
position = "{313, 710}";
},
{
name = topleft;
position = "{20, 710}";
}
);
background = {
paths = (
{
closed = 1;
nodes = (
"470 0 LINE",
"470 100 LINE",
"379 135 LINE",
"406 95 LINE",
"406 288 LINE",
"392 223 LINE",
"600 609 LINE",
"564 580 LINE",
"623 610 LINE",
"623 710 LINE",
"359 705 LINE",
"359 605 LINE",
"434 571 LINE",
"420 605 LINE",
"302 361 LINE",
"335 361 LINE",
"220 614 LINE",
"210 580 LINE",
"281 610 LINE",
"281 710 LINE",
"-9 705 LINE",
"-9 605 LINE",
"48 573 LINE",
"13 603 LINE",
"218 223 LINE",
"201 288 LINE",
"201 95 LINE",
"227 135 LINE",
"136 100 LINE",
"136 0 LINE"
);
}
);
};
layerId = "927AED37-E9E6-4F96-A08E-421C3785EFC6";
paths = (
{
closed = 1;
nodes = (
"470 0 LINE",
"470 100 LINE",
"379 135 LINE",
"406 95 LINE",
"406 281 LINE",
"392 216 LINE",
"600 609 LINE",
"564 580 LINE",
"623 610 LINE",
"623 710 LINE",
"359 705 LINE",
"359 605 LINE",
"434 571 LINE",
"420 605 LINE",
"302 354 LINE",
"335 354 LINE",
"220 614 LINE",
"210 580 LINE",
"281 610 LINE",
"281 710 LINE",
"-9 705 LINE",
"-9 605 LINE",
"48 573 LINE",
"13 603 LINE",
"218 216 LINE",
"201 281 LINE",
"201 95 LINE",
"227 135 LINE",
"136 100 LINE",
"136 0 LINE"
);
}
);
width = 614;
}
);
leftKerningGroup = Y;
rightKerningGroup = Y;
unicode = 0059;
},
{
color = 1;
glyphname = Z;
layers = (
{
anchors = (
{
name = bottom;
position = "{298, 0}";
},
{
name = top;
position = "{302, 692}";
}
);
layerId = "075BA79B-D813-4287-A9DD-CCAF2D535ED3";
paths = (
{
closed = 1;
nodes = (
"530 0 LINE",
"534 137 LINE",
"519 137 LINE",
"500 13 LINE",
"512 20 LINE",
"81 20 LINE",
"84 14 LINE",
"531 676 LINE",
"531 692 LINE",
"84 692 LINE",
"84 556 LINE",
"99 556 LINE",
"115 679 LINE",
"106 672 LINE",
"511 672 LINE",
"508 678 LINE",
"59 16 LINE",
"59 0 LINE"
);
}
);
width = 603;
},
{
anchors = (
{
name = bottom;
position = "{303, 0}";
},
{
name = top;
position = "{303, 710}";
}
);
background = {
paths = (
{
closed = 1;
nodes = (
"579 0 LINE",
"446 150 LINE",
"263 150 LINE",
"16 135 LINE",
"16 0 LINE"
);
},
{
closed = 1;
nodes = (
"579 221 LINE",
"460 221 LINE",
"446 150 LINE",
"579 0 LINE"
);
},
{
closed = 1;
nodes = (
"263 150 LINE",
"576 576 LINE",
"335 560 LINE",
"16 135 LINE"
);
},
{
closed = 1;
nodes = (
"149 489 LINE",
"170 560 LINE",
"38 710 LINE",
"38 489 LINE"
);
},
{
closed = 1;
nodes = (
"335 560 LINE",
"576 576 LINE",
"576 710 LINE",
"38 710 LINE",
"170 560 LINE"
);
}
);
};
layerId = "927AED37-E9E6-4F96-A08E-421C3785EFC6";
paths = (
{
closed = 1;
nodes = (
"579 0 LINE",
"579 221 LINE",
"457 221 LINE",
"437 120 LINE",
"476 147 LINE",
"233 147 LINE",
"239 117 LINE",
"576 576 LINE",
"576 710 LINE",
"38 710 LINE",
"38 489 LINE",
"158 489 LINE",
"185 583 LINE",
"140 563 LINE",
"375 563 LINE",
"354 585 LINE",
"16 135 LINE",
"16 0 LINE"
);
}
);
width = 603;
}
);
leftKerningGroup = Z;
rightKerningGroup = Z;
unicode = 005A;
},
{
color = 3;
glyphname = a;
layers = (
{
anchors = (
{
name = bottom;
position = "{263, 0}";
},
{
name = ogonek;
position = "{504, 2}";
},
{
name = top;
position = "{255, 522}";
}
);
layerId = "075BA79B-D813-4287-A9DD-CCAF2D535ED3";
paths = (
{
closed = 1;
nodes = (
"414 394 LINE SMOOTH",
"414 490 OFFCURVE",
"353 528 OFFCURVE",
"263 528 CURVE SMOOTH",
"211 528 OFFCURVE",
"150 515 OFFCURVE",
"88 491 CURVE",
"96 392 LINE",
"113 392 LINE",
"120 490 LINE",
"113 479 LINE",
"166 499 OFFCURVE",
"218 509 OFFCURVE",
"262 509 CURVE SMOOTH",
"342 509 OFFCURVE",
"394 475 OFFCURVE",
"394 391 CURVE SMOOTH",
"394 268 LINE",
"401 275 LINE",
"243 275 LINE SMOOTH",
"144 275 OFFCURVE",
"65 254 OFFCURVE",
"65 136 CURVE SMOOTH",
"65 40 OFFCURVE",
"117 -6 OFFCURVE",
"193 -6 CURVE SMOOTH",
"261 -6 OFFCURVE",
"337 30 OFFCURVE",
"399 91 CURVE",
"395 94 LINE",
"399 -2 LINE",
"504 2 LINE",
"504 17 LINE",
"407 27 LINE",
"414 19 LINE"
);
},
{
closed = 1;
nodes = (
"86 227 OFFCURVE",
"132 256 OFFCURVE",
"245 256 CURVE SMOOTH",
"401 256 LINE",
"394 263 LINE",
"394 99 LINE",
"399 110 LINE",
"332 48 OFFCURVE",
"256 13 OFFCURVE",
"196 13 CURVE SMOOTH",
"132 13 OFFCURVE",
"86 53 OFFCURVE",
"86 140 CURVE SMOOTH"
);
}
);
width = 534;
},
{
anchors = (
{
name = bottom;
position = "{286, 0}";
},
{
name = ogonek;
position = "{571, 0}";
},
{
name = top;
position = "{286, 540}";
}
);
background = {
paths = (
{
closed = 1;
nodes = (
"243 0 LINE",
"243 100 LINE",
"182 126 LINE",
"198 99 LINE",
"198 394 LINE",
"186 366 LINE",
"216 392 OFFCURVE",
"247 405 OFFCURVE",
"271 405 CURVE SMOOTH",
"299 405 OFFCURVE",
"318 387 OFFCURVE",
"318 350 CURVE SMOOTH",
"318 99 LINE",
"339 127 LINE",
"273 100 LINE",
"273 0 LINE",
"563 0 LINE",
"563 100 LINE",
"502 129 LINE",
"518 103 LINE",
"518 388 LINE SMOOTH",
"518 492 OFFCURVE",
"449 555 OFFCURVE",
"361 555 CURVE SMOOTH",
"298 555 OFFCURVE",
"224 524 OFFCURVE",
"160 461 CURVE",
"178 453 LINE",
"154 546 LINE",
"-57 536 LINE",
"-57 436 LINE",
"20 406 LINE",
"-2 436 LINE",
"-2 103 LINE",
"20 130 LINE",
"-57 100 LINE",
"-57 0 LINE"
);
}
);
};
layerId = "927AED37-E9E6-4F96-A08E-421C3785EFC6";
paths = (
{
closed = 1;
nodes = (
"516 376 LINE SMOOTH",
"516 497 OFFCURVE",
"447 555 OFFCURVE",
"304 555 CURVE SMOOTH",
"235 555 OFFCURVE",
"149 542 OFFCURVE",
"45 515 CURVE",
"53 351 LINE",
"173 351 LINE",
"189 419 LINE",
"174 401 LINE",
"202 407 OFFCURVE",
"228 410 OFFCURVE",
"248 410 CURVE SMOOTH",
"296 410 OFFCURVE",
"316 390 OFFCURVE",
"316 339 CURVE SMOOTH",
"316 303 LINE",
"326 313 LINE",
"238 313 LINE SMOOTH",
"84 313 OFFCURVE",
"14 263 OFFCURVE",
"14 154 CURVE SMOOTH",
"14 51 OFFCURVE",
"76 -15 OFFCURVE",
"173 -15 CURVE SMOOTH",
"243 -15 OFFCURVE",
"302 18 OFFCURVE",
"347 81 CURVE",
"335 84 LINE",
"360 -10 LINE",
"571 0 LINE",
"571 100 LINE",
"490 136 LINE",
"516 97 LINE"
);
},
{
closed = 1;
nodes = (
"214 211 OFFCURVE",
"229 223 OFFCURVE",
"271 223 CURVE SMOOTH",
"327 223 LINE",
"316 234 LINE",
"316 135 LINE",
"322 151 LINE",
"301 135 OFFCURVE",
"274 125 OFFCURVE",
"255 125 CURVE SMOOTH",
"229 125 OFFCURVE",
"214 144 OFFCURVE",
"214 177 CURVE SMOOTH"
);
}
);
width = 573;
},
{
anchors = (
{
name = bottom;
position = "{273, 0}";
},
{
name = ogonek;
position = "{534, 1}";
},
{
name = top;
position = "{269, 530}";
}
);
associatedMasterId = "075BA79B-D813-4287-A9DD-CCAF2D535ED3";
background = {
paths = (
{
closed = 1;
nodes = (
"459 386 LINE SMOOTH",
"459 493 OFFCURVE",
"394 540 OFFCURVE",
"282 540 CURVE SMOOTH",
"223 540 OFFCURVE",
"155 527 OFFCURVE",
"74 502 CURVE",
"82 374 LINE",
"145 374 LINE",
"156 458 LINE",
"145 444 LINE",
"187 458 OFFCURVE",
"224 465 OFFCURVE",
"257 465 CURVE SMOOTH",
"321 465 OFFCURVE",
"359 437 OFFCURVE",
"359 368 CURVE SMOOTH",
"359 282 LINE",
"368 293 LINE",
"246 293 LINE SMOOTH",
"124 293 OFFCURVE",
"45 257 OFFCURVE",
"45 142 CURVE SMOOTH",
"45 44 OFFCURVE",
"104 -10 OFFCURVE",
"188 -10 CURVE SMOOTH",
"254 -10 OFFCURVE",
"320 23 OFFCURVE",
"376 87 CURVE",
"368 90 LINE",
"382 -6 LINE",
"534 1 LINE",
"534 54 LINE",
"444 75 LINE",
"459 54 LINE"
);
},
{
closed = 1;
nodes = (
"146 206 OFFCURVE",
"174 233 OFFCURVE",
"262 233 CURVE SMOOTH",
"368 233 LINE",
"359 241 LINE",
"359 115 LINE",
"365 139 LINE",
"319 94 OFFCURVE",
"264 63 OFFCURVE",
"222 63 CURVE SMOOTH",
"178 63 OFFCURVE",
"146 91 OFFCURVE",
"146 154 CURVE SMOOTH"
);
}
);
};
layerId = "91C4189D-5999-4309-A290-3D294E67BEB4";
name = "Intermediate {100, 100}";
paths = (
{
closed = 1;
nodes = (
"459 386 LINE SMOOTH",
"459 493 OFFCURVE",
"394 540 OFFCURVE",
"282 540 CURVE SMOOTH",
"223 540 OFFCURVE",
"155 527 OFFCURVE",
"74 502 CURVE",
"82 374 LINE",
"145 374 LINE",
"156 458 LINE",
"145 444 LINE",
"187 458 OFFCURVE",
"224 465 OFFCURVE",
"257 465 CURVE SMOOTH",
"321 465 OFFCURVE",
"359 437 OFFCURVE",
"359 368 CURVE SMOOTH",
"359 282 LINE",
"368 293 LINE",
"246 293 LINE SMOOTH",
"124 293 OFFCURVE",
"45 257 OFFCURVE",
"45 142 CURVE SMOOTH",
"45 41 OFFCURVE",
"108 -10 OFFCURVE",
"186 -10 CURVE SMOOTH",
"248 -10 OFFCURVE",
"319 22 OFFCURVE",
"376 87 CURVE",
"368 90 LINE",
"382 -6 LINE",
"534 1 LINE",
"534 54 LINE",
"444 75 LINE",
"459 54 LINE"
);
},
{
closed = 1;
nodes = (
"146 204 OFFCURVE",
"174 231 OFFCURVE",
"262 231 CURVE SMOOTH",
"368 231 LINE",
"359 239 LINE",
"359 115 LINE",
"365 137 LINE",
"317 90 OFFCURVE",
"263 63 OFFCURVE",
"220 63 CURVE SMOOTH",
"177 63 OFFCURVE",
"146 90 OFFCURVE",
"146 154 CURVE SMOOTH"
);
}
);
width = 551;
}
);
leftKerningGroup = a;
rightKerningGroup = n;
unicode = 0061;
},
{
color = 3;
glyphname = ae;
layers = (
{
anchors = (
{
name = bottom;
position = "{441, 0}";
},
{
name = top;
position = "{441, 522}";
}
);
guideLines = (
{
position = "{538, 264}";
},
{
position = "{538, 283}";
}
);
layerId = "075BA79B-D813-4287-A9DD-CCAF2D535ED3";
paths = (
{
closed = 1;
nodes = (
"275 -6 OFFCURVE",
"350 37 OFFCURVE",
"429 112 CURVE",
"421 114 LINE",
"456 36 OFFCURVE",
"525 -6 OFFCURVE",
"607 -6 CURVE SMOOTH",
"669 -6 OFFCURVE",
"739 18 OFFCURVE",
"810 67 CURVE",
"799 83 LINE",
"733 36 OFFCURVE",
"668 14 OFFCURVE",
"611 14 CURVE SMOOTH",
"497 14 OFFCURVE",
"415 99 OFFCURVE",
"415 256 CURVE SMOOTH",
"415 273 LINE",
"406 264 LINE",
"808 264 LINE",
"809 276 OFFCURVE",
"809 278 OFFCURVE",
"809 296 CURVE SMOOTH",
"809 431 OFFCURVE",
"750 528 OFFCURVE",
"619 528 CURVE SMOOTH",
"518 528 OFFCURVE",
"444 469 OFFCURVE",
"412 374 CURVE",
"414 371 LINE",
"414 394 LINE SMOOTH",
"414 490 OFFCURVE",
"353 528 OFFCURVE",
"263 528 CURVE SMOOTH",
"211 528 OFFCURVE",
"150 515 OFFCURVE",
"88 491 CURVE",
"96 392 LINE",
"113 392 LINE",
"120 490 LINE",
"113 479 LINE",
"166 499 OFFCURVE",
"218 509 OFFCURVE",
"262 509 CURVE SMOOTH",
"342 509 OFFCURVE",
"394 475 OFFCURVE",
"394 391 CURVE SMOOTH",
"394 274 LINE",
"403 283 LINE",
"244 283 LINE SMOOTH",
"150 283 OFFCURVE",
"65 263 OFFCURVE",
"65 137 CURVE SMOOTH",
"65 41 OFFCURVE",
"115 -6 OFFCURVE",
"196 -6 CURVE SMOOTH"
);
},
{
closed = 1;
nodes = (
"133 13 OFFCURVE",
"86 51 OFFCURVE",
"86 140 CURVE SMOOTH",
"86 225 OFFCURVE",
"128 264 OFFCURVE",
"246 264 CURVE SMOOTH",
"403 264 LINE",
"394 273 LINE",
"394 211 OFFCURVE",
"400 162 OFFCURVE",
"418 120 CURVE",
"422 132 LINE",
"342 53 OFFCURVE",
"269 13 OFFCURVE",
"198 13 CURVE SMOOTH"
);
},
{
closed = 1;
nodes = (
"421 417 OFFCURVE",
"497 509 OFFCURVE",
"618 509 CURVE SMOOTH",
"747 509 OFFCURVE",
"790 405 OFFCURVE",
"788 276 CURVE",
"797 283 LINE",
"407 283 LINE",
"416 276 LINE"
);
}
);
width = 882;
},
{
anchors = (
{
name = bottom;
position = "{420, 0}";
},
{
name = top;
position = "{420, 540}";
}
);
background = {
paths = (
{
closed = 1;
nodes = (
"446 376 LINE",
"446 497 OFFCURVE",
"447 555 OFFCURVE",
"304 555 CURVE SMOOTH",
"235 555 OFFCURVE",
"149 542 OFFCURVE",
"45 515 CURVE",
"53 351 LINE",
"173 351 LINE",
"189 419 LINE",
"174 401 LINE",
"202 407 OFFCURVE",
"228 410 OFFCURVE",
"248 410 CURVE SMOOTH",
"296 410 OFFCURVE",
"316 390 OFFCURVE",
"316 339 CURVE SMOOTH",
"316 303 LINE",
"326 313 LINE",
"238 313 LINE SMOOTH",
"84 313 OFFCURVE",
"14 263 OFFCURVE",
"14 154 CURVE SMOOTH",
"14 51 OFFCURVE",
"76 -15 OFFCURVE",
"173 -15 CURVE SMOOTH",
"243 -15 OFFCURVE",
"302 18 OFFCURVE",
"347 81 CURVE",
"335 84 LINE",
"360 -10 LINE",
"446 0 LINE"
);
},
{
closed = 1;
nodes = (
"214 211 OFFCURVE",
"229 223 OFFCURVE",
"271 223 CURVE SMOOTH",
"327 223 LINE",
"316 234 LINE",
"316 136 LINE",
"322 150 LINE",
"301 135 OFFCURVE",
"274 125 OFFCURVE",
"255 125 CURVE SMOOTH",
"229 125 OFFCURVE",
"214 144 OFFCURVE",
"214 177 CURVE SMOOTH"
);
},
{
closed = 1;
nodes = (
"651 -15 OFFCURVE",
"738 12 OFFCURVE",
"819 68 CURVE",
"754 171 LINE",
"702 144 OFFCURVE",
"653 130 OFFCURVE",
"615 130 CURVE SMOOTH",
"526 130 OFFCURVE",
"513 205 OFFCURVE",
"513 290 CURVE SMOOTH",
"513 352 OFFCURVE",
"520 415 OFFCURVE",
"573 415 CURVE SMOOTH",
"610 415 OFFCURVE",
"622 386 OFFCURVE",
"622 325 CURVE",
"473 325 LINE",
"473 220 LINE",
"819 223 LINE",
"825 253 OFFCURVE",
"828 283 OFFCURVE",
"828 312 CURVE SMOOTH",
"828 449 OFFCURVE",
"760 555 OFFCURVE",
"590 555 CURVE SMOOTH",
"416 555 OFFCURVE",
"308 444 OFFCURVE",
"308 259 CURVE SMOOTH",
"308 79 OFFCURVE",
"410 -15 OFFCURVE",
"567 -15 CURVE SMOOTH"
);
}
);
};
guideLines = (
{
position = "{415, 221}";
},
{
position = "{415, 316}";
}
);
layerId = "927AED37-E9E6-4F96-A08E-421C3785EFC6";
paths = (
{
closed = 1;
nodes = (
"240 -15 OFFCURVE",
"317 23 OFFCURVE",
"367 105 CURVE",
"362 105 LINE",
"397 30 OFFCURVE",
"469 -15 OFFCURVE",
"568 -15 CURVE SMOOTH",
"649 -15 OFFCURVE",
"736 12 OFFCURVE",
"817 68 CURVE",
"752 172 LINE",
"700 145 OFFCURVE",
"651 131 OFFCURVE",
"616 131 CURVE SMOOTH",
"545 131 OFFCURVE",
"522 185 OFFCURVE",
"518 229 CURVE SMOOTH",
"517 241 LINE",
"507 221 LINE",
"817 221 LINE",
"823 251 OFFCURVE",
"826 283 OFFCURVE",
"826 311 CURVE SMOOTH",
"826 449 OFFCURVE",
"755 555 OFFCURVE",
"595 555 CURVE SMOOTH",
"527 555 OFFCURVE",
"470 531 OFFCURVE",
"430 496 CURVE",
"438 494 LINE",
"435 500 LINE SMOOTH",
"418 534 OFFCURVE",
"389 555 OFFCURVE",
"304 555 CURVE SMOOTH",
"231 555 OFFCURVE",
"148 542 OFFCURVE",
"45 515 CURVE",
"53 351 LINE",
"173 351 LINE",
"189 419 LINE",
"174 401 LINE",
"203 407 OFFCURVE",
"228 410 OFFCURVE",
"248 410 CURVE SMOOTH",
"294 410 OFFCURVE",
"316 391 OFFCURVE",
"316 339 CURVE SMOOTH",
"316 303 LINE",
"326 316 LINE",
"232 316 LINE SMOOTH",
"89 316 OFFCURVE",
"14 267 OFFCURVE",
"14 151 CURVE SMOOTH",
"14 42 OFFCURVE",
"87 -15 OFFCURVE",
"171 -15 CURVE SMOOTH"
);
},
{
closed = 1;
nodes = (
"231 125 OFFCURVE",
"214 140 OFFCURVE",
"214 177 CURVE SMOOTH",
"214 214 OFFCURVE",
"234 221 OFFCURVE",
"275 221 CURVE SMOOTH",
"326 221 LINE",
"316 233 LINE",
"316 201 OFFCURVE",
"316 170 OFFCURVE",
"316 138 CURVE",
"324 151 LINE",
"300 135 OFFCURVE",
"275 125 OFFCURVE",
"255 125 CURVE SMOOTH"
);
},
{
closed = 1;
nodes = (
"515 364 OFFCURVE",
"525 415 OFFCURVE",
"574 415 CURVE SMOOTH",
"620 415 OFFCURVE",
"620 365 OFFCURVE",
"620 307 CURVE",
"630 316 LINE",
"503 316 LINE",
"515 298 LINE"
);
}
);
width = 840;
},
{
anchors = (
{
name = bottom;
position = "{435, 0}";
},
{
name = top;
position = "{435, 530}";
}
);
associatedMasterId = "927AED37-E9E6-4F96-A08E-421C3785EFC6";
background = {
paths = (
{
closed = 1;
nodes = (
"658 -10 OFFCURVE",
"736 15 OFFCURVE",
"811 67 CURVE",
"776 122 LINE",
"716 84 OFFCURVE",
"658 66 OFFCURVE",
"610 66 CURVE SMOOTH",
"507 66 OFFCURVE",
"461 146 OFFCURVE",
"461 271 CURVE SMOOTH",
"461 383 OFFCURVE",
"501 467 OFFCURVE",
"594 467 CURVE SMOOTH",
"682 467 OFFCURVE",
"711 397 OFFCURVE",
"711 321 CURVE",
"431 321 LINE",
"431 252 LINE",
"810 252 LINE",
"813 274 OFFCURVE",
"814 291 OFFCURVE",
"814 308 CURVE SMOOTH",
"814 442 OFFCURVE",
"748 540 OFFCURVE",
"603 540 CURVE SMOOTH",
"450 540 OFFCURVE",
"358 431 OFFCURVE",
"358 256 CURVE SMOOTH",
"358 83 OFFCURVE",
"448 -10 OFFCURVE",
"586 -10 CURVE SMOOTH"
);
},
{
closed = 1;
nodes = (
"317 90 OFFCURVE",
"263 63 OFFCURVE",
"220 63 CURVE SMOOTH",
"177 63 OFFCURVE",
"146 90 OFFCURVE",
"146 154 CURVE SMOOTH",
"146 204 OFFCURVE",
"174 231 OFFCURVE",
"262 231 CURVE SMOOTH",
"368 231 LINE",
"359 239 LINE",
"359 115 LINE",
"365 137 LINE"
);
},
{
closed = 1;
nodes = (
"459 493 OFFCURVE",
"394 540 OFFCURVE",
"282 540 CURVE SMOOTH",
"223 540 OFFCURVE",
"155 527 OFFCURVE",
"74 502 CURVE",
"82 374 LINE",
"145 374 LINE",
"156 458 LINE",
"145 444 LINE",
"187 458 OFFCURVE",
"224 465 OFFCURVE",
"257 465 CURVE SMOOTH",
"321 465 OFFCURVE",
"359 437 OFFCURVE",
"359 368 CURVE SMOOTH",
"359 282 LINE",
"368 293 LINE",
"246 293 LINE SMOOTH",
"124 293 OFFCURVE",
"45 257 OFFCURVE",
"45 142 CURVE SMOOTH",
"45 41 OFFCURVE",
"108 -10 OFFCURVE",
"186 -10 CURVE SMOOTH",
"248 -10 OFFCURVE",
"319 22 OFFCURVE",
"376 87 CURVE",
"459 386 LINE"
);
}
);
};
layerId = "92EDF895-E126-4ABF-B7CC-6999C974753A";
name = "Intermediate {100, 100}";
paths = (
{
closed = 1;
nodes = (
"258 -10 OFFCURVE",
"343 30 OFFCURVE",
"409 109 CURVE",
"398 110 LINE",
"433 33 OFFCURVE",
"503 -10 OFFCURVE",
"593 -10 CURVE SMOOTH",
"663 -10 OFFCURVE",
"741 15 OFFCURVE",
"816 67 CURVE",
"781 123 LINE",
"721 84 OFFCURVE",
"663 66 OFFCURVE",
"616 66 CURVE SMOOTH",
"521 66 OFFCURVE",
"466 137 OFFCURVE",
"464 244 CURVE SMOOTH",
"463 259 LINE",
"454 243 LINE",
"815 243 LINE",
"818 263 OFFCURVE",
"820 280 OFFCURVE",
"820 303 CURVE SMOOTH",
"820 439 OFFCURVE",
"755 540 OFFCURVE",
"611 540 CURVE SMOOTH",
"525 540 OFFCURVE",
"459 497 OFFCURVE",
"423 428 CURVE",
"428 426 LINE",
"426 441 LINE SMOOTH",
"419 510 OFFCURVE",
"372 540 OFFCURVE",
"284 540 CURVE SMOOTH",
"223 540 OFFCURVE",
"152 527 OFFCURVE",
"72 502 CURVE",
"80 374 LINE",
"143 374 LINE",
"154 458 LINE",
"143 444 LINE",
"185 458 OFFCURVE",
"225 465 OFFCURVE",
"259 465 CURVE SMOOTH",
"324 465 OFFCURVE",
"362 438 OFFCURVE",
"362 368 CURVE SMOOTH",
"362 287 LINE",
"372 305 LINE",
"242 305 LINE SMOOTH",
"126 305 OFFCURVE",
"45 265 OFFCURVE",
"45 143 CURVE SMOOTH",
"45 40 OFFCURVE",
"107 -10 OFFCURVE",
"186 -10 CURVE SMOOTH"
);
},
{
closed = 1;
nodes = (
"177 63 OFFCURVE",
"146 91 OFFCURVE",
"146 156 CURVE SMOOTH",
"146 220 OFFCURVE",
"178 243 OFFCURVE",
"262 243 CURVE SMOOTH",
"372 243 LINE",
"362 255 LINE",
"362 207 OFFCURVE",
"366 166 OFFCURVE",
"376 128 CURVE",
"381 151 LINE",
"329 96 OFFCURVE",
"268 63 OFFCURVE",
"221 63 CURVE SMOOTH"
);
},
{
closed = 1;
nodes = (
"466 393 OFFCURVE",
"512 467 OFFCURVE",
"601 467 CURVE SMOOTH",
"694 467 OFFCURVE",
"717 387 OFFCURVE",
"716 290 CURVE",
"726 306 LINE",
"453 306 LINE",
"463 286 LINE"
);
}
);
width = 867;
}
);
leftKerningGroup = a;
leftMetricsKey = a;
rightKerningGroup = e;
rightMetricsKey = e;
unicode = 00E6;
},
{
color = 1;
glyphname = b;
layers = (
{
anchors = (
{
name = bottom;
position = "{290, 0}";
},
{
name = top;
position = "{290, 522}";
}
);
layerId = "075BA79B-D813-4287-A9DD-CCAF2D535ED3";
paths = (
{
closed = 1;
nodes = (
"413 -6 OFFCURVE",
"510 83 OFFCURVE",
"510 265 CURVE SMOOTH",
"510 433 OFFCURVE",
"422 528 OFFCURVE",
"313 528 CURVE SMOOTH",
"255 528 OFFCURVE",
"191 500 OFFCURVE",
"130 441 CURVE",
"134 437 LINE",
"134 765 LINE",
"24 760 LINE",
"24 745 LINE",
"123 731 LINE",
"114 741 LINE",
"114 15 LINE",
"166 1 OFFCURVE",
"214 -6 OFFCURVE",
"257 -6 CURVE SMOOTH"
);
},
{
closed = 1;
nodes = (
"222 13 OFFCURVE",
"177 20 OFFCURVE",
"129 33 CURVE",
"134 22 LINE",
"134 432 LINE",
"130 417 LINE",
"190 480 OFFCURVE",
"254 509 OFFCURVE",
"311 509 CURVE SMOOTH",
"410 509 OFFCURVE",
"489 420 OFFCURVE",
"489 264 CURVE SMOOTH",
"489 97 OFFCURVE",
"404 13 OFFCURVE",
"261 13 CURVE SMOOTH"
);
}
);
width = 580;
},
{
anchors = (
{
name = bottom;
position = "{297, 0}";
},
{
name = top;
position = "{297, 540}";
}
);
background = {
paths = (
{
closed = 1;
nodes = (
"522 -15 OFFCURVE",
"585 124 OFFCURVE",
"585 283 CURVE SMOOTH",
"585 463 OFFCURVE",
"505 555 OFFCURVE",
"388 555 CURVE SMOOTH",
"310 555 OFFCURVE",
"248 514 OFFCURVE",
"205 461 CURVE",
"242 388 LINE",
"266 406 OFFCURVE",
"287 415 OFFCURVE",
"306 415 CURVE SMOOTH",
"356 415 OFFCURVE",
"377 357 OFFCURVE",
"377 269 CURVE SMOOTH",
"377 178 OFFCURVE",
"356 125 OFFCURVE",
"282 125 CURVE SMOOTH",
"268 125 OFFCURVE",
"249 127 OFFCURVE",
"227 133 CURVE",
"48 4 LINE",
"125 -9 OFFCURVE",
"191 -15 OFFCURVE",
"248 -15 CURVE SMOOTH"
);
},
{
closed = 1;
nodes = (
"248 4 LINE",
"248 785 LINE",
"-7 775 LINE",
"-7 675 LINE",
"70 645 LINE",
"48 675 LINE",
"48 4 LINE"
);
}
);
};
layerId = "927AED37-E9E6-4F96-A08E-421C3785EFC6";
paths = (
{
closed = 1;
nodes = (
"522 -15 OFFCURVE",
"585 124 OFFCURVE",
"585 283 CURVE SMOOTH",
"585 463 OFFCURVE",
"505 555 OFFCURVE",
"388 555 CURVE SMOOTH",
"321 555 OFFCURVE",
"266 525 OFFCURVE",
"224 483 CURVE",
"248 454 LINE",
"248 785 LINE",
"-7 775 LINE",
"-7 675 LINE",
"77 643 LINE",
"48 694 LINE",
"48 4 LINE",
"125 -9 OFFCURVE",
"191 -15 OFFCURVE",
"248 -15 CURVE SMOOTH"
);
},
{
closed = 1;
nodes = (
"267 125 OFFCURVE",
"246 128 OFFCURVE",
"225 133 CURVE",
"248 88 LINE",
"248 427 LINE",
"225 370 LINE",
"257 396 OFFCURVE",
"283 410 OFFCURVE",
"307 410 CURVE SMOOTH",
"356 410 OFFCURVE",
"377 352 OFFCURVE",
"377 267 CURVE SMOOTH",
"377 181 OFFCURVE",
"356 125 OFFCURVE",
"284 125 CURVE SMOOTH"
);
}
);
width = 600;
}
);
leftKerningGroup = h;
rightKerningGroup = o;
unicode = 0062;
},
{
color = 1;
glyphname = c;
layers = (
{
anchors = (
{
name = bottom;
position = "{296, 0}";
},
{
name = top;
position = "{291, 522}";
}
);
layerId = "075BA79B-D813-4287-A9DD-CCAF2D535ED3";
paths = (
{
closed = 1;
nodes = (
"334 -6 OFFCURVE",
"399 17 OFFCURVE",
"464 66 CURVE",
"453 82 LINE",
"394 36 OFFCURVE",
"334 14 OFFCURVE",
"281 14 CURVE SMOOTH",
"172 14 OFFCURVE",
"89 103 OFFCURVE",
"89 255 CURVE SMOOTH",
"89 412 OFFCURVE",
"174 509 OFFCURVE",
"296 509 CURVE SMOOTH",
"328 509 OFFCURVE",
"379 502 OFFCURVE",
"424 479 CURVE",
"419 488 LINE",
"431 382 LINE",
"450 382 LINE",
"453 486 LINE",
"403 516 OFFCURVE",
"341 528 OFFCURVE",
"300 528 CURVE SMOOTH",
"171 528 OFFCURVE",
"68 431 OFFCURVE",
"68 253 CURVE SMOOTH",
"68 91 OFFCURVE",
"159 -6 OFFCURVE",
"277 -6 CURVE SMOOTH"
);
}
);
width = 504;
},
{
anchors = (
{
name = bottom;
position = "{279, 0}";
},
{
name = top;
position = "{277, 540}";
}
);
background = {
paths = (
{
closed = 1;
nodes = (
"351 -15 OFFCURVE",
"432 14 OFFCURVE",
"511 75 CURVE",
"446 175 LINE",
"398 143 OFFCURVE",
"351 130 OFFCURVE",
"316 130 CURVE SMOOTH",
"250 130 OFFCURVE",
"216 176 OFFCURVE",
"216 278 CURVE SMOOTH",
"216 360 OFFCURVE",
"235 415 OFFCURVE",
"304 415 CURVE SMOOTH",
"325 415 OFFCURVE",
"347 412 OFFCURVE",
"355 411 CURVE",
"346 419 LINE",
"362 354 LINE",
"482 354 LINE",
"487 517 LINE",
"449 532 OFFCURVE",
"374 555 OFFCURVE",
"298 555 CURVE SMOOTH",
"160 555 OFFCURVE",
"8 493 OFFCURVE",
"8 267 CURVE SMOOTH",
"8 86 OFFCURVE",
"120 -15 OFFCURVE",
"269 -15 CURVE SMOOTH"
);
}
);
};
layerId = "927AED37-E9E6-4F96-A08E-421C3785EFC6";
paths = (
{
closed = 1;
nodes = (
"351 -15 OFFCURVE",
"432 14 OFFCURVE",
"511 75 CURVE",
"447 174 LINE",
"395 145 OFFCURVE",
"351 130 OFFCURVE",
"315 130 CURVE SMOOTH",
"252 130 OFFCURVE",
"216 177 OFFCURVE",
"216 278 CURVE SMOOTH",
"216 360 OFFCURVE",
"235 415 OFFCURVE",
"304 415 CURVE SMOOTH",
"325 415 OFFCURVE",
"347 412 OFFCURVE",
"355 411 CURVE",
"341 419 LINE",
"357 349 LINE",
"482 349 LINE",
"487 517 LINE",
"449 532 OFFCURVE",
"374 555 OFFCURVE",
"298 555 CURVE SMOOTH",
"160 555 OFFCURVE",
"8 493 OFFCURVE",
"8 267 CURVE SMOOTH",
"8 86 OFFCURVE",
"120 -15 OFFCURVE",
"269 -15 CURVE SMOOTH"
);
}
);
width = 514;
}
);
leftKerningGroup = o;
rightKerningGroup = c;
unicode = 0063;
},
{
color = 1;
glyphname = d;
layers = (
{
anchors = (
{
name = bottom;
position = "{295, 0}";
},
{
name = center;
position = "{295, 261}";
},
{
name = top;
position = "{295, 522}";
},
{
name = topright;
position = "{574, 522}";
}
);
layerId = "075BA79B-D813-4287-A9DD-CCAF2D535ED3";
paths = (
{
closed = 1;
nodes = (
"325 -7 OFFCURVE",
"389 21 OFFCURVE",
"450 80 CURVE",
"446 83 LINE",
"451 -2 LINE",
"556 2 LINE",
"556 17 LINE",
"459 27 LINE",
"466 19 LINE",
"466 765 LINE",
"351 760 LINE",
"351 746 LINE",
"453 731 LINE",
"446 739 LINE",
"446 502 LINE",
"453 506 LINE",
"403 520 OFFCURVE",
"357 528 OFFCURVE",
"315 528 CURVE SMOOTH",
"165 528 OFFCURVE",
"70 431 OFFCURVE",
"70 256 CURVE SMOOTH",
"70 88 OFFCURVE",
"158 -7 OFFCURVE",
"267 -7 CURVE SMOOTH"
);
},
{
closed = 1;
nodes = (
"170 12 OFFCURVE",
"91 101 OFFCURVE",
"91 257 CURVE SMOOTH",
"91 417 OFFCURVE",
"174 509 OFFCURVE",
"314 509 CURVE SMOOTH",
"355 509 OFFCURVE",
"401 501 OFFCURVE",
"451 484 CURVE",
"446 491 LINE",
"446 92 LINE",
"450 104 LINE",
"390 41 OFFCURVE",
"326 12 OFFCURVE",
"269 12 CURVE SMOOTH"
);
}
);
width = 594;
},
{
anchors = (
{
name = bottom;
position = "{321, 0}";
},
{
name = center;
position = "{311, 270}";
},
{
name = top;
position = "{311, 540}";
},
{
name = topright;
position = "{608, 540}";
}
);
background = {
paths = (
{
closed = 1;
nodes = (
"78 555 OFFCURVE",
"15 416 OFFCURVE",
"15 257 CURVE SMOOTH",
"15 77 OFFCURVE",
"95 -15 OFFCURVE",
"212 -15 CURVE SMOOTH",
"279 -15 OFFCURVE",
"334 15 OFFCURVE",
"376 57 CURVE",
"352 86 LINE",
"352 -245 LINE",
"607 -235 LINE",
"607 -135 LINE",
"523 -103 LINE",
"552 -154 LINE",
"552 536 LINE",
"475 549 OFFCURVE",
"409 555 OFFCURVE",
"352 555 CURVE SMOOTH"
);
},
{
closed = 1;
nodes = (
"332 415 OFFCURVE",
"354 412 OFFCURVE",
"375 407 CURVE",
"352 452 LINE",
"352 113 LINE",
"375 170 LINE",
"343 144 OFFCURVE",
"317 130 OFFCURVE",
"294 130 CURVE SMOOTH",
"244 130 OFFCURVE",
"223 188 OFFCURVE",
"223 271 CURVE SMOOTH",
"223 362 OFFCURVE",
"244 415 OFFCURVE",
"318 415 CURVE SMOOTH"
);
}
);
};
layerId = "927AED37-E9E6-4F96-A08E-421C3785EFC6";
paths = (
{
closed = 1;
nodes = (
"279 -15 OFFCURVE",
"334 14 OFFCURVE",
"391 71 CURVE",
"371 77 LINE",
"396 -10 LINE",
"607 0 LINE",
"607 100 LINE",
"530 134 LINE",
"552 108 LINE",
"552 785 LINE",
"292 775 LINE",
"292 675 LINE",
"364 643 LINE",
"352 660 LINE",
"352 531 LINE",
"387 552 LINE",
"364 554 OFFCURVE",
"343 555 OFFCURVE",
"322 555 CURVE SMOOTH",
"125 555 OFFCURVE",
"15 463 OFFCURVE",
"15 255 CURVE SMOOTH",
"15 78 OFFCURVE",
"95 -15 OFFCURVE",
"213 -15 CURVE SMOOTH"
);
},
{
closed = 1;
nodes = (
"244 130 OFFCURVE",
"223 188 OFFCURVE",
"223 274 CURVE SMOOTH",
"223 359 OFFCURVE",
"244 415 OFFCURVE",
"316 415 CURVE SMOOTH",
"333 415 OFFCURVE",
"354 412 OFFCURVE",
"375 407 CURVE",
"352 452 LINE",
"352 113 LINE",
"375 170 LINE",
"343 144 OFFCURVE",
"317 130 OFFCURVE",
"293 130 CURVE SMOOTH"
);
}
);
width = 614;
}
);
leftKerningGroup = o;
rightKerningGroup = d;
unicode = 0064;
},
{
color = 1;
glyphname = eth;
layers = (
{
layerId = "075BA79B-D813-4287-A9DD-CCAF2D535ED3";
paths = (
{
closed = 1;
nodes = (
"421 -6 OFFCURVE",
"516 94 OFFCURVE",
"516 312 CURVE SMOOTH",
"516 545 OFFCURVE",
"408 768 OFFCURVE",
"165 768 CURVE",
"162 749 LINE",
"354 749 OFFCURVE",
"463 601 OFFCURVE",
"492 396 CURVE",
"495 396 LINE",
"459 479 OFFCURVE",
"394 528 OFFCURVE",
"301 528 CURVE SMOOTH",
"161 528 OFFCURVE",
"69 418 OFFCURVE",
"69 246 CURVE SMOOTH",
"69 89 OFFCURVE",
"146 -6 OFFCURVE",
"282 -6 CURVE SMOOTH"
);
},
{
closed = 1;
nodes = (
"163 13 OFFCURVE",
"90 102 OFFCURVE",
"90 251 CURVE SMOOTH",
"90 404 OFFCURVE",
"167 509 OFFCURVE",
"301 509 CURVE SMOOTH",
"426 509 OFFCURVE",
"495 418 OFFCURVE",
"495 277 CURVE SMOOTH",
"495 127 OFFCURVE",
"418 13 OFFCURVE",
"282 13 CURVE SMOOTH"
);
},
{
closed = 1;
nodes = (
"474 752 LINE",
"464 768 LINE",
"223 629 LINE",
"233 613 LINE"
);
}
);
width = 599;
},
{
background = {
paths = (
{
closed = 1;
nodes = (
"475 -15 OFFCURVE",
"549 143 OFFCURVE",
"549 319 CURVE SMOOTH",
"549 555 OFFCURVE",
"416 795 OFFCURVE",
"100 795 CURVE",
"85 655 LINE",
"234 650 OFFCURVE",
"340 586 OFFCURVE",
"365 418 CURVE",
"383 409 LINE",
"348 461 OFFCURVE",
"289 483 OFFCURVE",
"228 483 CURVE SMOOTH",
"107 483 OFFCURVE",
"5 397 OFFCURVE",
"5 235 CURVE SMOOTH",
"5 91 OFFCURVE",
"86 -15 OFFCURVE",
"261 -15 CURVE SMOOTH"
);
},
{
closed = 1;
nodes = (
"237 125 OFFCURVE",
"210 150 OFFCURVE",
"210 239 CURVE SMOOTH",
"210 336 OFFCURVE",
"242 352 OFFCURVE",
"277 352 CURVE SMOOTH",
"317 352 OFFCURVE",
"344 331 OFFCURVE",
"344 243 CURVE SMOOTH",
"344 146 OFFCURVE",
"311 125 OFFCURVE",
"276 125 CURVE SMOOTH"
);
},
{
closed = 1;
nodes = (
"476 720 LINE",
"415 799 LINE",
"142 596 LINE",
"203 518 LINE"
);
}
);
};
layerId = "927AED37-E9E6-4F96-A08E-421C3785EFC6";
paths = (
{
closed = 1;
nodes = (
"475 -15 OFFCURVE",
"552 143 OFFCURVE",
"552 319 CURVE SMOOTH",
"552 555 OFFCURVE",
"416 795 OFFCURVE",
"100 795 CURVE",
"85 655 LINE",
"234 650 OFFCURVE",
"340 586 OFFCURVE",
"365 418 CURVE",
"383 409 LINE",
"348 461 OFFCURVE",
"289 483 OFFCURVE",
"228 483 CURVE SMOOTH",
"107 483 OFFCURVE",
"2 397 OFFCURVE",
"2 235 CURVE SMOOTH",
"2 91 OFFCURVE",
"86 -15 OFFCURVE",
"261 -15 CURVE SMOOTH"
);
},
{
closed = 1;
nodes = (
"237 125 OFFCURVE",
"210 150 OFFCURVE",
"210 239 CURVE SMOOTH",
"210 336 OFFCURVE",
"242 352 OFFCURVE",
"277 352 CURVE SMOOTH",
"317 352 OFFCURVE",
"344 331 OFFCURVE",
"344 243 CURVE SMOOTH",
"344 146 OFFCURVE",
"311 125 OFFCURVE",
"276 125 CURVE SMOOTH"
);
},
{
closed = 1;
nodes = (
"472 720 LINE",
"411 799 LINE",
"138 596 LINE",
"199 518 LINE"
);
}
);
width = 570;
}
);
leftKerningGroup = o;
rightKerningGroup = o;
unicode = 00F0;
},
{
color = 3;
glyphname = dcroat;
layers = (
{
guideLines = (
{
angle = 90;
position = "{557, 316}";
}
);
layerId = "075BA79B-D813-4287-A9DD-CCAF2D535ED3";
paths = (
{
closed = 1;
nodes = (
"247 622 LINE",
"557 622 LINE",
"557 641 LINE",
"247 641 LINE"
);
},
{
closed = 1;
nodes = (
"325 -8 OFFCURVE",
"389 20 OFFCURVE",
"450 79 CURVE",
"446 82 LINE",
"451 -3 LINE",
"556 1 LINE",
"556 16 LINE",
"459 26 LINE",
"466 18 LINE",
"466 764 LINE",
"351 759 LINE",
"351 745 LINE",
"453 730 LINE",
"446 738 LINE",
"446 501 LINE",
"453 505 LINE",
"403 519 OFFCURVE",
"357 527 OFFCURVE",
"314 527 CURVE SMOOTH",
"165 527 OFFCURVE",
"70 430 OFFCURVE",
"70 255 CURVE SMOOTH",
"70 87 OFFCURVE",
"158 -8 OFFCURVE",
"267 -8 CURVE SMOOTH"
);
},
{
closed = 1;
nodes = (
"170 11 OFFCURVE",
"91 100 OFFCURVE",
"91 256 CURVE SMOOTH",
"91 416 OFFCURVE",
"174 508 OFFCURVE",
"314 508 CURVE SMOOTH",
"355 508 OFFCURVE",
"401 500 OFFCURVE",
"451 483 CURVE",
"446 490 LINE",
"446 91 LINE",
"450 103 LINE",
"390 40 OFFCURVE",
"326 11 OFFCURVE",
"269 11 CURVE SMOOTH"
);
}
);
width = 595;
},
{
background = {
paths = (
{
closed = 1;
nodes = (
"173 566 LINE",
"602 566 LINE",
"602 671 LINE",
"173 671 LINE"
);
},
{
closed = 1;
nodes = (
"284 -15 OFFCURVE",
"341 19 OFFCURVE",
"381 78 CURVE",
"371 77 LINE",
"396 -10 LINE",
"602 0 LINE",
"602 100 LINE",
"538 130 LINE",
"552 108 LINE",
"552 785 LINE",
"292 775 LINE",
"292 690 LINE",
"364 663 LINE",
"352 680 LINE",
"352 510 LINE",
"365 521 LINE",
"332 530 OFFCURVE",
"300 535 OFFCURVE",
"265 535 CURVE SMOOTH",
"111 535 OFFCURVE",
"14 437 OFFCURVE",
"14 249 CURVE SMOOTH",
"14 71 OFFCURVE",
"102 -15 OFFCURVE",
"213 -15 CURVE SMOOTH"
);
},
{
closed = 1;
nodes = (
"251 125 OFFCURVE",
"222 183 OFFCURVE",
"222 261 CURVE SMOOTH",
"222 356 OFFCURVE",
"258 395 OFFCURVE",
"309 395 CURVE SMOOTH",
"326 395 OFFCURVE",
"343 390 OFFCURVE",
"365 383 CURVE",
"352 400 LINE",
"352 131 LINE",
"361 153 LINE",
"338 134 OFFCURVE",
"317 125 OFFCURVE",
"298 125 CURVE SMOOTH"
);
}
);
};
guideLines = (
{
angle = 90;
position = "{602, 316}";
}
);
layerId = "927AED37-E9E6-4F96-A08E-421C3785EFC6";
paths = (
{
closed = 1;
nodes = (
"173 556 LINE",
"602 556 LINE",
"602 661 LINE",
"173 661 LINE"
);
},
{
closed = 1;
nodes = (
"279 -16 OFFCURVE",
"334 13 OFFCURVE",
"391 70 CURVE",
"371 76 LINE",
"396 -11 LINE",
"607 -1 LINE",
"607 99 LINE",
"530 133 LINE",
"552 107 LINE",
"552 784 LINE",
"292 774 LINE",
"292 681 LINE",
"364 655 LINE",
"352 669 LINE",
"352 516 LINE",
"387 537 LINE",
"363 539 OFFCURVE",
"339 540 OFFCURVE",
"317 540 CURVE SMOOTH",
"122 540 OFFCURVE",
"15 456 OFFCURVE",
"15 253 CURVE SMOOTH",
"15 77 OFFCURVE",
"95 -16 OFFCURVE",
"213 -16 CURVE SMOOTH"
);
},
{
closed = 1;
nodes = (
"244 129 OFFCURVE",
"223 187 OFFCURVE",
"223 272 CURVE SMOOTH",
"223 362 OFFCURVE",
"247 401 OFFCURVE",
"311 401 CURVE SMOOTH",
"329 401 OFFCURVE",
"350 398 OFFCURVE",
"375 392 CURVE",
"352 437 LINE",
"352 112 LINE",
"375 169 LINE",
"343 143 OFFCURVE",
"317 129 OFFCURVE",
"293 129 CURVE SMOOTH"
);
}
);
width = 614;
},
{
associatedMasterId = "927AED37-E9E6-4F96-A08E-421C3785EFC6";
background = {
paths = (
{
closed = 1;
nodes = (
"171 571 LINE",
"600 571 LINE",
"600 646 LINE",
"171 646 LINE"
);
},
{
closed = 1;
nodes = (
"282 -15 OFFCURVE",
"339 19 OFFCURVE",
"379 78 CURVE",
"369 77 LINE",
"394 -10 LINE",
"600 0 LINE",
"600 100 LINE",
"536 130 LINE",
"550 108 LINE",
"550 785 LINE",
"290 775 LINE",
"290 685 LINE",
"362 658 LINE",
"350 675 LINE",
"350 510 LINE",
"363 521 LINE",
"330 530 OFFCURVE",
"298 535 OFFCURVE",
"263 535 CURVE SMOOTH",
"109 535 OFFCURVE",
"12 437 OFFCURVE",
"12 249 CURVE SMOOTH",
"12 71 OFFCURVE",
"100 -15 OFFCURVE",
"211 -15 CURVE SMOOTH"
);
},
{
closed = 1;
nodes = (
"249 125 OFFCURVE",
"220 183 OFFCURVE",
"220 261 CURVE SMOOTH",
"220 356 OFFCURVE",
"256 395 OFFCURVE",
"307 395 CURVE SMOOTH",
"324 395 OFFCURVE",
"341 390 OFFCURVE",
"363 383 CURVE",
"350 400 LINE",
"350 131 LINE",
"359 153 LINE",
"336 134 OFFCURVE",
"315 125 OFFCURVE",
"296 125 CURVE SMOOTH"
);
}
);
};
guideLines = (
{
angle = 90;
position = "{600, 316}";
}
);
layerId = "3A1FC05E-D8A2-441C-B113-B3E7E98A0313";
name = "Bold [155]";
paths = (
{
closed = 1;
nodes = (
"176 591 LINE",
"605 591 LINE",
"605 696 LINE",
"176 696 LINE"
);
},
{
closed = 1;
nodes = (
"279 -16 OFFCURVE",
"334 13 OFFCURVE",
"391 70 CURVE",
"371 76 LINE",
"396 -11 LINE",
"607 -1 LINE",
"607 99 LINE",
"530 133 LINE",
"552 107 LINE",
"552 784 LINE",
"352 774 LINE",
"352 516 LINE",
"387 537 LINE",
"362 539 OFFCURVE",
"338 540 OFFCURVE",
"316 540 CURVE SMOOTH",
"122 540 OFFCURVE",
"15 459 OFFCURVE",
"15 254 CURVE SMOOTH",
"15 77 OFFCURVE",
"95 -16 OFFCURVE",
"213 -16 CURVE SMOOTH"
);
},
{
closed = 1;
nodes = (
"244 129 OFFCURVE",
"223 187 OFFCURVE",
"223 273 CURVE SMOOTH",
"223 365 OFFCURVE",
"247 401 OFFCURVE",
"310 401 CURVE SMOOTH",
"328 401 OFFCURVE",
"349 398 OFFCURVE",
"375 392 CURVE",
"352 437 LINE",
"352 112 LINE",
"375 169 LINE",
"343 143 OFFCURVE",
"317 129 OFFCURVE",
"293 129 CURVE SMOOTH"
);
}
);
width = 614;
},
{
associatedMasterId = "075BA79B-D813-4287-A9DD-CCAF2D535ED3";
background = {
paths = (
{
closed = 1;
nodes = (
"247 630 LINE",
"557 630 LINE",
"557 649 LINE",
"247 649 LINE"
);
},
{
closed = 1;
nodes = (
"323 -6 OFFCURVE",
"392 25 OFFCURVE",
"451 88 CURVE",
"447 91 LINE",
"452 -2 LINE",
"557 2 LINE",
"557 17 LINE",
"460 27 LINE",
"467 19 LINE",
"467 762 LINE",
"447 762 LINE",
"447 490 LINE",
"452 495 LINE",
"399 517 OFFCURVE",
"348 528 OFFCURVE",
"303 528 CURVE SMOOTH",
"164 528 OFFCURVE",
"66 428 OFFCURVE",
"66 251 CURVE SMOOTH",
"66 82 OFFCURVE",
"156 -6 OFFCURVE",
"261 -6 CURVE SMOOTH"
);
},
{
closed = 1;
nodes = (
"168 13 OFFCURVE",
"87 94 OFFCURVE",
"87 254 CURVE SMOOTH",
"87 420 OFFCURVE",
"175 509 OFFCURVE",
"300 509 CURVE SMOOTH",
"346 509 OFFCURVE",
"398 496 OFFCURVE",
"452 470 CURVE",
"447 479 LINE",
"447 99 LINE",
"451 110 LINE",
"394 45 OFFCURVE",
"326 13 OFFCURVE",
"265 13 CURVE SMOOTH"
);
}
);
};
guideLines = (
{
angle = 90;
position = "{557, 316}";
}
);
layerId = "7A44008B-405B-4BA5-8432-530D112081D2";
name = "Light [155]";
paths = (
{
closed = 1;
nodes = (
"247 630 LINE",
"557 630 LINE",
"557 649 LINE",
"247 649 LINE"
);
},
{
closed = 1;
nodes = (
"325 -8 OFFCURVE",
"389 20 OFFCURVE",
"450 79 CURVE",
"446 82 LINE",
"451 -3 LINE",
"556 1 LINE",
"556 16 LINE",
"459 26 LINE",
"466 18 LINE",
"466 764 LINE",
"446 762 LINE",
"446 501 LINE",
"453 505 LINE",
"403 519 OFFCURVE",
"357 527 OFFCURVE",
"314 527 CURVE SMOOTH",
"165 527 OFFCURVE",
"70 430 OFFCURVE",
"70 255 CURVE SMOOTH",
"70 87 OFFCURVE",
"158 -8 OFFCURVE",
"267 -8 CURVE SMOOTH"
);
},
{
closed = 1;
nodes = (
"170 11 OFFCURVE",
"91 100 OFFCURVE",
"91 256 CURVE SMOOTH",
"91 416 OFFCURVE",
"174 508 OFFCURVE",
"314 508 CURVE SMOOTH",
"355 508 OFFCURVE",
"401 500 OFFCURVE",
"451 483 CURVE",
"446 490 LINE",
"446 91 LINE",
"450 103 LINE",
"390 40 OFFCURVE",
"326 11 OFFCURVE",
"269 11 CURVE SMOOTH"
);
}
);
width = 595;
}
);
leftKerningGroup = o;
leftMetricsKey = d;
rightKerningGroup = d;
rightMetricsKey = d;
unicode = 0111;
},
{
color = 3;
glyphname = e;
layers = (
{
anchors = (
{
name = bottom;
position = "{297, 0}";
},
{
name = ogonek;
position = "{336, 0}";
},
{
name = top;
position = "{291, 522}";
}
);
layerId = "075BA79B-D813-4287-A9DD-CCAF2D535ED3";
paths = (
{
closed = 1;
nodes = (
"344 -6 OFFCURVE",
"414 18 OFFCURVE",
"485 67 CURVE",
"474 83 LINE",
"408 36 OFFCURVE",
"343 14 OFFCURVE",
"286 14 CURVE SMOOTH",
"172 14 OFFCURVE",
"90 99 OFFCURVE",
"90 256 CURVE SMOOTH",
"90 408 OFFCURVE",
"166 509 OFFCURVE",
"292 509 CURVE SMOOTH",
"423 509 OFFCURVE",
"465 402 OFFCURVE",
"463 290 CURVE",
"472 296 LINE",
"78 296 LINE",
"78 277 LINE",
"483 277 LINE",
"484 291 OFFCURVE",
"484 298 OFFCURVE",
"484 305 CURVE SMOOTH",
"484 436 OFFCURVE",
"419 528 OFFCURVE",
"293 528 CURVE SMOOTH",
"157 528 OFFCURVE",
"69 420 OFFCURVE",
"69 254 CURVE SMOOTH",
"69 86 OFFCURVE",
"159 -6 OFFCURVE",
"282 -6 CURVE SMOOTH"
);
}
);
width = 557;
},
{
anchors = (
{
name = bottom;
position = "{279, 0}";
},
{
name = ogonek;
position = "{376, 0}";
},
{
name = top;
position = "{279, 540}";
}
);
background = {
paths = (
{
closed = 1;
nodes = (
"353 -15 OFFCURVE",
"440 12 OFFCURVE",
"521 68 CURVE",
"456 174 LINE",
"404 147 OFFCURVE",
"356 133 OFFCURVE",
"313 133 CURVE SMOOTH",
"237 133 OFFCURVE",
"211 177 OFFCURVE",
"211 282 CURVE SMOOTH",
"211 378 OFFCURVE",
"229 415 OFFCURVE",
"273 415 CURVE SMOOTH",
"311 415 OFFCURVE",
"324 386 OFFCURVE",
"324 322 CURVE",
"175 322 LINE",
"175 220 LINE",
"521 223 LINE",
"527 253 OFFCURVE",
"530 283 OFFCURVE",
"530 311 CURVE SMOOTH",
"530 449 OFFCURVE",
"462 555 OFFCURVE",
"292 555 CURVE SMOOTH",
"118 555 OFFCURVE",
"10 445 OFFCURVE",
"10 257 CURVE SMOOTH",
"10 80 OFFCURVE",
"112 -15 OFFCURVE",
"269 -15 CURVE SMOOTH"
);
}
);
};
layerId = "927AED37-E9E6-4F96-A08E-421C3785EFC6";
paths = (
{
closed = 1;
nodes = (
"353 -15 OFFCURVE",
"440 12 OFFCURVE",
"521 68 CURVE",
"456 171 LINE",
"404 144 OFFCURVE",
"355 130 OFFCURVE",
"317 130 CURVE SMOOTH",
"228 130 OFFCURVE",
"215 205 OFFCURVE",
"215 290 CURVE SMOOTH",
"215 352 OFFCURVE",
"222 415 OFFCURVE",
"275 415 CURVE SMOOTH",
"316 415 OFFCURVE",
"326 379 OFFCURVE",
"324 303 CURVE",
"355 325 LINE",
"175 325 LINE",
"175 222 LINE",
"521 222 LINE",
"527 253 OFFCURVE",
"530 283 OFFCURVE",
"530 312 CURVE SMOOTH",
"530 449 OFFCURVE",
"462 555 OFFCURVE",
"292 555 CURVE SMOOTH",
"118 555 OFFCURVE",
"10 444 OFFCURVE",
"10 259 CURVE SMOOTH",
"10 79 OFFCURVE",
"112 -15 OFFCURVE",
"269 -15 CURVE SMOOTH"
);
}
);
width = 544;
},
{
anchors = (
{
name = bottom;
position = "{289, 0}";
},
{
name = ogonek;
position = "{354, 0}";
},
{
name = top;
position = "{286, 530}";
}
);
associatedMasterId = "075BA79B-D813-4287-A9DD-CCAF2D535ED3";
background = {
paths = (
{
closed = 1;
nodes = (
"400 -10 OFFCURVE",
"493 73 OFFCURVE",
"493 73 CURVE",
"458 125 LINE",
"458 125 OFFCURVE",
"390 70 OFFCURVE",
"290 70 CURVE SMOOTH",
"204 70 OFFCURVE",
"145 140 OFFCURVE",
"145 250 CURVE",
"490 252 LINE",
"490 252 OFFCURVE",
"495 280 OFFCURVE",
"495 305 CURVE SMOOTH",
"495 455 OFFCURVE",
"430 540 OFFCURVE",
"285 540 CURVE SMOOTH",
"140 540 OFFCURVE",
"40 420 OFFCURVE",
"40 260 CURVE SMOOTH",
"40 95 OFFCURVE",
"120 -10 OFFCURVE",
"280 -10 CURVE SMOOTH"
);
},
{
closed = 1;
nodes = (
"149 325 LINE",
"155 400 OFFCURVE",
"200 462 OFFCURVE",
"280 462 CURVE SMOOTH",
"360 462 OFFCURVE",
"389 400 OFFCURVE",
"389 325 CURVE"
);
}
);
};
layerId = "FC6433CF-2B87-4175-A62D-BF714C6363B9";
name = "Intermediate {100, 100}";
paths = (
{
closed = 1;
nodes = (
"348 -10 OFFCURVE",
"426 15 OFFCURVE",
"501 67 CURVE",
"466 122 LINE",
"406 84 OFFCURVE",
"348 66 OFFCURVE",
"300 66 CURVE SMOOTH",
"197 66 OFFCURVE",
"146 147 OFFCURVE",
"146 269 CURVE SMOOTH",
"146 384 OFFCURVE",
"191 467 OFFCURVE",
"285 467 CURVE SMOOTH",
"371 467 OFFCURVE",
"403 397 OFFCURVE",
"401 315 CURVE",
"410 321 LINE",
"121 321 LINE",
"121 252 LINE",
"500 252 LINE",
"503 274 OFFCURVE",
"504 291 OFFCURVE",
"504 308 CURVE SMOOTH",
"504 442 OFFCURVE",
"438 540 OFFCURVE",
"293 540 CURVE SMOOTH",
"140 540 OFFCURVE",
"43 431 OFFCURVE",
"43 256 CURVE SMOOTH",
"43 83 OFFCURVE",
"138 -10 OFFCURVE",
"276 -10 CURVE SMOOTH"
);
}
);
width = 551;
}
);
leftKerningGroup = o;
rightKerningGroup = e;
unicode = 0065;
},
{
color = 1;
glyphname = eogonek;
layers = (
{
components = (
{
name = e;
}
);
layerId = "075BA79B-D813-4287-A9DD-CCAF2D535ED3";
paths = (
{
closed = 1;
nodes = (
"361 -242 OFFCURVE",
"380 -240 OFFCURVE",
"401 -235 CURVE",
"398 -217 LINE",
"380 -221 OFFCURVE",
"364 -223 OFFCURVE",
"349 -223 CURVE SMOOTH",
"286 -223 OFFCURVE",
"251 -192 OFFCURVE",
"251 -148 CURVE SMOOTH",
"251 -101 OFFCURVE",
"295 -30 OFFCURVE",
"398 19 CURVE",
"355 12 LINE",
"267 -38 OFFCURVE",
"229 -100 OFFCURVE",
"229 -150 CURVE SMOOTH",
"229 -202 OFFCURVE",
"271 -242 OFFCURVE",
"343 -242 CURVE SMOOTH"
);
}
);
width = 557;
},
{
background = {
paths = (
{
closed = 1;
nodes = (
"372 -255 OFFCURVE",
"408 -249 OFFCURVE",
"444 -236 CURVE",
"434 -127 LINE",
"424 -128 OFFCURVE",
"414 -129 OFFCURVE",
"404 -129 CURVE SMOOTH",
"368 -129 OFFCURVE",
"338 -120 OFFCURVE",
"338 -89 CURVE SMOOTH",
"338 -46 OFFCURVE",
"387 -5 OFFCURVE",
"470 38 CURVE",
"397 64 LINE",
"267 23 OFFCURVE",
"195 -71 OFFCURVE",
"195 -146 CURVE SMOOTH",
"195 -206 OFFCURVE",
"242 -255 OFFCURVE",
"340 -255 CURVE SMOOTH"
);
}
);
};
components = (
{
name = e;
}
);
layerId = "927AED37-E9E6-4F96-A08E-421C3785EFC6";
paths = (
{
closed = 1;
nodes = (
"372 -255 OFFCURVE",
"408 -249 OFFCURVE",
"444 -236 CURVE",
"434 -127 LINE",
"424 -128 OFFCURVE",
"414 -129 OFFCURVE",
"404 -129 CURVE SMOOTH",
"368 -129 OFFCURVE",
"338 -120 OFFCURVE",
"338 -89 CURVE SMOOTH",
"338 -46 OFFCURVE",
"387 -5 OFFCURVE",
"470 38 CURVE",
"417 64 LINE",
"276 23 OFFCURVE",
"197 -75 OFFCURVE",
"197 -151 CURVE SMOOTH",
"197 -209 OFFCURVE",
"242 -255 OFFCURVE",
"340 -255 CURVE SMOOTH"
);
}
);
width = 542;
}
);
leftKerningGroup = o;
rightKerningGroup = e;
unicode = 0119;
},
{
color = 1;
glyphname = f;
layers = (
{
layerId = "075BA79B-D813-4287-A9DD-CCAF2D535ED3";
paths = (
{
closed = 1;
nodes = (
"272 0 LINE",
"272 15 LINE",
"155 29 LINE",
"162 21 LINE",
"162 506 LINE",
"155 499 LINE",
"299 499 LINE",
"301 518 LINE",
"155 518 LINE",
"162 509 LINE",
"162 615 LINE SMOOTH",
"162 706 OFFCURVE",
"209 749 OFFCURVE",
"283 749 CURVE SMOOTH",
"307 749 OFFCURVE",
"333 745 OFFCURVE",
"362 736 CURVE",
"356 745 LINE",
"368 660 LINE",
"385 660 LINE",
"389 748 LINE",
"351 761 OFFCURVE",
"315 768 OFFCURVE",
"284 768 CURVE SMOOTH",
"198 768 OFFCURVE",
"142 718 OFFCURVE",
"142 612 CURVE SMOOTH",
"142 509 LINE",
"149 518 LINE",
"52 513 LINE",
"52 499 LINE",
"149 499 LINE",
"142 506 LINE",
"142 21 LINE",
"149 29 LINE",
"52 15 LINE",
"52 0 LINE"
);
}
);
width = 344;
},
{
background = {
paths = (
{
closed = 1;
nodes = (
"281 574 LINE",
"281 632 OFFCURVE",
"297 655 OFFCURVE",
"347 655 CURVE SMOOTH",
"358 655 OFFCURVE",
"370 654 OFFCURVE",
"384 652 CURVE",
"396 578 LINE",
"516 578 LINE",
"521 744 LINE",
"460 775 OFFCURVE",
"386 795 OFFCURVE",
"315 795 CURVE SMOOTH",
"192 795 OFFCURVE",
"81 733 OFFCURVE",
"81 558 CURVE"
);
},
{
closed = 1;
nodes = (
"371 0 LINE",
"371 100 LINE",
"281 123 LINE",
"81 123 LINE",
"6 100 LINE",
"6 0 LINE"
);
},
{
closed = 1;
nodes = (
"281 123 LINE",
"281 574 LINE",
"81 558 LINE",
"81 123 LINE"
);
},
{
closed = 1;
nodes = (
"400 405 LINE",
"403 535 LINE",
"81 535 LINE",
"1 510 LINE",
"1 405 LINE"
);
}
);
};
layerId = "927AED37-E9E6-4F96-A08E-421C3785EFC6";
paths = (
{
closed = 1;
nodes = (
"346 0 LINE",
"346 100 LINE",
"265 128 LINE",
"281 110 LINE",
"281 424 LINE",
"264 405 LINE",
"390 405 LINE",
"393 535 LINE",
"257 535 LINE",
"281 513 LINE",
"281 574 LINE SMOOTH",
"281 632 OFFCURVE",
"297 655 OFFCURVE",
"347 655 CURVE SMOOTH",
"361 655 OFFCURVE",
"376 653 OFFCURVE",
"395 650 CURVE",
"382 669 LINE",
"396 605 LINE",
"516 605 LINE",
"521 759 LINE",
"449 783 OFFCURVE",
"381 795 OFFCURVE",
"323 795 CURVE SMOOTH",
"176 795 OFFCURVE",
"81 719 OFFCURVE",
"81 558 CURVE SMOOTH",
"81 513 LINE",
"102 540 LINE",
"21 510 LINE",
"21 405 LINE",
"97 405 LINE",
"81 424 LINE",
"81 109 LINE",
"97 128 LINE",
"26 100 LINE",
"26 0 LINE"
);
}
);
width = 401;
}
);
leftKerningGroup = f;
rightKerningGroup = f;
unicode = 0066;
},
{
color = 3;
glyphname = g;
layers = (
{
anchors = (
{
name = bottom;
position = "{278, -230}";
},
{
name = top;
position = "{276, 522}";
}
);
guideLines = (
{
angle = 90;
position = "{57, 258}";
}
);
layerId = "075BA79B-D813-4287-A9DD-CCAF2D535ED3";
paths = (
{
closed = 1;
nodes = (
"432 -236 OFFCURVE",
"496 -174 OFFCURVE",
"496 -82 CURVE SMOOTH",
"496 3 OFFCURVE",
"441 57 OFFCURVE",
"312 57 CURVE SMOOTH",
"126 57 LINE",
"131 49 LINE",
"165 203 LINE",
"160 198 LINE",
"188 183 OFFCURVE",
"221 174 OFFCURVE",
"263 174 CURVE SMOOTH",
"386 174 OFFCURVE",
"450 250 OFFCURVE",
"450 356 CURVE SMOOTH",
"450 411 OFFCURVE",
"433 457 OFFCURVE",
"397 488 CURVE",
"393 484 LINE",
"514 498 LINE",
"514 515 LINE",
"353 511 LINE",
"364 509 LINE",
"338 521 OFFCURVE",
"308 528 OFFCURVE",
"271 528 CURVE SMOOTH",
"146 528 OFFCURVE",
"83 451 OFFCURVE",
"83 347 CURVE SMOOTH",
"83 283 OFFCURVE",
"106 231 OFFCURVE",
"156 201 CURVE",
"153 206 LINE",
"142 173 OFFCURVE",
"114 92 OFFCURVE",
"114 63 CURVE SMOOTH",
"114 45 OFFCURVE",
"125 37 OFFCURVE",
"159 37 CURVE",
"156 40 LINE",
"90 -2 OFFCURVE",
"57 -52 OFFCURVE",
"57 -105 CURVE SMOOTH",
"57 -182 OFFCURVE",
"125 -236 OFFCURVE",
"274 -236 CURVE SMOOTH"
);
},
{
closed = 1;
nodes = (
"143 -217 OFFCURVE",
"78 -173 OFFCURVE",
"78 -103 CURVE SMOOTH",
"78 -54 OFFCURVE",
"110 -6 OFFCURVE",
"180 40 CURVE",
"168 37 LINE",
"308 37 LINE SMOOTH",
"435 37 OFFCURVE",
"475 -13 OFFCURVE",
"475 -82 CURVE SMOOTH",
"475 -165 OFFCURVE",
"418 -217 OFFCURVE",
"275 -217 CURVE SMOOTH"
);
},
{
closed = 1;
nodes = (
"154 193 OFFCURVE",
"104 257 OFFCURVE",
"104 348 CURVE SMOOTH",
"104 442 OFFCURVE",
"156 509 OFFCURVE",
"269 509 CURVE SMOOTH",
"380 509 OFFCURVE",
"429 445 OFFCURVE",
"429 354 CURVE SMOOTH",
"429 261 OFFCURVE",
"378 193 OFFCURVE",
"264 193 CURVE SMOOTH"
);
}
);
width = 538;
},
{
anchors = (
{
name = bottom;
position = "{285, -230}";
},
{
name = top;
position = "{287, 540}";
}
);
background = {
paths = (
{
closed = 1;
nodes = (
"175 -136 OFFCURVE",
"146 -128 OFFCURVE",
"146 -90 CURVE SMOOTH",
"146 -77 OFFCURVE",
"150 -64 OFFCURVE",
"160 -54 CURVE",
"314 -54 LINE SMOOTH",
"363 -54 OFFCURVE",
"381 -64 OFFCURVE",
"381 -90 CURVE SMOOTH",
"381 -129 OFFCURVE",
"344 -136 OFFCURVE",
"266 -136 CURVE SMOOTH"
);
},
{
closed = 1;
nodes = (
"478 -256 OFFCURVE",
"567 -176 OFFCURVE",
"567 -58 CURVE SMOOTH",
"567 45 OFFCURVE",
"487 105 OFFCURVE",
"340 105 CURVE SMOOTH",
"309 105 LINE",
"131 58 OFFCURVE",
"0 2 OFFCURVE",
"0 -115 CURVE SMOOTH",
"0 -219 OFFCURVE",
"80 -256 OFFCURVE",
"250 -256 CURVE SMOOTH"
);
},
{
closed = 1;
nodes = (
"319 105 LINE",
"191 105 LINE",
"193 160 LINE",
"130 207 LINE",
"84 144 OFFCURVE",
"41 95 OFFCURVE",
"41 52 CURVE SMOOTH",
"41 23 OFFCURVE",
"61 -4 OFFCURVE",
"114 -30 CURVE"
);
},
{
closed = 1;
nodes = (
"419 149 OFFCURVE",
"517 228 OFFCURVE",
"517 358 CURVE SMOOTH",
"517 483 OFFCURVE",
"426 555 OFFCURVE",
"268 555 CURVE SMOOTH",
"107 555 OFFCURVE",
"14 478 OFFCURVE",
"14 347 CURVE SMOOTH",
"14 225 OFFCURVE",
"101 149 OFFCURVE",
"259 149 CURVE SMOOTH"
);
},
{
closed = 1;
nodes = (
"233 280 OFFCURVE",
"212 296 OFFCURVE",
"212 354 CURVE SMOOTH",
"212 399 OFFCURVE",
"225 424 OFFCURVE",
"266 424 CURVE SMOOTH",
"305 424 OFFCURVE",
"319 405 OFFCURVE",
"319 354 CURVE SMOOTH",
"319 312 OFFCURVE",
"309 280 OFFCURVE",
"263 280 CURVE SMOOTH"
);
},
{
closed = 1;
nodes = (
"587 433 LINE",
"587 535 LINE",
"386 531 LINE",
"469 415 LINE"
);
}
);
};
guideLines = (
{
angle = 90;
position = "{-9, 183}";
}
);
layerId = "927AED37-E9E6-4F96-A08E-421C3785EFC6";
paths = (
{
closed = 1;
nodes = (
"430 -255 OFFCURVE",
"567 -203 OFFCURVE",
"567 -58 CURVE SMOOTH",
"567 45 OFFCURVE",
"487 105 OFFCURVE",
"354 105 CURVE SMOOTH",
"171 105 LINE",
"190 87 LINE",
"193 170 LINE",
"172 158 LINE",
"197 153 OFFCURVE",
"226 149 OFFCURVE",
"259 149 CURVE SMOOTH",
"419 149 OFFCURVE",
"517 228 OFFCURVE",
"517 358 CURVE SMOOTH",
"517 388 OFFCURVE",
"512 414 OFFCURVE",
"502 437 CURVE",
"491 420 LINE",
"563 435 LINE",
"563 535 LINE",
"379 531 LINE",
"422 523 LINE",
"382 544 OFFCURVE",
"330 555 OFFCURVE",
"268 555 CURVE SMOOTH",
"107 555 OFFCURVE",
"14 478 OFFCURVE",
"14 347 CURVE SMOOTH",
"14 265 OFFCURVE",
"52 205 OFFCURVE",
"125 173 CURVE",
"124 198 LINE",
"75 129 OFFCURVE",
"41 85 OFFCURVE",
"41 49 CURVE SMOOTH",
"41 12 OFFCURVE",
"72 -15 OFFCURVE",
"144 -42 CURVE",
"146 34 LINE",
"69 -1 OFFCURVE",
"0 -48 OFFCURVE",
"0 -123 CURVE SMOOTH",
"0 -213 OFFCURVE",
"85 -255 OFFCURVE",
"248 -255 CURVE SMOOTH"
);
},
{
closed = 1;
nodes = (
"177 -131 OFFCURVE",
"147 -121 OFFCURVE",
"147 -85 CURVE SMOOTH",
"147 -68 OFFCURVE",
"158 -49 OFFCURVE",
"172 -39 CURVE",
"135 -49 LINE",
"321 -49 LINE SMOOTH",
"358 -49 OFFCURVE",
"376 -59 OFFCURVE",
"376 -85 CURVE SMOOTH",
"376 -124 OFFCURVE",
"339 -131 OFFCURVE",
"268 -131 CURVE SMOOTH"
);
},
{
closed = 1;
nodes = (
"233 280 OFFCURVE",
"212 296 OFFCURVE",
"212 354 CURVE SMOOTH",
"212 399 OFFCURVE",
"225 424 OFFCURVE",
"266 424 CURVE SMOOTH",
"305 424 OFFCURVE",
"319 405 OFFCURVE",
"319 354 CURVE SMOOTH",
"319 312 OFFCURVE",
"309 280 OFFCURVE",
"263 280 CURVE SMOOTH"
);
}
);
width = 570;
},
{
anchors = (
{
name = bottom;
position = "{281, 0}";
},
{
name = top;
position = "{281, 530}";
}
);
associatedMasterId = "075BA79B-D813-4287-A9DD-CCAF2D535ED3";
background = {
paths = (
{
closed = 1;
nodes = (
"119 -249 OFFCURVE",
"269 -249 CURVE SMOOTH",
"430 -249 OFFCURVE",
"534 -192 OFFCURVE",
"534 -71 CURVE SMOOTH",
"534 26 OFFCURVE",
"467 75 OFFCURVE",
"334 75 CURVE SMOOTH",
"146 75 LINE",
"175 66 LINE",
"183 188 LINE",
"165 180 LINE",
"192 170 OFFCURVE",
"222 163 OFFCURVE",
"263 163 CURVE SMOOTH",
"400 163 OFFCURVE",
"480 240 OFFCURVE",
"480 356 CURVE SMOOTH",
"480 401 OFFCURVE",
"468 438 OFFCURVE",
"444 465 CURVE",
"437 456 LINE",
"537 470 LINE",
"537 524 LINE",
"365 520 LINE",
"390 515 LINE",
"358 531 OFFCURVE",
"318 540 OFFCURVE",
"270 540 CURVE SMOOTH",
"129 540 OFFCURVE",
"52 463 OFFCURVE",
"52 347 CURVE SMOOTH",
"52 275 OFFCURVE",
"82 219 OFFCURVE",
"142 189 CURVE",
"140 202 LINE",
"103 148 OFFCURVE",
"80 104 OFFCURVE",
"80 73 CURVE SMOOTH",
"80 42 OFFCURVE",
"103 23 OFFCURVE",
"159 18 CURVE",
"165 27 LINE",
"70 0 OFFCURVE",
"35 -51 OFFCURVE",
"35 -109 CURVE SMOOTH",
"35 -200 OFFCURVE"
);
},
{
closed = 1;
nodes = (
"377 -175 OFFCURVE",
"280 -175 CURVE SMOOTH",
"187 -175 OFFCURVE",
"133 -147 OFFCURVE",
"133 -91 CURVE SMOOTH",
"133 -56 OFFCURVE",
"154 -24 OFFCURVE",
"199 5 CURVE",
"166 -1 LINE",
"317 -1 LINE SMOOTH",
"406 -1 OFFCURVE",
"438 -29 OFFCURVE",
"438 -78 CURVE SMOOTH",
"438 -145 OFFCURVE"
);
},
{
closed = 1;
nodes = (
"189 231 OFFCURVE",
"152 274 OFFCURVE",
"152 350 CURVE SMOOTH",
"152 424 OFFCURVE",
"187 472 OFFCURVE",
"268 472 CURVE SMOOTH",
"347 472 OFFCURVE",
"380 426 OFFCURVE",
"380 355 CURVE SMOOTH",
"380 284 OFFCURVE",
"347 231 OFFCURVE",
"264 231 CURVE SMOOTH"
);
}
);
};
guideLines = (
{
angle = 90;
position = "{57, 258}";
}
);
layerId = "C389C2D4-0C18-42B4-9A92-6179A98EFA75";
name = "Intermediate {100, 100}";
paths = (
{
closed = 1;
nodes = (
"427 -245 OFFCURVE",
"530 -192 OFFCURVE",
"530 -71 CURVE SMOOTH",
"530 26 OFFCURVE",
"464 72 OFFCURVE",
"331 72 CURVE SMOOTH",
"146 72 LINE",
"171 63 LINE",
"179 188 LINE",
"165 180 LINE",
"192 170 OFFCURVE",
"222 163 OFFCURVE",
"263 163 CURVE SMOOTH",
"400 163 OFFCURVE",
"480 240 OFFCURVE",
"480 356 CURVE SMOOTH",
"480 401 OFFCURVE",
"468 438 OFFCURVE",
"444 465 CURVE",
"437 456 LINE",
"537 470 LINE",
"537 524 LINE",
"365 520 LINE",
"390 515 LINE",
"358 531 OFFCURVE",
"318 540 OFFCURVE",
"270 540 CURVE SMOOTH",
"129 540 OFFCURVE",
"52 463 OFFCURVE",
"52 347 CURVE SMOOTH",
"52 275 OFFCURVE",
"82 219 OFFCURVE",
"142 189 CURVE",
"140 202 LINE",
"103 148 OFFCURVE",
"80 104 OFFCURVE",
"80 73 CURVE SMOOTH",
"80 42 OFFCURVE",
"103 23 OFFCURVE",
"159 18 CURVE",
"162 27 LINE",
"70 1 OFFCURVE",
"34 -49 OFFCURVE",
"34 -108 CURVE SMOOTH",
"34 -199 OFFCURVE",
"119 -245 OFFCURVE",
"268 -245 CURVE SMOOTH"
);
},
{
closed = 1;
nodes = (
"183 -175 OFFCURVE",
"130 -147 OFFCURVE",
"130 -90 CURVE SMOOTH",
"130 -54 OFFCURVE",
"151 -22 OFFCURVE",
"196 5 CURVE",
"166 -1 LINE",
"314 -1 LINE SMOOTH",
"403 -1 OFFCURVE",
"435 -29 OFFCURVE",
"435 -78 CURVE SMOOTH",
"435 -145 OFFCURVE",
"374 -175 OFFCURVE",
"277 -175 CURVE SMOOTH"
);
},
{
closed = 1;
nodes = (
"189 231 OFFCURVE",
"152 274 OFFCURVE",
"152 350 CURVE SMOOTH",
"152 424 OFFCURVE",
"187 472 OFFCURVE",
"268 472 CURVE SMOOTH",
"347 472 OFFCURVE",
"380 426 OFFCURVE",
"380 355 CURVE SMOOTH",
"380 284 OFFCURVE",
"347 231 OFFCURVE",
"264 231 CURVE SMOOTH"
);
}
);
width = 552;
}
);
leftKerningGroup = g;
rightKerningGroup = g;
unicode = 0067;
},
{
color = 3;
glyphname = h;
layers = (
{
anchors = (
{
name = bottom;
position = "{304, 0}";
},
{
name = center;
position = "{304, 261}";
},
{
name = top;
position = "{304, 762}";
}
);
layerId = "075BA79B-D813-4287-A9DD-CCAF2D535ED3";
paths = (
{
closed = 1;
nodes = (
"238 0 LINE",
"238 15 LINE",
"141 29 LINE",
"148 21 LINE",
"148 414 LINE",
"144 403 LINE",
"213 476 OFFCURVE",
"290 509 OFFCURVE",
"352 509 CURVE SMOOTH",
"431 509 OFFCURVE",
"483 463 OFFCURVE",
"481 363 CURVE SMOOTH",
"481 21 LINE",
"488 29 LINE",
"391 15 LINE",
"391 0 LINE",
"591 0 LINE",
"591 15 LINE",
"494 29 LINE",
"501 21 LINE",
"501 368 LINE SMOOTH",
"503 477 OFFCURVE",
"441 528 OFFCURVE",
"353 528 CURVE SMOOTH",
"288 528 OFFCURVE",
"211 497 OFFCURVE",
"144 427 CURVE",
"148 424 LINE",
"148 765 LINE",
"38 760 LINE",
"38 745 LINE",
"135 731 LINE",
"128 739 LINE",
"128 21 LINE",
"135 29 LINE",
"38 15 LINE",
"38 0 LINE"
);
}
);
width = 621;
},
{
anchors = (
{
name = bottom;
position = "{315, 0}";
},
{
name = center;
position = "{317, 270}";
},
{
name = top;
position = "{317, 771}";
}
);
background = {
paths = (
{
closed = 1;
nodes = (
"307 0 LINE",
"307 100 LINE",
"246 126 LINE",
"262 99 LINE",
"262 395 LINE",
"250 369 LINE",
"278 392 OFFCURVE",
"306 405 OFFCURVE",
"330 405 CURVE SMOOTH",
"360 405 OFFCURVE",
"382 384 OFFCURVE",
"382 336 CURVE SMOOTH",
"382 99 LINE",
"403 127 LINE",
"337 100 LINE",
"337 0 LINE",
"637 0 LINE",
"637 100 LINE",
"566 129 LINE",
"582 103 LINE",
"582 378 LINE SMOOTH",
"582 496 OFFCURVE",
"511 555 OFFCURVE",
"421 555 CURVE SMOOTH",
"356 555 OFFCURVE",
"281 524 OFFCURVE",
"217 461 CURVE",
"242 453 LINE",
"218 546 LINE",
"7 536 LINE",
"7 436 LINE",
"84 406 LINE",
"62 436 LINE",
"62 103 LINE",
"84 130 LINE",
"7 100 LINE",
"7 0 LINE"
);
}
);
};
layerId = "927AED37-E9E6-4F96-A08E-421C3785EFC6";
paths = (
{
closed = 1;
nodes = (
"307 0 LINE",
"307 100 LINE",
"246 126 LINE",
"262 99 LINE",
"262 395 LINE",
"249 368 LINE",
"277 392 OFFCURVE",
"306 405 OFFCURVE",
"329 405 CURVE SMOOTH",
"360 405 OFFCURVE",
"382 383 OFFCURVE",
"382 337 CURVE SMOOTH",
"382 99 LINE",
"403 127 LINE",
"337 100 LINE",
"337 0 LINE",
"637 0 LINE",
"637 100 LINE",
"566 129 LINE",
"582 103 LINE",
"582 380 LINE SMOOTH",
"582 496 OFFCURVE",
"510 555 OFFCURVE",
"420 555 CURVE SMOOTH",
"355 555 OFFCURVE",
"280 523 OFFCURVE",
"217 461 CURVE",
"262 453 LINE",
"262 785 LINE",
"7 775 LINE",
"7 675 LINE",
"84 645 LINE",
"62 675 LINE",
"62 103 LINE",
"84 130 LINE",
"7 100 LINE",
"7 0 LINE"
);
}
);
width = 637;
},
{
associatedMasterId = "075BA79B-D813-4287-A9DD-CCAF2D535ED3";
background = {
paths = (
{
closed = 1;
nodes = (
"157 28 LINE",
"157 772 LINE",
"47 767 LINE",
"47 753 LINE",
"137 739 LINE",
"137 28 LINE"
);
},
{
closed = 1;
nodes = (
"247 0 LINE",
"247 15 LINE",
"157 28 LINE",
"137 28 LINE",
"47 15 LINE",
"47 0 LINE"
);
},
{
closed = 1;
nodes = (
"595 0 LINE",
"595 15 LINE",
"510 28 LINE",
"490 28 LINE",
"490 0 LINE"
);
},
{
closed = 1;
nodes = (
"510 28 LINE",
"510 378 LINE SMOOTH",
"510 575 OFFCURVE",
"291 584 OFFCURVE",
"140 420 CURVE",
"150 403 LINE",
"296 559 OFFCURVE",
"490 560 OFFCURVE",
"490 373 CURVE SMOOTH",
"490 28 LINE"
);
}
);
};
layerId = "FA09C67E-321B-4990-8CE8-B9294D50F291";
name = "Light [165]";
paths = (
{
closed = 1;
nodes = (
"238 0 LINE",
"238 15 LINE",
"141 29 LINE",
"148 21 LINE",
"148 414 LINE",
"144 403 LINE",
"213 476 OFFCURVE",
"290 509 OFFCURVE",
"352 509 CURVE SMOOTH",
"431 509 OFFCURVE",
"483 463 OFFCURVE",
"481 363 CURVE SMOOTH",
"481 0 LINE",
"591 0 LINE",
"591 15 LINE",
"494 29 LINE",
"501 21 LINE",
"501 368 LINE SMOOTH",
"503 477 OFFCURVE",
"441 528 OFFCURVE",
"353 528 CURVE SMOOTH",
"288 528 OFFCURVE",
"211 497 OFFCURVE",
"144 427 CURVE",
"148 424 LINE",
"148 765 LINE",
"38 760 LINE",
"38 745 LINE",
"135 731 LINE",
"128 739 LINE",
"128 21 LINE",
"135 29 LINE",
"38 15 LINE",
"38 0 LINE"
);
}
);
width = 621;
},
{
associatedMasterId = "927AED37-E9E6-4F96-A08E-421C3785EFC6";
background = {
paths = (
{
closed = 1;
nodes = (
"317 0 LINE",
"317 100 LINE",
"246 126 LINE",
"262 99 LINE",
"262 404 LINE",
"249 377 LINE",
"277 401 OFFCURVE",
"306 414 OFFCURVE",
"329 414 CURVE SMOOTH",
"360 414 OFFCURVE",
"382 392 OFFCURVE",
"382 346 CURVE SMOOTH",
"382 0 LINE",
"632 0 LINE",
"632 100 LINE",
"566 129 LINE",
"582 103 LINE",
"582 380 LINE SMOOTH",
"582 496 OFFCURVE",
"510 555 OFFCURVE",
"420 555 CURVE SMOOTH",
"355 555 OFFCURVE",
"280 523 OFFCURVE",
"217 461 CURVE",
"262 453 LINE",
"262 785 LINE",
"7 775 LINE",
"7 675 LINE",
"84 645 LINE",
"62 675 LINE",
"62 103 LINE",
"84 130 LINE",
"7 100 LINE",
"7 0 LINE"
);
}
);
};
guideLines = (
{
angle = 90;
position = "{262, 440}";
}
);
layerId = "64887190-8704-4EBB-BB4C-AF956B55F4EC";
name = "Bold [165]";
paths = (
{
closed = 1;
nodes = (
"317 0 LINE",
"317 100 LINE",
"246 126 LINE",
"262 99 LINE",
"262 395 LINE",
"249 368 LINE",
"277 392 OFFCURVE",
"306 405 OFFCURVE",
"329 405 CURVE SMOOTH",
"360 405 OFFCURVE",
"382 383 OFFCURVE",
"382 337 CURVE SMOOTH",
"382 0 LINE",
"637 0 LINE",
"637 100 LINE",
"566 129 LINE",
"582 103 LINE",
"582 380 LINE SMOOTH",
"582 496 OFFCURVE",
"510 555 OFFCURVE",
"420 555 CURVE SMOOTH",
"355 555 OFFCURVE",
"280 523 OFFCURVE",
"217 461 CURVE",
"262 453 LINE",
"262 785 LINE",
"7 775 LINE",
"7 675 LINE",
"84 645 LINE",
"62 675 LINE",
"62 103 LINE",
"84 130 LINE",
"7 100 LINE",
"7 0 LINE"
);
}
);
width = 637;
}
);
leftKerningGroup = h;
rightKerningGroup = n;
unicode = 0068;
},
{
color = 3;
glyphname = hbar;
layers = (
{
guideLines = (
{
angle = 90;
position = "{52, 702}";
}
);
layerId = "075BA79B-D813-4287-A9DD-CCAF2D535ED3";
paths = (
{
closed = 1;
nodes = (
"52 622 LINE",
"367 622 LINE",
"367 641 LINE",
"52 641 LINE"
);
},
{
closed = 1;
nodes = (
"252 0 LINE",
"252 15 LINE",
"155 29 LINE",
"162 21 LINE",
"162 414 LINE",
"158 403 LINE",
"227 476 OFFCURVE",
"304 509 OFFCURVE",
"366 509 CURVE SMOOTH",
"445 509 OFFCURVE",
"497 463 OFFCURVE",
"495 363 CURVE SMOOTH",
"495 21 LINE",
"502 29 LINE",
"405 15 LINE",
"405 0 LINE",
"605 0 LINE",
"605 15 LINE",
"508 29 LINE",
"515 21 LINE",
"515 368 LINE SMOOTH",
"517 477 OFFCURVE",
"455 528 OFFCURVE",
"367 528 CURVE SMOOTH",
"302 528 OFFCURVE",
"225 497 OFFCURVE",
"158 427 CURVE",
"162 424 LINE",
"162 765 LINE",
"52 760 LINE",
"52 745 LINE",
"149 731 LINE",
"142 739 LINE",
"142 21 LINE",
"149 29 LINE",
"52 15 LINE",
"52 0 LINE"
);
}
);
width = 635;
},
{
guideLines = (
{
angle = 90;
position = "{7, 702}";
}
);
layerId = "927AED37-E9E6-4F96-A08E-421C3785EFC6";
paths = (
{
closed = 1;
nodes = (
"-3 556 LINE",
"416 556 LINE",
"416 661 LINE",
"-3 661 LINE"
);
},
{
closed = 1;
nodes = (
"307 0 LINE",
"307 100 LINE",
"246 126 LINE",
"262 99 LINE",
"262 379 LINE",
"250 351 LINE",
"280 377 OFFCURVE",
"311 390 OFFCURVE",
"335 390 CURVE SMOOTH",
"363 390 OFFCURVE",
"382 372 OFFCURVE",
"382 335 CURVE SMOOTH",
"382 99 LINE",
"403 127 LINE",
"337 100 LINE",
"337 0 LINE",
"627 0 LINE",
"627 100 LINE",
"566 129 LINE",
"582 103 LINE",
"582 373 LINE SMOOTH",
"582 477 OFFCURVE",
"513 540 OFFCURVE",
"425 540 CURVE SMOOTH",
"362 540 OFFCURVE",
"288 509 OFFCURVE",
"224 446 CURVE",
"262 438 LINE",
"262 785 LINE",
"7 775 LINE",
"7 685 LINE",
"84 660 LINE",
"62 685 LINE",
"62 103 LINE",
"84 130 LINE",
"7 100 LINE",
"7 0 LINE"
);
}
);
width = 634;
},
{
associatedMasterId = "927AED37-E9E6-4F96-A08E-421C3785EFC6";
guideLines = (
{
angle = 90;
position = "{7, 702}";
}
);
layerId = "0DE3FF20-A748-4F5F-9E66-E66612B52192";
name = "Bold [155]";
paths = (
{
closed = 1;
nodes = (
"307 0 LINE",
"307 100 LINE",
"246 126 LINE",
"262 99 LINE",
"262 379 LINE",
"250 351 LINE",
"280 377 OFFCURVE",
"311 390 OFFCURVE",
"335 390 CURVE SMOOTH",
"363 390 OFFCURVE",
"382 372 OFFCURVE",
"382 335 CURVE SMOOTH",
"382 0 LINE",
"627 0 LINE",
"627 100 LINE",
"566 129 LINE",
"582 103 LINE",
"582 373 LINE SMOOTH",
"582 477 OFFCURVE",
"513 540 OFFCURVE",
"425 540 CURVE SMOOTH",
"362 540 OFFCURVE",
"288 509 OFFCURVE",
"224 446 CURVE",
"262 438 LINE",
"262 780 LINE",
"62 780 LINE",
"62 103 LINE",
"84 130 LINE",
"7 100 LINE",
"7 0 LINE"
);
},
{
closed = 1;
nodes = (
"431 591 LINE",
"431 696 LINE",
"2 696 LINE",
"2 591 LINE"
);
}
);
width = 634;
},
{
associatedMasterId = "075BA79B-D813-4287-A9DD-CCAF2D535ED3";
guideLines = (
{
angle = 90;
position = "{52, 702}";
}
);
layerId = "89D11FDD-D677-4FBE-9C8E-211CD76D60E2";
name = "Light [155]";
paths = (
{
closed = 1;
nodes = (
"252 0 LINE",
"252 15 LINE",
"155 29 LINE",
"162 21 LINE",
"162 414 LINE",
"158 403 LINE",
"227 476 OFFCURVE",
"304 509 OFFCURVE",
"366 509 CURVE SMOOTH",
"445 509 OFFCURVE",
"497 463 OFFCURVE",
"495 363 CURVE SMOOTH",
"495 0 LINE",
"605 0 LINE",
"605 15 LINE",
"508 29 LINE",
"515 21 LINE",
"515 368 LINE SMOOTH",
"517 477 OFFCURVE",
"455 528 OFFCURVE",
"367 528 CURVE SMOOTH",
"302 528 OFFCURVE",
"225 497 OFFCURVE",
"158 427 CURVE",
"162 424 LINE",
"162 762 LINE",
"142 762 LINE",
"142 21 LINE",
"149 29 LINE",
"52 15 LINE",
"52 0 LINE"
);
},
{
closed = 1;
nodes = (
"367 622 LINE",
"367 641 LINE",
"52 641 LINE",
"52 622 LINE"
);
}
);
width = 635;
}
);
leftKerningGroup = h;
rightKerningGroup = n;
unicode = 0127;
},
{
color = 1;
glyphname = idotless;
layers = (
{
anchors = (
{
name = bottom;
position = "{152, 0}";
},
{
name = ogonek;
position = "{224, 0}";
},
{
name = top;
position = "{150, 522}";
}
);
guideLines = (
{
angle = 90;
position = "{152, 621}";
},
{
angle = 90;
position = "{640, 621}";
}
);
layerId = "075BA79B-D813-4287-A9DD-CCAF2D535ED3";
paths = (
{
closed = 1;
nodes = (
"162 525 LINE",
"52 520 LINE",
"52 505 LINE",
"149 491 LINE",
"142 499 LINE",
"142 21 LINE",
"149 29 LINE",
"52 15 LINE",
"52 0 LINE",
"252 0 LINE",
"252 15 LINE",
"155 29 LINE",
"162 21 LINE"
);
}
);
width = 294;
},
{
anchors = (
{
name = bottom;
position = "{176, 0}";
},
{
name = ogonek;
position = "{281, 0}";
},
{
name = top;
position = "{176, 540}";
}
);
background = {
paths = (
{
closed = 0;
nodes = (
"21 536 LINE",
"21 436 LINE",
"98 406 LINE",
"76 436 LINE",
"76 103 LINE",
"98 130 LINE",
"21 100 LINE",
"21 0 LINE",
"321 0 LINE",
"321 100 LINE",
"260 126 LINE",
"276 99 LINE"
);
}
);
};
guideLines = (
{
angle = 90;
position = "{176, 454}";
},
{
angle = 90;
position = "{697, 454}";
}
);
layerId = "927AED37-E9E6-4F96-A08E-421C3785EFC6";
paths = (
{
closed = 1;
nodes = (
"276 544 LINE",
"21 536 LINE",
"21 436 LINE",
"86 411 LINE",
"76 421 LINE",
"76 112 LINE",
"88 127 LINE",
"21 100 LINE",
"21 0 LINE",
"331 0 LINE",
"331 100 LINE",
"264 127 LINE",
"276 112 LINE"
);
}
);
width = 338;
}
);
leftKerningGroup = i;
rightKerningGroup = i;
unicode = 0131;
},
{
color = 1;
glyphname = idieresis;
layers = (
{
components = (
{
name = idotless;
}
);
layerId = "075BA79B-D813-4287-A9DD-CCAF2D535ED3";
paths = (
{
closed = 1;
nodes = (
"241 650 OFFCURVE",
"253 661 OFFCURVE",
"253 679 CURVE SMOOTH",
"253 698 OFFCURVE",
"243 709 OFFCURVE",
"228 709 CURVE SMOOTH",
"214 709 OFFCURVE",
"203 698 OFFCURVE",
"203 679 CURVE SMOOTH",
"203 661 OFFCURVE",
"213 650 OFFCURVE",
"228 650 CURVE SMOOTH"
);
},
{
closed = 1;
nodes = (
"69 650 OFFCURVE",
"81 661 OFFCURVE",
"81 679 CURVE SMOOTH",
"81 698 OFFCURVE",
"71 709 OFFCURVE",
"56 709 CURVE SMOOTH",
"42 709 OFFCURVE",
"31 698 OFFCURVE",
"31 679 CURVE SMOOTH",
"31 661 OFFCURVE",
"41 650 OFFCURVE",
"56 650 CURVE SMOOTH"
);
}
);
width = 298;
},
{
components = (
{
name = idotless;
transform = "{1, 0, 0, 1, 15, 0}";
}
);
layerId = "927AED37-E9E6-4F96-A08E-421C3785EFC6";
paths = (
{
closed = 1;
nodes = (
"330 623 OFFCURVE",
"371 659 OFFCURVE",
"371 720 CURVE SMOOTH",
"371 780 OFFCURVE",
"336 817 OFFCURVE",
"283 817 CURVE SMOOTH",
"236 817 OFFCURVE",
"195 780 OFFCURVE",
"196 720 CURVE SMOOTH",
"197 659 OFFCURVE",
"229 623 OFFCURVE",
"283 623 CURVE SMOOTH"
);
},
{
closed = 1;
nodes = (
"113 623 OFFCURVE",
"155 659 OFFCURVE",
"155 720 CURVE SMOOTH",
"155 780 OFFCURVE",
"120 817 OFFCURVE",
"66 817 CURVE SMOOTH",
"19 817 OFFCURVE",
"-21 780 OFFCURVE",
"-20 720 CURVE SMOOTH",
"-19 659 OFFCURVE",
"13 623 OFFCURVE",
"66 623 CURVE SMOOTH"
);
}
);
width = 369;
}
);
leftKerningGroup = i;
rightKerningGroup = i;
unicode = 00EF;
},
{
color = 1;
glyphname = idieresisacute;
layers = (
{
components = (
{
name = idotless;
},
{
alignment = -1;
name = acutedbl;
transform = "{1, 0, 0, 1, 81, 82}";
}
);
layerId = "075BA79B-D813-4287-A9DD-CCAF2D535ED3";
paths = (
{
closed = 1;
nodes = (
"248 629 OFFCURVE",
"260 639 OFFCURVE",
"260 658 CURVE SMOOTH",
"260 676 OFFCURVE",
"250 688 OFFCURVE",
"235 688 CURVE SMOOTH",
"221 688 OFFCURVE",
"210 677 OFFCURVE",
"210 658 CURVE SMOOTH",
"210 640 OFFCURVE",
"220 629 OFFCURVE",
"234 629 CURVE SMOOTH"
);
},
{
closed = 1;
nodes = (
"71 629 OFFCURVE",
"83 639 OFFCURVE",
"83 658 CURVE SMOOTH",
"83 676 OFFCURVE",
"73 688 OFFCURVE",
"58 688 CURVE SMOOTH",
"44 688 OFFCURVE",
"33 677 OFFCURVE",
"33 658 CURVE SMOOTH",
"33 640 OFFCURVE",
"43 629 OFFCURVE",
"57 629 CURVE SMOOTH"
);
}
);
width = 294;
},
{
components = (
{
name = idotless;
},
{
alignment = 1;
name = acutedbl;
transform = "{1, 0, 0, 1, 32, 113}";
}
);
layerId = "927AED37-E9E6-4F96-A08E-421C3785EFC6";
paths = (
{
closed = 1;
nodes = (
"323 577 OFFCURVE",
"363 613 OFFCURVE",
"363 675 CURVE SMOOTH",
"363 734 OFFCURVE",
"327 771 OFFCURVE",
"278 771 CURVE SMOOTH",
"232 771 OFFCURVE",
"192 737 OFFCURVE",
"192 674 CURVE SMOOTH",
"192 616 OFFCURVE",
"225 577 OFFCURVE",
"275 577 CURVE SMOOTH"
);
},
{
closed = 1;
nodes = (
"90 577 OFFCURVE",
"131 613 OFFCURVE",
"131 675 CURVE SMOOTH",
"131 733 OFFCURVE",
"95 771 OFFCURVE",
"46 771 CURVE SMOOTH",
"-1 771 OFFCURVE",
"-40 737 OFFCURVE",
"-40 674 CURVE SMOOTH",
"-40 616 OFFCURVE",
"-7 577 OFFCURVE",
"43 577 CURVE SMOOTH"
);
}
);
width = 338;
}
);
leftKerningGroup = i;
rightKerningGroup = i;
unicode = 1E2F;
},
{
color = 1;
glyphname = iogonek;
layers = (
{
components = (
{
name = i;
}
);
layerId = "075BA79B-D813-4287-A9DD-CCAF2D535ED3";
paths = (
{
closed = 1;
nodes = (
"173 -242 OFFCURVE",
"192 -240 OFFCURVE",
"214 -235 CURVE",
"211 -217 LINE",
"192 -221 OFFCURVE",
"174 -223 OFFCURVE",
"159 -223 CURVE SMOOTH",
"94 -223 OFFCURVE",
"65 -190 OFFCURVE",
"65 -147 CURVE SMOOTH",
"65 -98 OFFCURVE",
"102 -38 OFFCURVE",
"171 1 CURVE",
"162 13 LINE",
"84 -28 OFFCURVE",
"42 -95 OFFCURVE",
"42 -150 CURVE SMOOTH",
"42 -201 OFFCURVE",
"79 -242 OFFCURVE",
"155 -242 CURVE SMOOTH"
);
}
);
width = 294;
},
{
background = {
paths = (
{
closed = 1;
nodes = (
"-36 -335 OFFCURVE",
"277 -236 CURVE",
"267 -127 LINE",
"123 -142 OFFCURVE",
"151 -39 OFFCURVE",
"266 0 CURVE",
"249 48 LINE",
"-63 -20 OFFCURVE"
);
}
);
};
components = (
{
name = i;
}
);
guideLines = (
{
angle = 90;
position = "{276, -102}";
},
{
angle = 90;
position = "{76, -102}";
},
{
angle = 90;
position = "{21, -102}";
},
{
angle = 90;
position = "{331, -102}";
}
);
layerId = "927AED37-E9E6-4F96-A08E-421C3785EFC6";
paths = (
{
closed = 1;
nodes = (
"198 -255 OFFCURVE",
"235 -249 OFFCURVE",
"277 -236 CURVE",
"267 -127 LINE",
"255 -129 OFFCURVE",
"244 -130 OFFCURVE",
"235 -130 CURVE SMOOTH",
"191 -130 OFFCURVE",
"169 -111 OFFCURVE",
"169 -86 CURVE SMOOTH",
"169 -56 OFFCURVE",
"203 -15 OFFCURVE",
"266 0 CURVE",
"249 48 LINE",
"100 15 OFFCURVE",
"28 -73 OFFCURVE",
"28 -147 CURVE SMOOTH",
"28 -206 OFFCURVE",
"76 -255 OFFCURVE",
"167 -255 CURVE SMOOTH"
);
}
);
width = 338;
}
);
leftKerningGroup = i;
rightKerningGroup = i;
unicode = 012F;
},
{
glyphname = j;
layers = (
{
components = (
{
name = jdotless;
},
{
name = dotaccentcomb;
transform = "{1, 0, 0, 1, 77, 0}";
}
);
layerId = "075BA79B-D813-4287-A9DD-CCAF2D535ED3";
width = 264;
},
{
background = {
paths = (
{
closed = 1;
nodes = (
"-7 540 LINE",
"-7 435 LINE",
"68 415 LINE",
"68 -28 LINE SMOOTH",
"68 -95 OFFCURVE",
"43 -125 OFFCURVE",
"-7 -125 CURVE SMOOTH",
"-62 -125 LINE",
"-77 -241 LINE",
"-77 -241 OFFCURVE",
"-27 -250 OFFCURVE",
"13 -250 CURVE SMOOTH",
"193 -250 OFFCURVE",
"263 -185 OFFCURVE",
"263 0 CURVE SMOOTH",
"263 550 LINE"
);
},
{
closed = 1;
nodes = (
"98 825 OFFCURVE",
"52 778 OFFCURVE",
"52 715 CURVE SMOOTH",
"52 643 OFFCURVE",
"91 603 OFFCURVE",
"160 603 CURVE SMOOTH",
"220 603 OFFCURVE",
"263 650 OFFCURVE",
"263 715 CURVE SMOOTH",
"263 787 OFFCURVE",
"227 825 OFFCURVE",
"160 825 CURVE SMOOTH"
);
}
);
};
components = (
{
name = jdotless;
},
{
name = dotaccentcomb;
transform = "{1, 0, 0, 1, 13, 0}";
}
);
layerId = "927AED37-E9E6-4F96-A08E-421C3785EFC6";
width = 316;
}
);
leftKerningGroup = j;
rightKerningGroup = j;
unicode = 006A;
},
{
color = 1;
glyphname = jdotless;
layers = (
{
anchors = (
{
name = bottom;
position = "{131, -230}";
},
{
name = top;
position = "{131, 522}";
}
);
layerId = "075BA79B-D813-4287-A9DD-CCAF2D535ED3";
paths = (
{
closed = 1;
nodes = (
"133 -236 OFFCURVE",
"148 -163 OFFCURVE",
"148 -68 CURVE SMOOTH",
"148 525 LINE",
"38 520 LINE",
"38 505 LINE",
"135 491 LINE",
"128 499 LINE",
"128 -77 LINE SMOOTH",
"128 -179 OFFCURVE",
"98 -217 OFFCURVE",
"18 -217 CURVE SMOOTH",
"8 -217 OFFCURVE",
"-2 -216 OFFCURVE",
"-14 -215 CURVE",
"-16 -234 LINE",
"-4 -235 OFFCURVE",
"8 -236 OFFCURVE",
"16 -236 CURVE SMOOTH"
);
}
);
width = 264;
},
{
anchors = (
{
name = bottom;
position = "{159, -230}";
},
{
name = top;
position = "{159, 540}";
}
);
background = {
paths = (
{
closed = 1;
nodes = (
"-45 -242 OFFCURVE",
"-20 -245 OFFCURVE",
"10 -245 CURVE SMOOTH",
"146 -245 OFFCURVE",
"266 -179 OFFCURVE",
"266 36 CURVE SMOOTH",
"266 544 LINE",
"11 536 LINE",
"11 436 LINE",
"83 408 LINE",
"66 429 LINE",
"66 -23 LINE SMOOTH",
"66 -76 OFFCURVE",
"43 -102 OFFCURVE",
"-15 -102 CURVE SMOOTH",
"-60 -102 LINE",
"-75 -236 LINE"
);
}
);
};
guideLines = (
{
position = "{90, -96}";
}
);
layerId = "927AED37-E9E6-4F96-A08E-421C3785EFC6";
paths = (
{
closed = 1;
nodes = (
"146 -245 OFFCURVE",
"266 -179 OFFCURVE",
"266 36 CURVE SMOOTH",
"266 544 LINE",
"11 536 LINE",
"11 436 LINE",
"83 408 LINE",
"66 429 LINE",
"66 -23 LINE SMOOTH",
"66 -80 OFFCURVE",
"41 -100 OFFCURVE",
"-17 -100 CURVE SMOOTH",
"-29 -100 OFFCURVE",
"-44 -99 OFFCURVE",
"-60 -97 CURVE",
"-75 -236 LINE",
"-45 -242 OFFCURVE",
"-20 -245 OFFCURVE",
"9 -245 CURVE SMOOTH"
);
}
);
width = 316;
}
);
leftKerningGroup = j;
rightKerningGroup = j;
unicode = 0237;
},
{
color = 1;
glyphname = k;
layers = (
{
anchors = (
{
name = bottom;
position = "{284, 0}";
},
{
name = top;
position = "{278, 522}";
}
);
layerId = "075BA79B-D813-4287-A9DD-CCAF2D535ED3";
paths = (
{
closed = 1;
nodes = (
"238 0 LINE",
"238 15 LINE",
"141 29 LINE",
"148 21 LINE",
"148 290 LINE",
"141 283 LINE",
"294 283 LINE",
"284 289 LINE",
"454 0 LINE",
"547 0 LINE",
"547 14 LINE",
"453 31 LINE",
"463 24 LINE",
"297 304 LINE",
"300 292 LINE",
"423 502 LINE",
"413 495 LINE",
"509 511 LINE",
"509 525 LINE",
"313 520 LINE",
"313 506 LINE",
"407 495 LINE",
"404 502 LINE",
"281 296 LINE",
"289 302 LINE",
"141 302 LINE",
"148 295 LINE",
"148 765 LINE",
"38 760 LINE",
"38 745 LINE",
"135 731 LINE",
"128 739 LINE",
"128 21 LINE",
"135 29 LINE",
"38 15 LINE",
"38 0 LINE"
);
}
);
width = 547;
},
{
anchors = (
{
name = bottom;
position = "{318, 0}";
},
{
name = top;
position = "{308, 540}";
}
);
background = {
paths = (
{
closed = 1;
nodes = (
"307 0 LINE",
"307 100 LINE",
"246 126 LINE",
"262 99 LINE",
"262 394 LINE",
"250 366 LINE",
"280 392 OFFCURVE",
"311 405 OFFCURVE",
"335 405 CURVE SMOOTH",
"363 405 OFFCURVE",
"382 387 OFFCURVE",
"382 350 CURVE SMOOTH",
"382 99 LINE",
"403 127 LINE",
"337 100 LINE",
"337 0 LINE",
"627 0 LINE",
"627 100 LINE",
"566 129 LINE",
"582 103 LINE",
"582 388 LINE SMOOTH",
"582 492 OFFCURVE",
"513 555 OFFCURVE",
"425 555 CURVE SMOOTH",
"362 555 OFFCURVE",
"288 524 OFFCURVE",
"224 461 CURVE",
"262 453 LINE",
"262 785 LINE",
"7 775 LINE",
"7 675 LINE",
"84 645 LINE",
"62 675 LINE",
"62 103 LINE",
"84 130 LINE",
"7 100 LINE",
"7 0 LINE"
);
}
);
};
layerId = "927AED37-E9E6-4F96-A08E-421C3785EFC6";
paths = (
{
closed = 1;
nodes = (
"312 0 LINE",
"312 100 LINE",
"244 131 LINE",
"262 95 LINE",
"262 238 LINE",
"231 227 LINE",
"333 227 LINE",
"307 238 LINE",
"413 0 LINE",
"614 0 LINE",
"614 100 LINE",
"543 123 LINE",
"569 99 LINE",
"454 332 LINE",
"450 284 LINE",
"562 453 LINE",
"521 424 LINE",
"598 445 LINE",
"598 545 LINE",
"331 535 LINE",
"331 435 LINE",
"389 420 LINE",
"375 439 LINE",
"312 336 LINE",
"349 357 LINE",
"231 357 LINE",
"262 330 LINE",
"262 785 LINE",
"7 775 LINE",
"7 675 LINE",
"74 649 LINE",
"62 669 LINE",
"62 95 LINE",
"84 130 LINE",
"7 100 LINE",
"7 0 LINE"
);
}
);
width = 615;
}
);
leftKerningGroup = h;
rightKerningGroup = k;
unicode = 006B;
},
{
color = 1;
glyphname = kgreenlandic;
layers = (
{
guideLines = (
{
position = "{299, 303}";
},
{
position = "{299, 284}";
}
);
layerId = "075BA79B-D813-4287-A9DD-CCAF2D535ED3";
paths = (
{
closed = 1;
nodes = (
"266 0 LINE",
"266 15 LINE",
"155 29 LINE",
"162 21 LINE",
"162 286 LINE",
"155 278 LINE",
"308 278 LINE",
"299 285 LINE",
"468 0 LINE",
"561 0 LINE",
"561 14 LINE",
"467 31 LINE",
"477 24 LINE",
"312 300 LINE",
"313 288 LINE",
"437 502 LINE",
"427 495 LINE",
"523 511 LINE",
"523 525 LINE",
"324 520 LINE",
"324 506 LINE",
"421 495 LINE",
"418 502 LINE",
"294 292 LINE",
"303 297 LINE",
"155 297 LINE",
"162 291 LINE",
"162 525 LINE",
"52 520 LINE",
"52 505 LINE",
"149 491 LINE",
"142 499 LINE",
"142 21 LINE",
"149 29 LINE",
"52 15 LINE",
"52 0 LINE"
);
}
);
width = 561;
},
{
background = {
paths = (
{
closed = 1;
nodes = (
"325 0 LINE",
"325 100 LINE",
"257 131 LINE",
"275 95 LINE",
"275 238 LINE",
"244 227 LINE",
"346 227 LINE",
"320 238 LINE",
"426 0 LINE",
"627 0 LINE",
"627 100 LINE",
"556 123 LINE",
"582 99 LINE",
"467 332 LINE",
"463 284 LINE",
"575 453 LINE",
"534 424 LINE",
"611 445 LINE",
"611 545 LINE",
"344 535 LINE",
"344 435 LINE",
"402 420 LINE",
"388 439 LINE",
"325 336 LINE",
"362 357 LINE",
"244 357 LINE",
"275 330 LINE",
"275 785 LINE",
"20 775 LINE",
"20 675 LINE",
"87 649 LINE",
"75 669 LINE",
"75 95 LINE",
"97 130 LINE",
"20 100 LINE",
"20 0 LINE"
);
}
);
};
guideLines = (
{
position = "{299, 227}";
},
{
position = "{299, 357}";
}
);
layerId = "927AED37-E9E6-4F96-A08E-421C3785EFC6";
paths = (
{
closed = 1;
nodes = (
"326 0 LINE",
"326 100 LINE",
"258 131 LINE",
"276 95 LINE",
"276 243 LINE",
"245 221 LINE",
"347 221 LINE",
"311 243 LINE",
"427 0 LINE",
"628 0 LINE",
"628 100 LINE",
"557 123 LINE",
"583 99 LINE",
"470 317 LINE",
"474 293 LINE",
"571 453 LINE",
"530 424 LINE",
"613 445 LINE",
"613 545 LINE",
"346 535 LINE",
"346 435 LINE",
"398 420 LINE",
"384 439 LINE",
"336 341 LINE",
"363 351 LINE",
"245 351 LINE",
"276 335 LINE",
"276 545 LINE",
"21 535 LINE",
"21 435 LINE",
"88 409 LINE",
"76 429 LINE",
"76 95 LINE",
"98 130 LINE",
"21 100 LINE",
"21 0 LINE"
);
}
);
width = 629;
}
);
leftKerningGroup = h;
rightKerningGroup = k;
rightMetricsKey = k;
unicode = 0138;
},
{
color = 1;
glyphname = l;
layers = (
{
anchors = (
{
name = bottom;
position = "{138, 0}";
},
{
name = center;
position = "{265, 385}";
},
{
name = top;
position = "{109, 753}";
},
{
name = topright;
position = "{256, 522}";
}
);
guideLines = (
{
angle = 90;
position = "{314, 692}";
}
);
layerId = "075BA79B-D813-4287-A9DD-CCAF2D535ED3";
paths = (
{
closed = 1;
nodes = (
"148 765 LINE",
"38 760 LINE",
"38 745 LINE",
"135 731 LINE",
"128 739 LINE",
"128 21 LINE",
"135 29 LINE",
"38 15 LINE",
"38 0 LINE",
"238 0 LINE",
"238 15 LINE",
"141 29 LINE",
"148 21 LINE"
);
}
);
width = 276;
},
{
anchors = (
{
name = bottom;
position = "{162, 0}";
},
{
name = center;
position = "{405, 367}";
},
{
name = top;
position = "{136, 764}";
},
{
name = topright;
position = "{312, 540}";
}
);
background = {
paths = (
{
closed = 1;
nodes = (
"307 0 LINE",
"307 100 LINE",
"246 126 LINE",
"262 99 LINE",
"262 394 LINE",
"250 366 LINE",
"280 392 OFFCURVE",
"311 405 OFFCURVE",
"335 405 CURVE SMOOTH",
"363 405 OFFCURVE",
"382 387 OFFCURVE",
"382 350 CURVE SMOOTH",
"382 99 LINE",
"403 127 LINE",
"337 100 LINE",
"337 0 LINE",
"627 0 LINE",
"627 100 LINE",
"566 129 LINE",
"582 103 LINE",
"582 388 LINE SMOOTH",
"582 492 OFFCURVE",
"513 555 OFFCURVE",
"425 555 CURVE SMOOTH",
"362 555 OFFCURVE",
"288 524 OFFCURVE",
"224 461 CURVE",
"262 453 LINE",
"262 785 LINE",
"7 775 LINE",
"7 675 LINE",
"84 645 LINE",
"62 675 LINE",
"62 103 LINE",
"84 130 LINE",
"7 100 LINE",
"7 0 LINE"
);
}
);
};
layerId = "927AED37-E9E6-4F96-A08E-421C3785EFC6";
paths = (
{
closed = 1;
nodes = (
"262 785 LINE",
"7 775 LINE",
"7 675 LINE",
"72 650 LINE",
"62 661 LINE",
"62 112 LINE",
"74 127 LINE",
"7 100 LINE",
"7 0 LINE",
"317 0 LINE",
"317 100 LINE",
"250 127 LINE",
"262 112 LINE"
);
}
);
width = 324;
}
);
leftKerningGroup = h;
rightKerningGroup = l;
unicode = 006C;
},
{
color = 1;
glyphname = lslash;
layers = (
{
components = (
{
name = l;
transform = "{1, 0, 0, 1, 21, 0}";
}
);
guideLines = (
{
angle = 90;
position = "{159, 481}";
}
);
layerId = "075BA79B-D813-4287-A9DD-CCAF2D535ED3";
paths = (
{
closed = 1;
nodes = (
"265 438 LINE",
"258 455 LINE",
"52 351 LINE",
"59 334 LINE"
);
}
);
width = 312;
},
{
background = {
paths = (
{
closed = 1;
nodes = (
"388 388 LINE",
"348 532 LINE",
"-2 390 LINE",
"38 246 LINE"
);
},
{
closed = 1;
nodes = (
"47 0 LINE",
"334 0 LINE",
"334 55 LINE",
"234 80 LINE",
"234 348 LINE",
"353 405 LINE",
"333 480 LINE",
"234 433 LINE",
"234 770 LINE",
"47 765 LINE",
"47 710 LINE",
"132 690 LINE",
"132 391 LINE",
"17 336 LINE",
"38 262 LINE",
"132 307 LINE",
"132 80 LINE",
"47 55 LINE"
);
}
);
};
components = (
{
name = l;
transform = "{1, 0, 0, 1, 22, 0}";
}
);
guideLines = (
{
angle = 90;
position = "{184, 480}";
}
);
layerId = "927AED37-E9E6-4F96-A08E-421C3785EFC6";
paths = (
{
closed = 1;
nodes = (
"377 426 LINE",
"340 536 LINE",
"-10 376 LINE",
"27 266 LINE"
);
}
);
width = 398;
}
);
leftKerningGroup = lslash;
rightKerningGroup = lslash;
unicode = 0142;
},
{
color = 3;
glyphname = m;
layers = (
{
anchors = (
{
name = bottom;
position = "{488, 0}";
},
{
name = top;
position = "{488, 522}";
}
);
layerId = "075BA79B-D813-4287-A9DD-CCAF2D535ED3";
paths = (
{
closed = 1;
nodes = (
"476 493 OFFCURVE",
"424 528 OFFCURVE",
"360 528 CURVE SMOOTH",
"295 528 OFFCURVE",
"218 497 OFFCURVE",
"151 427 CURVE",
"155 424 LINE",
"150 525 LINE",
"45 520 LINE",
"45 505 LINE",
"142 491 LINE",
"135 499 LINE",
"135 21 LINE",
"142 29 LINE",
"45 15 LINE",
"45 0 LINE",
"245 0 LINE",
"245 15 LINE",
"148 29 LINE",
"155 21 LINE",
"155 414 LINE",
"151 403 LINE",
"220 476 OFFCURVE",
"297 509 OFFCURVE",
"359 509 CURVE SMOOTH",
"428 509 OFFCURVE",
"478 463 OFFCURVE",
"478 363 CURVE SMOOTH",
"478 21 LINE",
"485 29 LINE",
"388 15 LINE",
"388 0 LINE",
"588 0 LINE",
"588 15 LINE",
"491 29 LINE",
"498 21 LINE",
"498 368 LINE SMOOTH",
"498 382 OFFCURVE",
"497 396 OFFCURVE",
"495 408 CURVE",
"492 400 LINE",
"561 473 OFFCURVE",
"638 509 OFFCURVE",
"700 509 CURVE SMOOTH",
"769 509 OFFCURVE",
"819 463 OFFCURVE",
"819 363 CURVE SMOOTH",
"819 21 LINE",
"826 29 LINE",
"729 15 LINE",
"729 0 LINE",
"929 0 LINE",
"929 15 LINE",
"832 29 LINE",
"839 21 LINE",
"839 368 LINE SMOOTH",
"839 477 OFFCURVE",
"779 528 OFFCURVE",
"701 528 CURVE SMOOTH",
"636 528 OFFCURVE",
"557 493 OFFCURVE",
"490 422 CURVE",
"493 420 LINE"
);
}
);
width = 959;
},
{
anchors = (
{
name = bottom;
position = "{488, 0}";
},
{
name = top;
position = "{488, 522}";
}
);
associatedMasterId = "075BA79B-D813-4287-A9DD-CCAF2D535ED3";
background = {
paths = (
{
closed = 0;
nodes = (
"493 420 LINE",
"476 493 OFFCURVE",
"424 528 OFFCURVE",
"360 528 CURVE SMOOTH",
"295 528 OFFCURVE",
"218 497 OFFCURVE",
"151 427 CURVE",
"155 424 LINE",
"150 525 LINE",
"45 520 LINE",
"45 505 LINE",
"142 491 LINE",
"135 499 LINE",
"135 21 LINE",
"142 29 LINE",
"45 15 LINE",
"45 0 LINE",
"245 0 LINE",
"245 15 LINE",
"148 29 LINE",
"155 21 LINE",
"155 414 LINE",
"151 403 LINE",
"220 476 OFFCURVE",
"297 509 OFFCURVE",
"359 509 CURVE SMOOTH",
"428 509 OFFCURVE",
"478 463 OFFCURVE",
"478 363 CURVE SMOOTH",
"478 21 LINE",
"485 29 LINE",
"388 15 LINE",
"388 0 LINE",
"583 0 LINE",
"583 15 LINE",
"491 29 LINE",
"498 21 LINE",
"498 368 LINE SMOOTH",
"498 382 OFFCURVE",
"497 396 OFFCURVE",
"495 408 CURVE",
"492 400 LINE",
"561 473 OFFCURVE",
"638 509 OFFCURVE",
"700 509 CURVE SMOOTH",
"769 509 OFFCURVE",
"819 463 OFFCURVE",
"819 363 CURVE SMOOTH",
"819 21 LINE",
"826 29 LINE",
"729 15 LINE",
"729 0 LINE",
"924 0 LINE",
"924 15 LINE",
"832 29 LINE",
"839 21 LINE",
"839 368 LINE SMOOTH",
"839 477 OFFCURVE",
"779 528 OFFCURVE",
"701 528 CURVE SMOOTH",
"636 528 OFFCURVE",
"559 494 OFFCURVE",
"492 424 CURVE"
);
}
);
};
layerId = "520FD267-D605-4A6E-B9BC-505CD56EB5D9";
name = "Light [165]";
paths = (
{
closed = 1;
nodes = (
"476 493 OFFCURVE",
"424 528 OFFCURVE",
"360 528 CURVE SMOOTH",
"295 528 OFFCURVE",
"218 497 OFFCURVE",
"151 427 CURVE",
"155 424 LINE",
"150 525 LINE",
"45 520 LINE",
"45 505 LINE",
"142 491 LINE",
"135 499 LINE",
"135 21 LINE",
"142 29 LINE",
"45 15 LINE",
"45 0 LINE",
"245 0 LINE",
"245 15 LINE",
"148 29 LINE",
"155 21 LINE",
"155 414 LINE",
"151 403 LINE",
"220 476 OFFCURVE",
"297 509 OFFCURVE",
"359 509 CURVE SMOOTH",
"428 509 OFFCURVE",
"478 463 OFFCURVE",
"478 363 CURVE SMOOTH",
"478 0 LINE",
"588 0 LINE",
"588 15 LINE",
"489 29 LINE",
"498 19 LINE",
"498 368 LINE SMOOTH",
"498 382 OFFCURVE",
"497 396 OFFCURVE",
"495 408 CURVE",
"492 400 LINE",
"561 473 OFFCURVE",
"638 509 OFFCURVE",
"700 509 CURVE SMOOTH",
"769 509 OFFCURVE",
"819 463 OFFCURVE",
"819 363 CURVE SMOOTH",
"819 0 LINE",
"929 0 LINE",
"929 15 LINE",
"832 29 LINE",
"839 21 LINE",
"839 368 LINE SMOOTH",
"839 477 OFFCURVE",
"779 528 OFFCURVE",
"701 528 CURVE SMOOTH",
"636 528 OFFCURVE",
"557 493 OFFCURVE",
"490 422 CURVE",
"493 420 LINE"
);
}
);
width = 959;
},
{
anchors = (
{
name = bottom;
position = "{486, 0}";
},
{
name = top;
position = "{486, 540}";
}
);
background = {
paths = (
{
closed = 1;
nodes = (
"321 0 LINE",
"321 100 LINE",
"260 126 LINE",
"276 99 LINE",
"276 395 LINE",
"264 369 LINE",
"292 392 OFFCURVE",
"320 405 OFFCURVE",
"344 405 CURVE SMOOTH",
"374 405 OFFCURVE",
"396 384 OFFCURVE",
"396 336 CURVE SMOOTH",
"396 99 LINE",
"417 127 LINE",
"351 100 LINE",
"351 0 LINE",
"651 0 LINE",
"651 100 LINE",
"580 129 LINE",
"596 103 LINE",
"596 378 LINE SMOOTH",
"596 496 OFFCURVE",
"525 555 OFFCURVE",
"435 555 CURVE SMOOTH",
"370 555 OFFCURVE",
"295 524 OFFCURVE",
"231 461 CURVE",
"256 453 LINE",
"232 546 LINE",
"21 536 LINE",
"21 436 LINE",
"98 406 LINE",
"76 436 LINE",
"76 103 LINE",
"98 130 LINE",
"21 100 LINE",
"21 0 LINE"
);
}
);
};
layerId = "927AED37-E9E6-4F96-A08E-421C3785EFC6";
paths = (
{
closed = 1;
nodes = (
"541 529 OFFCURVE",
"490 555 OFFCURVE",
"432 555 CURVE SMOOTH",
"367 555 OFFCURVE",
"292 521 OFFCURVE",
"231 461 CURVE",
"256 453 LINE",
"232 546 LINE",
"21 536 LINE",
"21 436 LINE",
"98 406 LINE",
"76 436 LINE",
"76 103 LINE",
"98 130 LINE",
"21 100 LINE",
"21 0 LINE",
"316 0 LINE",
"316 100 LINE",
"260 126 LINE",
"276 99 LINE",
"276 394 LINE",
"264 369 LINE",
"291 392 OFFCURVE",
"318 405 OFFCURVE",
"340 405 CURVE SMOOTH",
"367 405 OFFCURVE",
"386 384 OFFCURVE",
"386 337 CURVE SMOOTH",
"386 99 LINE",
"407 127 LINE",
"346 100 LINE",
"346 0 LINE",
"626 0 LINE",
"626 100 LINE",
"570 129 LINE",
"586 103 LINE",
"586 389 LINE SMOOTH",
"586 392 OFFCURVE",
"586 397 OFFCURVE",
"585 408 CURVE",
"571 366 LINE",
"600 391 OFFCURVE",
"628 405 OFFCURVE",
"650 405 CURVE SMOOTH",
"678 405 OFFCURVE",
"696 384 OFFCURVE",
"696 337 CURVE SMOOTH",
"696 99 LINE",
"717 127 LINE",
"656 100 LINE",
"656 0 LINE",
"951 0 LINE",
"951 100 LINE",
"880 129 LINE",
"896 103 LINE",
"896 381 LINE SMOOTH",
"896 498 OFFCURVE",
"828 555 OFFCURVE",
"742 555 CURVE SMOOTH",
"678 555 OFFCURVE",
"604 524 OFFCURVE",
"541 461 CURVE",
"569 470 LINE"
);
}
);
width = 952;
},
{
anchors = (
{
name = bottom;
position = "{486, 0}";
},
{
name = top;
position = "{486, 540}";
}
);
associatedMasterId = "927AED37-E9E6-4F96-A08E-421C3785EFC6";
background = {
paths = (
{
closed = 1;
nodes = (
"541 529 OFFCURVE",
"490 555 OFFCURVE",
"432 555 CURVE SMOOTH",
"367 555 OFFCURVE",
"292 521 OFFCURVE",
"231 461 CURVE",
"256 453 LINE",
"232 546 LINE",
"21 536 LINE",
"21 436 LINE",
"98 406 LINE",
"76 436 LINE",
"76 103 LINE",
"98 130 LINE",
"21 100 LINE",
"21 0 LINE",
"331 0 LINE",
"331 100 LINE",
"260 126 LINE",
"276 99 LINE",
"276 403 LINE",
"264 378 LINE",
"291 401 OFFCURVE",
"318 414 OFFCURVE",
"340 414 CURVE SMOOTH",
"367 414 OFFCURVE",
"386 393 OFFCURVE",
"386 346 CURVE SMOOTH",
"386 0 LINE",
"641 0 LINE",
"641 100 LINE",
"570 129 LINE",
"586 103 LINE",
"586 398 LINE SMOOTH",
"586 401 OFFCURVE",
"586 406 OFFCURVE",
"585 417 CURVE",
"571 375 LINE",
"600 400 OFFCURVE",
"628 414 OFFCURVE",
"650 414 CURVE SMOOTH",
"678 414 OFFCURVE",
"696 393 OFFCURVE",
"696 346 CURVE SMOOTH",
"696 0 LINE",
"951 0 LINE",
"951 100 LINE",
"880 129 LINE",
"896 103 LINE",
"896 381 LINE SMOOTH",
"896 498 OFFCURVE",
"828 555 OFFCURVE",
"742 555 CURVE SMOOTH",
"678 555 OFFCURVE",
"604 524 OFFCURVE",
"541 461 CURVE",
"569 470 LINE"
);
}
);
};
layerId = "9467A620-8DFE-4C58-84D9-0BB228D85D2E";
name = "Bold [165]";
paths = (
{
closed = 1;
nodes = (
"541 529 OFFCURVE",
"490 555 OFFCURVE",
"432 555 CURVE SMOOTH",
"367 555 OFFCURVE",
"292 521 OFFCURVE",
"231 461 CURVE",
"256 453 LINE",
"232 546 LINE",
"21 536 LINE",
"21 436 LINE",
"98 406 LINE",
"76 436 LINE",
"76 103 LINE",
"98 130 LINE",
"21 100 LINE",
"21 0 LINE",
"331 0 LINE",
"331 100 LINE",
"260 126 LINE",
"276 99 LINE",
"276 394 LINE",
"264 369 LINE",
"291 392 OFFCURVE",
"318 405 OFFCURVE",
"340 405 CURVE SMOOTH",
"367 405 OFFCURVE",
"386 384 OFFCURVE",
"386 337 CURVE SMOOTH",
"386 0 LINE",
"641 0 LINE",
"641 100 LINE",
"570 129 LINE",
"586 103 LINE",
"586 389 LINE SMOOTH",
"586 392 OFFCURVE",
"586 397 OFFCURVE",
"585 408 CURVE",
"571 366 LINE",
"600 391 OFFCURVE",
"628 405 OFFCURVE",
"650 405 CURVE SMOOTH",
"678 405 OFFCURVE",
"696 384 OFFCURVE",
"696 337 CURVE SMOOTH",
"696 0 LINE",
"951 0 LINE",
"951 100 LINE",
"880 129 LINE",
"896 103 LINE",
"896 381 LINE SMOOTH",
"896 498 OFFCURVE",
"828 555 OFFCURVE",
"742 555 CURVE SMOOTH",
"678 555 OFFCURVE",
"604 524 OFFCURVE",
"541 461 CURVE",
"569 470 LINE"
);
}
);
width = 952;
}
);
leftKerningGroup = n;
leftMetricsKey = n;
rightKerningGroup = n;
unicode = 006D;
},
{
color = 3;
glyphname = n;
layers = (
{
anchors = (
{
name = bottom;
position = "{321, 0}";
},
{
name = top;
position = "{321, 522}";
},
{
name = topleft;
position = "{45, 522}";
}
);
layerId = "075BA79B-D813-4287-A9DD-CCAF2D535ED3";
paths = (
{
closed = 1;
nodes = (
"245 0 LINE",
"245 15 LINE",
"148 29 LINE",
"155 21 LINE",
"155 414 LINE",
"151 403 LINE",
"220 476 OFFCURVE",
"297 509 OFFCURVE",
"359 509 CURVE SMOOTH",
"438 509 OFFCURVE",
"488 463 OFFCURVE",
"488 363 CURVE SMOOTH",
"488 21 LINE",
"495 29 LINE",
"398 15 LINE",
"398 0 LINE",
"598 0 LINE",
"598 15 LINE",
"501 29 LINE",
"508 21 LINE",
"508 368 LINE SMOOTH",
"510 477 OFFCURVE",
"448 528 OFFCURVE",
"360 528 CURVE SMOOTH",
"295 528 OFFCURVE",
"218 497 OFFCURVE",
"151 427 CURVE",
"155 424 LINE",
"150 525 LINE",
"45 520 LINE",
"45 505 LINE",
"142 491 LINE",
"135 499 LINE",
"135 21 LINE",
"142 29 LINE",
"45 15 LINE",
"45 0 LINE"
);
}
);
width = 628;
},
{
anchors = (
{
name = bottom;
position = "{321, 0}";
},
{
name = top;
position = "{321, 522}";
},
{
name = topleft;
position = "{45, 522}";
}
);
associatedMasterId = "075BA79B-D813-4287-A9DD-CCAF2D535ED3";
background = {
paths = (
{
closed = 1;
nodes = (
"238 0 LINE",
"238 15 LINE",
"153 25 LINE",
"153 408 LINE",
"303 555 OFFCURVE",
"490 560 OFFCURVE",
"490 362 CURVE SMOOTH",
"490 25 LINE",
"405 15 LINE",
"405 0 LINE",
"593 0 LINE",
"593 15 LINE",
"508 25 LINE",
"508 363 LINE SMOOTH",
"508 569 OFFCURVE",
"318 583 OFFCURVE",
"153 432 CURVE",
"153 530 LINE",
"45 525 LINE",
"45 513 LINE",
"135 501 LINE",
"135 25 LINE",
"45 15 LINE",
"45 0 LINE"
);
}
);
};
layerId = "3FB1C137-3D48-4F91-BFB6-434C98F934DF";
name = "Light [165]";
paths = (
{
closed = 1;
nodes = (
"245 0 LINE",
"245 15 LINE",
"148 29 LINE",
"155 21 LINE",
"155 414 LINE",
"151 403 LINE",
"220 476 OFFCURVE",
"297 509 OFFCURVE",
"359 509 CURVE SMOOTH",
"438 509 OFFCURVE",
"490 463 OFFCURVE",
"488 363 CURVE SMOOTH",
"488 0 LINE",
"598 0 LINE",
"598 15 LINE",
"501 29 LINE",
"508 21 LINE",
"508 368 LINE SMOOTH",
"510 477 OFFCURVE",
"448 528 OFFCURVE",
"360 528 CURVE SMOOTH",
"295 528 OFFCURVE",
"218 497 OFFCURVE",
"151 427 CURVE",
"155 424 LINE",
"150 525 LINE",
"45 520 LINE",
"45 505 LINE",
"142 491 LINE",
"135 499 LINE",
"135 21 LINE",
"142 29 LINE",
"45 15 LINE",
"45 0 LINE"
);
}
);
width = 628;
},
{
anchors = (
{
name = bottom;
position = "{335, 0}";
},
{
name = top;
position = "{336, 540}";
},
{
name = topleft;
position = "{21, 540}";
}
);
background = {
paths = (
{
closed = 1;
nodes = (
"321 0 LINE",
"321 100 LINE",
"260 126 LINE",
"276 99 LINE",
"276 404 LINE",
"264 378 LINE",
"325 431 OFFCURVE",
"396 431 OFFCURVE",
"396 346 CURVE SMOOTH",
"396 99 LINE",
"417 127 LINE",
"351 100 LINE",
"351 0 LINE",
"651 0 LINE",
"651 100 LINE",
"580 129 LINE",
"596 103 LINE",
"596 378 LINE SMOOTH",
"596 582 OFFCURVE",
"383 610 OFFCURVE",
"232 461 CURVE",
"256 453 LINE",
"232 546 LINE",
"21 536 LINE",
"21 436 LINE",
"98 406 LINE",
"76 436 LINE",
"76 103 LINE",
"98 130 LINE",
"21 100 LINE",
"21 0 LINE"
);
}
);
};
layerId = "927AED37-E9E6-4F96-A08E-421C3785EFC6";
paths = (
{
closed = 1;
nodes = (
"321 0 LINE",
"321 100 LINE",
"260 126 LINE",
"276 99 LINE",
"276 395 LINE",
"264 369 LINE",
"292 392 OFFCURVE",
"320 405 OFFCURVE",
"344 405 CURVE SMOOTH",
"374 405 OFFCURVE",
"396 384 OFFCURVE",
"396 336 CURVE SMOOTH",
"396 99 LINE",
"417 127 LINE",
"351 100 LINE",
"351 0 LINE",
"651 0 LINE",
"651 100 LINE",
"580 129 LINE",
"596 103 LINE",
"596 378 LINE SMOOTH",
"596 496 OFFCURVE",
"525 555 OFFCURVE",
"435 555 CURVE SMOOTH",
"370 555 OFFCURVE",
"295 524 OFFCURVE",
"231 461 CURVE",
"256 453 LINE",
"232 546 LINE",
"21 536 LINE",
"21 436 LINE",
"98 406 LINE",
"76 436 LINE",
"76 103 LINE",
"98 130 LINE",
"21 100 LINE",
"21 0 LINE"
);
}
);
width = 651;
},
{
anchors = (
{
name = bottom;
position = "{335, 0}";
},
{
name = top;
position = "{336, 540}";
},
{
name = topleft;
position = "{21, 540}";
}
);
associatedMasterId = "927AED37-E9E6-4F96-A08E-421C3785EFC6";
background = {
paths = (
{
closed = 1;
nodes = (
"331 0 LINE",
"331 100 LINE",
"260 126 LINE",
"276 99 LINE",
"276 394 LINE",
"264 366 LINE",
"294 392 OFFCURVE",
"325 405 OFFCURVE",
"349 405 CURVE SMOOTH",
"377 405 OFFCURVE",
"396 387 OFFCURVE",
"396 350 CURVE SMOOTH",
"396 0 LINE",
"651 0 LINE",
"651 100 LINE",
"580 129 LINE",
"596 103 LINE",
"596 388 LINE SMOOTH",
"596 492 OFFCURVE",
"527 555 OFFCURVE",
"439 555 CURVE SMOOTH",
"376 555 OFFCURVE",
"302 524 OFFCURVE",
"238 461 CURVE",
"256 453 LINE",
"232 546 LINE",
"21 536 LINE",
"21 436 LINE",
"98 406 LINE",
"76 436 LINE",
"76 103 LINE",
"98 130 LINE",
"21 100 LINE",
"21 0 LINE"
);
}
);
};
layerId = "147DD7D2-3DB6-4AB2-A690-D38FC435F1C8";
name = "Bold [165]";
paths = (
{
closed = 1;
nodes = (
"331 0 LINE",
"331 100 LINE",
"260 126 LINE",
"276 99 LINE",
"276 395 LINE",
"264 369 LINE",
"291 392 OFFCURVE",
"320 405 OFFCURVE",
"344 405 CURVE SMOOTH",
"374 405 OFFCURVE",
"396 384 OFFCURVE",
"396 337 CURVE SMOOTH",
"396 0 LINE",
"651 0 LINE",
"651 100 LINE",
"580 129 LINE",
"596 103 LINE",
"596 378 LINE SMOOTH",
"596 496 OFFCURVE",
"524 555 OFFCURVE",
"435 555 CURVE SMOOTH",
"369 555 OFFCURVE",
"295 524 OFFCURVE",
"231 461 CURVE",
"256 453 LINE",
"232 546 LINE",
"21 536 LINE",
"21 436 LINE",
"98 406 LINE",
"76 436 LINE",
"76 103 LINE",
"98 130 LINE",
"21 100 LINE",
"21 0 LINE"
);
}
);
width = 652;
}
);
leftKerningGroup = n;
rightKerningGroup = n;
unicode = 006E;
},
{
color = 1;
glyphname = napostrophe;
layers = (
{
components = (
{
alignment = 1;
name = n;
}
);
layerId = "075BA79B-D813-4287-A9DD-CCAF2D535ED3";
paths = (
{
closed = 1;
nodes = (
"59 646 OFFCURVE",
"78 694 OFFCURVE",
"78 726 CURVE SMOOTH",
"78 752 OFFCURVE",
"65 762 OFFCURVE",
"52 762 CURVE SMOOTH",
"40 762 OFFCURVE",
"28 754 OFFCURVE",
"28 737 CURVE SMOOTH",
"28 715 OFFCURVE",
"47 715 OFFCURVE",
"47 690 CURVE SMOOTH",
"47 675 OFFCURVE",
"40 654 OFFCURVE",
"22 623 CURVE",
"35 614 LINE"
);
}
);
width = 628;
},
{
components = (
{
alignment = 1;
name = n;
transform = "{1, 0, 0, 1, 56, 0}";
}
);
layerId = "927AED37-E9E6-4F96-A08E-421C3785EFC6";
paths = (
{
closed = 1;
nodes = (
"111 618 OFFCURVE",
"136 683 OFFCURVE",
"136 732 CURVE SMOOTH",
"136 795 OFFCURVE",
"95 824 OFFCURVE",
"52 824 CURVE SMOOTH",
"11 824 OFFCURVE",
"-30 798 OFFCURVE",
"-30 746 CURVE SMOOTH",
"-30 696 OFFCURVE",
"7 679 OFFCURVE",
"7 639 CURVE SMOOTH",
"7 626 OFFCURVE",
"3 602 OFFCURVE",
"-17 568 CURVE",
"48 534 LINE"
);
}
);
width = 707;
}
);
leftKerningGroup = n;
rightKerningGroup = n;
rightMetricsKey = n;
unicode = 0149;
},
{
color = 1;
glyphname = eng;
layers = (
{
layerId = "075BA79B-D813-4287-A9DD-CCAF2D535ED3";
paths = (
{
closed = 1;
nodes = (
"493 -236 OFFCURVE",
"508 -163 OFFCURVE",
"508 -68 CURVE SMOOTH",
"508 368 LINE SMOOTH",
"508 477 OFFCURVE",
"448 528 OFFCURVE",
"360 528 CURVE SMOOTH",
"295 528 OFFCURVE",
"218 497 OFFCURVE",
"151 427 CURVE",
"155 424 LINE",
"150 525 LINE",
"45 520 LINE",
"45 505 LINE",
"142 491 LINE",
"135 499 LINE",
"135 21 LINE",
"142 29 LINE",
"45 15 LINE",
"45 0 LINE",
"245 0 LINE",
"245 15 LINE",
"148 29 LINE",
"155 21 LINE",
"155 414 LINE",
"151 403 LINE",
"220 476 OFFCURVE",
"297 509 OFFCURVE",
"359 509 CURVE SMOOTH",
"438 509 OFFCURVE",
"488 463 OFFCURVE",
"488 363 CURVE SMOOTH",
"488 -77 LINE SMOOTH",
"488 -179 OFFCURVE",
"456 -217 OFFCURVE",
"375 -217 CURVE SMOOTH",
"365 -217 OFFCURVE",
"354 -216 OFFCURVE",
"342 -215 CURVE",
"340 -234 LINE",
"352 -235 OFFCURVE",
"363 -236 OFFCURVE",
"373 -236 CURVE SMOOTH"
);
}
);
width = 615;
},
{
background = {
paths = (
{
closed = 1;
nodes = (
"282 -241 OFFCURVE",
"312 -245 OFFCURVE",
"341 -245 CURVE SMOOTH",
"476 -245 OFFCURVE",
"596 -179 OFFCURVE",
"596 36 CURVE SMOOTH",
"596 388 LINE SMOOTH",
"596 492 OFFCURVE",
"527 555 OFFCURVE",
"439 555 CURVE SMOOTH",
"376 555 OFFCURVE",
"302 524 OFFCURVE",
"238 461 CURVE",
"256 453 LINE",
"232 546 LINE",
"21 536 LINE",
"21 436 LINE",
"98 406 LINE",
"76 436 LINE",
"76 103 LINE",
"98 130 LINE",
"21 100 LINE",
"21 0 LINE",
"326 0 LINE",
"326 100 LINE",
"260 126 LINE",
"276 99 LINE",
"276 394 LINE",
"264 366 LINE",
"294 392 OFFCURVE",
"325 405 OFFCURVE",
"349 405 CURVE SMOOTH",
"377 405 OFFCURVE",
"396 387 OFFCURVE",
"396 350 CURVE SMOOTH",
"396 -22 LINE SMOOTH",
"396 -75 OFFCURVE",
"376 -102 OFFCURVE",
"318 -102 CURVE SMOOTH",
"267 -102 LINE",
"252 -236 LINE"
);
}
);
};
guideLines = (
{
position = "{90, -96}";
}
);
layerId = "927AED37-E9E6-4F96-A08E-421C3785EFC6";
paths = (
{
closed = 1;
nodes = (
"476 -245 OFFCURVE",
"596 -179 OFFCURVE",
"596 36 CURVE",
"596 378 LINE SMOOTH",
"596 496 OFFCURVE",
"525 555 OFFCURVE",
"435 555 CURVE SMOOTH",
"370 555 OFFCURVE",
"295 524 OFFCURVE",
"231 461 CURVE",
"256 453 LINE",
"232 546 LINE",
"21 536 LINE",
"21 436 LINE",
"98 406 LINE",
"76 436 LINE",
"76 103 LINE",
"98 130 LINE",
"21 100 LINE",
"21 0 LINE",
"321 0 LINE",
"321 100 LINE",
"260 126 LINE",
"276 99 LINE",
"276 395 LINE",
"264 369 LINE",
"292 392 OFFCURVE",
"320 405 OFFCURVE",
"344 405 CURVE SMOOTH",
"374 405 OFFCURVE",
"396 384 OFFCURVE",
"396 336 CURVE",
"396 -22 LINE SMOOTH",
"396 -79 OFFCURVE",
"374 -101 OFFCURVE",
"319 -101 CURVE SMOOTH",
"304 -101 OFFCURVE",
"287 -99 OFFCURVE",
"267 -96 CURVE",
"252 -236 LINE",
"282 -241 OFFCURVE",
"312 -245 OFFCURVE",
"341 -245 CURVE SMOOTH"
);
}
);
width = 645;
}
);
leftKerningGroup = n;
leftMetricsKey = n;
rightKerningGroup = j;
rightMetricsKey = j;
unicode = 014B;
},
{
color = 1;
glyphname = o;
layers = (
{
anchors = (
{
name = bottom;
position = "{293, 0}";
},
{
name = center;
position = "{293, 261}";
},
{
name = ogonek;
position = "{338, 0}";
},
{
name = top;
position = "{293, 522}";
},
{
name = topright;
position = "{457, 479}";
}
);
guideLines = (
{
angle = 90;
position = "{1103, 522}";
}
);
layerId = "075BA79B-D813-4287-A9DD-CCAF2D535ED3";
paths = (
{
closed = 1;
nodes = (
"157 528 OFFCURVE",
"70 418 OFFCURVE",
"70 249 CURVE SMOOTH",
"70 84 OFFCURVE",
"152 -6 OFFCURVE",
"283 -6 CURVE SMOOTH",
"430 -6 OFFCURVE",
"517 106 OFFCURVE",
"517 270 CURVE SMOOTH",
"517 432 OFFCURVE",
"432 528 OFFCURVE",
"299 528 CURVE SMOOTH"
);
},
{
closed = 1;
nodes = (
"420 509 OFFCURVE",
"496 418 OFFCURVE",
"496 267 CURVE SMOOTH",
"496 116 OFFCURVE",
"419 13 OFFCURVE",
"285 13 CURVE SMOOTH",
"164 13 OFFCURVE",
"91 98 OFFCURVE",
"91 251 CURVE SMOOTH",
"91 407 OFFCURVE",
"167 509 OFFCURVE",
"297 509 CURVE SMOOTH"
);
}
);
width = 586;
},
{
anchors = (
{
name = bottom;
position = "{287, 0}";
},
{
name = center;
position = "{287, 270}";
},
{
name = ogonek;
position = "{381, 0}";
},
{
name = top;
position = "{287, 540}";
},
{
name = topright;
position = "{529, 505}";
}
);
background = {
anchors = (
{
name = bottom;
position = "{287, 0}";
},
{
name = center;
position = "{287, 270}";
},
{
name = ogonek;
position = "{514, 10}";
},
{
name = top;
position = "{287, 540}";
},
{
name = topright;
position = "{551, 540}";
}
);
paths = (
{
closed = 1;
nodes = (
"122 555 OFFCURVE",
"12 460 OFFCURVE",
"12 259 CURVE SMOOTH",
"12 72 OFFCURVE",
"107 -15 OFFCURVE",
"273 -15 CURVE SMOOTH",
"456 -15 OFFCURVE",
"562 91 OFFCURVE",
"562 283 CURVE SMOOTH",
"562 464 OFFCURVE",
"467 555 OFFCURVE",
"296 555 CURVE SMOOTH"
);
},
{
closed = 1;
nodes = (
"329 415 OFFCURVE",
"354 393 OFFCURVE",
"354 276 CURVE SMOOTH",
"354 147 OFFCURVE",
"324 125 OFFCURVE",
"286 125 CURVE SMOOTH",
"245 125 OFFCURVE",
"220 150 OFFCURVE",
"220 270 CURVE SMOOTH",
"220 399 OFFCURVE",
"249 415 OFFCURVE",
"286 415 CURVE SMOOTH"
);
}
);
};
layerId = "927AED37-E9E6-4F96-A08E-421C3785EFC6";
paths = (
{
closed = 1;
nodes = (
"122 555 OFFCURVE",
"12 460 OFFCURVE",
"12 259 CURVE SMOOTH",
"12 72 OFFCURVE",
"107 -15 OFFCURVE",
"273 -15 CURVE SMOOTH",
"456 -15 OFFCURVE",
"562 91 OFFCURVE",
"562 283 CURVE SMOOTH",
"562 464 OFFCURVE",
"467 555 OFFCURVE",
"296 555 CURVE SMOOTH"
);
},
{
closed = 1;
nodes = (
"329 415 OFFCURVE",
"354 393 OFFCURVE",
"354 276 CURVE SMOOTH",
"354 147 OFFCURVE",
"324 125 OFFCURVE",
"286 125 CURVE SMOOTH",
"245 125 OFFCURVE",
"220 150 OFFCURVE",
"220 270 CURVE SMOOTH",
"220 399 OFFCURVE",
"249 415 OFFCURVE",
"286 415 CURVE SMOOTH"
);
}
);
width = 574;
}
);
leftKerningGroup = o;
rightKerningGroup = o;
unicode = 006F;
},
{
color = 1;
glyphname = oslash;
layers = (
{
components = (
{
name = o;
transform = "{1, 0, 0, 1, 6, 0}";
}
);
guideLines = (
{
angle = 90;
position = "{300, 445}";
}
);
layerId = "075BA79B-D813-4287-A9DD-CCAF2D535ED3";
paths = (
{
closed = 1;
nodes = (
"93 -60 LINE",
"110 -71 LINE",
"506 580 LINE",
"489 590 LINE"
);
}
);
width = 599;
},
{
background = {
guideLines = (
{
angle = 90;
position = "{290, 613}";
}
);
paths = (
{
closed = 1;
nodes = (
"27 -58 LINE",
"104 -103 LINE",
"551 603 LINE",
"475 648 LINE"
);
},
{
closed = 1;
nodes = (
"124 555 OFFCURVE",
"14 456 OFFCURVE",
"14 265 CURVE SMOOTH",
"14 66 OFFCURVE",
"109 -15 OFFCURVE",
"281 -15 CURVE SMOOTH",
"454 -15 OFFCURVE",
"564 91 OFFCURVE",
"564 280 CURVE SMOOTH",
"564 466 OFFCURVE",
"469 555 OFFCURVE",
"296 555 CURVE SMOOTH"
);
},
{
closed = 1;
nodes = (
"331 415 OFFCURVE",
"356 389 OFFCURVE",
"356 273 CURVE SMOOTH",
"356 144 OFFCURVE",
"326 125 OFFCURVE",
"286 125 CURVE SMOOTH",
"247 125 OFFCURVE",
"222 153 OFFCURVE",
"222 272 CURVE SMOOTH",
"222 403 OFFCURVE",
"251 415 OFFCURVE",
"291 415 CURVE SMOOTH"
);
}
);
};
components = (
{
name = o;
transform = "{1, 0, 0, 1, 4, 0}";
}
);
layerId = "927AED37-E9E6-4F96-A08E-421C3785EFC6";
paths = (
{
closed = 1;
nodes = (
"27 -58 LINE",
"104 -103 LINE",
"551 603 LINE",
"475 648 LINE"
);
}
);
width = 577;
}
);
leftKerningGroup = o;
rightKerningGroup = o;
unicode = 00F8;
},
